SplineFontDB: 3.0
FontName: FredokaOne-Regular
FullName: Fredoka One
FamilyName: Fredoka One
Weight: Regular
Copyright: Copyright (c) 2011 Milena B Brandao (milenabbrandao@gmail.com), with Reserved Font Name "Fredoka"
Version: 001.001
ItalicAngle: 0
UnderlinePosition: -50
UnderlineWidth: 50
Ascent: 750
Descent: 250
LayerCount: 2
Layer: 0 1 "Back"  1
Layer: 1 1 "Fore"  0
XUID: [1021 288 713564382 7372011]
FSType: 0
OS2Version: 2
OS2_WeightWidthSlopeOnly: 0
OS2_UseTypoMetrics: 1
CreationTime: 1277065865
ModificationTime: 1331488535
PfmFamily: 17
TTFWeight: 400
TTFWidth: 5
LineGap: 0
VLineGap: 0
Panose: 2 0 0 0 0 0 0 0 0 0
OS2TypoAscent: 974
OS2TypoAOffset: 0
OS2TypoDescent: -236
OS2TypoDOffset: 0
OS2TypoLinegap: 0
OS2WinAscent: 974
OS2WinAOffset: 0
OS2WinDescent: 236
OS2WinDOffset: 0
HheadAscent: 974
HheadAOffset: 0
HheadDescent: -236
HheadDOffset: 0
OS2SubXSize: 700
OS2SubYSize: 650
OS2SubXOff: 0
OS2SubYOff: 140
OS2SupXSize: 700
OS2SupYSize: 650
OS2SupXOff: 0
OS2SupYOff: 477
OS2StrikeYSize: 50
OS2StrikeYPos: 250
OS2Vendor: 'ssde'
OS2CodePages: 20000001.00000000
OS2UnicodeRanges: 8000002f.4000004a.00000000.00000000
Lookup: 1 0 0 "'ordn' Ordinals in Latin lookup 0"  {"'ordn' Ordinals in Latin lookup 0 subtable"  } ['ordn' ('latn' <'dflt' > ) ]
Lookup: 1 0 0 "'sups' Superscript in Latin lookup 1"  {"'sups' Superscript in Latin lookup 1 subtable" ("superior" ) } ['sups' ('latn' <'dflt' > ) ]
Lookup: 4 0 0 "'frac' Diagonal Fractions in Latin lookup 2"  {"'frac' Diagonal Fractions in Latin lookup 2 subtable"  } ['frac' ('latn' <'dflt' > ) ]
Lookup: 4 0 1 "'liga' Standard Ligatures in Latin lookup 3"  {"'liga' Standard Ligatures in Latin lookup 3 subtable"  } ['liga' ('latn' <'dflt' > ) ]
Lookup: 258 0 0 "'kern' Horizontal Kerning in Latin lookup 0"  {"'kern' Horizontal Kerning in Latin lookup 0 per glyph data 0"  "'kern' Horizontal Kerning in Latin lookup 0 per glyph data 1"  "'kern' Horizontal Kerning in Latin lookup 0 kerning class 2"  } ['kern' ('latn' <'dflt' > ) ]

StartChar: k
Encoding: 107 107 1
Width: 536
Flags: MW
HStem: 0 21G<83.5 171> 755 20G<84 171.5>
VStem: 40 175<88 164 369 686>
LayerCount: 2
Fore
SplineSet
350 264 m 1,0,-1
 483 154 l 2,1,2
 507.78125 133.03125 507.78125 133.03125 514.390625 122.015625 c 128,-1,3
 521 111 521 111 521 101 c 0,4,5
 521 77 521 77 490 36 c 1,6,7
 456 -6 456 -6 430.5 -6 c 0,8,9
 407.666666667 -6 407.666666667 -6 369 23 c 1,10,-1
 359 30 l 1,11,12
 336 49 336 49 288 96.5 c 128,-1,13
 240 144 240 144 215 164 c 1,14,-1
 215 87 l 2,15,16
 215 64 215 64 213.5 52.5 c 128,-1,17
 212 41 212 41 204.5 26.5 c 0,18,19
 190.793103448 1.95399252334e-14 190.793103448 1.95399252334e-14 127 0 c 0,20,21
 64 0 64 0 50.5 27 c 0,22,23
 43 42 43 42 41.5 53.5 c 128,-1,24
 40 65 40 65 40 88 c 2,25,-1
 40 687 l 2,26,27
 40 710 40 710 41.5 721.5 c 128,-1,28
 43 733 43 733 50.5 748 c 0,29,30
 64 775 64 775 128 775 c 0,31,32
 175.857142857 775 175.857142857 775 196.5 758 c 0,33,34
 212.922330097 744.475728155 212.922330097 744.475728155 214.5 714.5 c 0,35,36
 215 705 215 705 215 686 c 2,37,-1
 215 369 l 1,38,39
 233 384 233 384 269.5 420 c 128,-1,40
 306 456 306 456 324 471 c 1,41,-1
 336 479 l 1,42,43
 371 506 371 506 396 506 c 128,-1,44
 421 506 421 506 453.5 465.5 c 128,-1,45
 486 425 486 425 486 402 c 128,-1,46
 486 379 486 379 449 348 c 2,47,-1
 350 264 l 1,0,-1
EndSplineSet
EndChar

StartChar: j
Encoding: 106 106 2
Width: 252
Flags: MW
HStem: -226 172<-68.5 -32.5 -68.5 11.5> 600 172<83.5 168>
VStem: 132 172
LayerCount: 2
Fore
SplineSet
125 600 m 128,-1,1
 94 600 94 600 76 606 c 128,-1,2
 58 612 58 612 50.5 626.5 c 128,-1,3
 43 641 43 641 41.5 652.5 c 128,-1,4
 40 664 40 664 40 687 c 128,-1,5
 40 710 40 710 41.5 721 c 128,-1,6
 43 732 43 732 50.5 746 c 0,7,8
 64.4285714286 772 64.4285714286 772 127 772 c 0,9,10
 187.333333333 772 187.333333333 772 201.5 746.5 c 0,11,12
 209 733 209 733 210.5 722 c 128,-1,13
 212 711 212 711 212 689 c 2,14,-1
 212 683 l 2,15,16
 212 661 212 661 210.5 650 c 128,-1,17
 209 639 209 639 201 625 c 128,-1,18
 193 611 193 611 174.5 605.5 c 128,-1,0
 156 600 156 600 125 600 c 128,-1,1
127 530 m 128,-1,20
 158 530 158 530 176 524 c 128,-1,21
 194 518 194 518 201.5 503.5 c 128,-1,22
 209 489 209 489 210.5 477.5 c 128,-1,23
 212 466 212 466 212 443 c 2,24,-1
 212 31 l 2,25,26
 212 -86 212 -86 131 -156 c 128,-1,27
 50 -226 50 -226 -47 -226 c 0,28,29
 -70 -226 -70 -226 -81 -224.5 c 128,-1,30
 -92 -223 -92 -223 -106 -215.5 c 0,31,32
 -132 -201.571428571 -132 -201.571428571 -132 -142.785714286 c 128,-1,33
 -132 -84 -132 -84 -110.5 -69 c 128,-1,34
 -89 -54 -89 -54 -52.5 -54 c 128,-1,35
 -16 -54 -16 -54 12 -34 c 128,-1,36
 40 -14 40 -14 40 38 c 2,37,-1
 40 450 l 2,38,39
 40 485.066666667 40 485.066666667 49.5 501.533333333 c 128,-1,40
 59 518 59 518 77.5 524 c 128,-1,19
 96 530 96 530 127 530 c 128,-1,20
EndSplineSet
EndChar

StartChar: H
Encoding: 72 72 3
Width: 699
Flags: MW
HStem: 1 21G<84 172.5 526 614.5> 293 147<217 482 217 482> 713 20G<84.5 173 526.5 615>
VStem: 40 177<90 293 440 644> 482 177<90 293 293 293 440 644>
LayerCount: 2
Fore
SplineSet
520 727 m 128,-1,1
 539 733 539 733 568 733 c 128,-1,2
 597 733 597 733 614 728 c 128,-1,3
 631 723 631 723 640 716 c 128,-1,4
 649 709 649 709 653.5 695.5 c 0,5,6
 659 679 659 679 659 644 c 2,7,-1
 659 89 l 2,8,9
 659 66 659 66 657.5 54.5 c 128,-1,10
 656 43 656 43 648 28 c 0,11,12
 633.6 1 633.6 1 570 1 c 0,13,14
 500 1 500 1 487.5 38.5 c 0,15,16
 482 55 482 55 482 90 c 2,17,-1
 482 293 l 1,18,-1
 217 293 l 1,19,-1
 217 89 l 2,20,21
 217 66 217 66 215.5 54.5 c 128,-1,22
 214 43 214 43 206 28 c 0,23,24
 191.6 1 191.6 1 128 1 c 0,25,26
 58 1 58 1 45.5 38.5 c 0,27,28
 40 55 40 55 40 90 c 2,29,-1
 40 645 l 2,30,31
 40 668 40 668 41.5 679.5 c 128,-1,32
 43 691 43 691 51 706 c 0,33,34
 65.4 733 65.4 733 129 733 c 0,35,36
 199 733 199 733 211.5 695.5 c 0,37,38
 217 679 217 679 217 644 c 2,39,-1
 217 440 l 1,40,-1
 482 440 l 1,41,-1
 482 645 l 2,42,43
 482 668 482 668 483.5 679.5 c 128,-1,44
 485 691 485 691 493 706 c 128,-1,0
 501 721 501 721 520 727 c 128,-1,1
EndSplineSet
EndChar

StartChar: F
Encoding: 70 70 4
Width: 637
Flags: MW
HStem: 0 21G<84 172.5> 277 178<217 413 217 414> 556 177<217 523 217 217>
VStem: 40 177<89 277 455 556>
LayerCount: 2
Fore
SplineSet
525 733 m 2,0,1
 548 733 548 733 559.5 731.5 c 128,-1,2
 571 730 571 730 585.5 722 c 128,-1,3
 600 714 600 714 606 695 c 128,-1,4
 612 676 612 676 612 644 c 128,-1,5
 612 612 612 612 606 593 c 128,-1,6
 600 574 600 574 585 566.5 c 128,-1,7
 570 559 570 559 558.5 557.5 c 128,-1,8
 547 556 547 556 523 556 c 2,9,-1
 217 556 l 1,10,-1
 217 455 l 1,11,-1
 414 455 l 2,12,13
 438 455 438 455 449.5 453.5 c 128,-1,14
 461 452 461 452 475.5 444 c 0,15,16
 502 429.379310345 502 429.379310345 502 365 c 0,17,18
 502 295 502 295 464.5 282.5 c 0,19,20
 448 277 448 277 413 277 c 2,21,-1
 217 277 l 1,22,-1
 217 88 l 2,23,24
 217 64 217 64 215.5 53 c 128,-1,25
 214 42 214 42 206 27 c 0,26,27
 191.6 -1.06581410364e-14 191.6 -1.06581410364e-14 128 0 c 0,28,29
 58 0 58 0 45.5 37.5 c 0,30,31
 40 54 40 54 40 89 c 2,32,-1
 40 645 l 2,33,34
 40 696 40 696 59 714.5 c 128,-1,35
 78 733 78 733 131 733 c 2,36,-1
 525 733 l 2,0,1
EndSplineSet
EndChar

StartChar: E
Encoding: 69 69 5
Width: 638
Flags: MW
HStem: 0 177<84 525 217 524> 278 177<217 413 217 415> 556 177<217 524 217 217>
VStem: 40 177<177 177 177 278 455 556>
CounterMasks: 1 e0
LayerCount: 2
Fore
SplineSet
217 177 m 1,0,-1
 525 177 l 2,1,2
 548 177 548 177 559.5 175.5 c 128,-1,3
 571 174 571 174 586 166 c 0,4,5
 613 151.6 613 151.6 613 88 c 0,6,7
 613 18 613 18 575.5 5.5 c 0,8,9
 559 0 559 0 524 0 c 2,10,-1
 128 0 l 2,11,12
 58 0 58 0 45.5 37.5 c 0,13,14
 40 54 40 54 40 89 c 2,15,-1
 40 645 l 2,16,17
 40 696 40 696 59 714.5 c 128,-1,18
 78 733 78 733 131 733 c 2,19,-1
 525 733 l 2,20,21
 548 733 548 733 559.5 731.5 c 128,-1,22
 571 730 571 730 586 722 c 0,23,24
 613 707.6 613 707.6 613 644 c 0,25,26
 613 574 613 574 575.5 561.5 c 0,27,28
 559 556 559 556 524 556 c 2,29,-1
 217 556 l 1,30,-1
 217 455 l 1,31,-1
 415 455 l 2,32,33
 438 455 438 455 449.5 453.5 c 128,-1,34
 461 452 461 452 476 444 c 0,35,36
 503 429.6 503 429.6 503 366 c 0,37,38
 503 295.714285714 503 295.714285714 465 283.5 c 0,39,40
 447.888888889 278 447.888888889 278 413 278 c 2,41,-1
 217 278 l 1,42,-1
 217 177 l 1,0,-1
EndSplineSet
EndChar

StartChar: e
Encoding: 101 101 6
Width: 573
Flags: MW
HStem: -6 151 -6 202 371 161
LayerCount: 2
Fore
SplineSet
517.5 235.5 m 128,-1,1
 487 206 487 206 450 206 c 2,2,-1
 213 206 l 1,3,4
 213 178 213 178 246 159 c 128,-1,5
 279 140 279 140 311.5 140 c 0,6,7
 370 140 370 140 403 152 c 2,8,-1
 414 156 l 1,9,10
 438 167 438 167 454 167 c 0,11,12
 486 167 486 167 509 122 c 0,13,14
 522 95 522 95 522 76 c 0,15,16
 522 -13 522 -13 309 -13 c 0,17,18
 235 -13 235 -13 177.5 12.5 c 128,-1,19
 120 38 120 38 88 79.5 c 0,20,21
 25 161.203125 25 161.203125 25 261 c 0,22,23
 25 387 25 387 106.5 462.5 c 128,-1,24
 188 538 188 538 310 538 c 0,25,26
 448.75 538 448.75 538 513.5 440 c 0,27,28
 548 387.783783784 548 387.783783784 548 326.391891892 c 128,-1,0
 548 265 548 265 517.5 235.5 c 128,-1,1
337 297 m 2,29,30
 375 297 375 297 375 329 c 0,31,32
 375 352 375 352 357.5 366 c 128,-1,33
 340 380 340 380 307.5 380 c 128,-1,34
 275 380 275 380 243 353.5 c 128,-1,35
 211 327 211 327 211 297 c 1,36,-1
 337 297 l 2,29,30
EndSplineSet
EndChar

StartChar: d
Encoding: 100 100 7
Width: 598
Flags: MW
HStem: 1 21G<438.5 513.5> 2 174<268.5 303.5> 351 175<265 300.5 210 322> 753 20G<427 514.5>
VStem: 30 175<241.5 283.5 241.5 335.5> 383 175<476 685>
LayerCount: 2
Fore
SplineSet
420 767 m 128,-1,1
 439 773 439 773 470.5 773 c 128,-1,2
 502 773 502 773 521 767 c 128,-1,3
 540 761 540 761 547.5 746 c 128,-1,4
 555 731 555 731 556.5 719.5 c 128,-1,5
 558 708 558 708 558 685 c 2,6,-1
 558 88 l 2,7,8
 558 65 558 65 556.5 53.5 c 128,-1,9
 555 42 555 42 547 27.5 c 0,10,11
 532.379310345 1 532.379310345 1 462.689655172 1 c 128,-1,12
 393 1 393 1 385 50 c 1,13,14
 343 2 343 2 268 2 c 0,15,16
 178 2 178 2 104 80.5 c 128,-1,17
 30 159 30 159 30 263.5 c 128,-1,18
 30 368 30 368 104.5 447 c 128,-1,19
 179 526 179 526 268 526 c 0,20,21
 342 526 342 526 383 476 c 1,22,-1
 383 686 l 2,23,24
 383 709 383 709 384.5 720.5 c 128,-1,25
 386 732 386 732 393.5 746.5 c 128,-1,0
 401 761 401 761 420 767 c 128,-1,1
294 176 m 128,-1,27
 331 176 331 176 355.5 203 c 128,-1,28
 380 230 380 230 380 262.5 c 128,-1,29
 380 295 380 295 356.5 323 c 128,-1,30
 333 351 333 351 293 351 c 128,-1,31
 253 351 253 351 229 323.5 c 128,-1,32
 205 296 205 296 205 263 c 128,-1,33
 205 230 205 230 231 203 c 128,-1,26
 257 176 257 176 294 176 c 128,-1,27
EndSplineSet
EndChar

StartChar: a
Encoding: 97 97 8
Width: 596
Flags: MW
HStem: 2 175<264 302 264 512> 352 174<260.5 300 205 317> 507 20G<435 512.5>
VStem: 25 175<242 283.5 242 336> 375 181<243.5 282.5>
LayerCount: 2
Fore
SplineSet
382 471 m 1,0,1
 388 527 388 527 461 527 c 0,2,3
 500 527 500 527 519 521 c 128,-1,4
 538 515 538 515 545.5 500 c 128,-1,5
 553 485 553 485 554.5 473.5 c 128,-1,6
 556 462 556 462 556 439 c 2,7,-1
 556 89 l 2,8,9
 556 66 556 66 554.5 54.5 c 128,-1,10
 553 43 553 43 545.5 28.5 c 0,11,12
 531.793103448 2 531.793103448 2 477.396551724 2 c 128,-1,13
 423 2 423 2 404.5 15.5 c 128,-1,14
 386 29 386 29 383 55 c 1,15,16
 346 2 346 2 259.5 2 c 128,-1,17
 173 2 173 2 99 81 c 128,-1,18
 25 160 25 160 25 264.5 c 128,-1,19
 25 369 25 369 99.5 447.5 c 128,-1,20
 174 526 174 526 263 526 c 0,21,22
 297 526 297 526 325 514 c 128,-1,23
 353 502 353 502 364 491.5 c 128,-1,24
 375 481 375 481 382 471 c 1,0,1
226 203.5 m 128,-1,26
 252 177 252 177 289 177 c 128,-1,27
 326 177 326 177 350.5 204 c 128,-1,28
 375 231 375 231 375 263.5 c 128,-1,29
 375 296 375 296 351.5 324 c 128,-1,30
 328 352 328 352 288.5 352 c 128,-1,31
 249 352 249 352 224.5 324 c 128,-1,32
 200 296 200 296 200 263 c 128,-1,25
 200 230 200 230 226 203.5 c 128,-1,26
EndSplineSet
Substitution2: "'ordn' Ordinals in Latin lookup 0 subtable" ordfeminine
EndChar

StartChar: o
Encoding: 111 111 9
Width: 600
Flags: MW
HStem: -9 176<282 316 282 364> 363 176<280 319>
VStem: 25 177<228.5 300.5 228.5 346.5> 398 177<229 302>
LayerCount: 2
Fore
SplineSet
109 461 m 128,-1,1
 193 539 193 539 301 539 c 128,-1,2
 409 539 409 539 492 461.5 c 128,-1,3
 575 384 575 384 575 264 c 0,4,5
 575 181 575 181 532 116.5 c 128,-1,6
 489 52 489 52 427.5 21.5 c 128,-1,7
 366 -9 366 -9 300 -9 c 128,-1,8
 234 -9 234 -9 172 23.5 c 128,-1,9
 110 56 110 56 67.5 119.5 c 128,-1,10
 25 183 25 183 25 263 c 0,11,0
 25 383 25 383 109 461 c 128,-1,1
299 167 m 128,-1,13
 332 167 332 167 365 192 c 128,-1,14
 398 217 398 217 398 266 c 128,-1,15
 398 315 398 315 367 339 c 128,-1,16
 336 363 336 363 300 363 c 128,-1,17
 264 363 264 363 233 338 c 128,-1,18
 202 313 202 313 202 264.5 c 128,-1,19
 202 216 202 216 234 191.5 c 128,-1,12
 266 167 266 167 299 167 c 128,-1,13
EndSplineSet
Substitution2: "'ordn' Ordinals in Latin lookup 0 subtable" ordmasculine
EndChar

StartChar: r
Encoding: 114 114 10
Width: 457
Flags: MW
HStem: 0 21G<83.5 171.5> 362 170<296 317>
VStem: 40 176<89 297>
LayerCount: 2
Fore
SplineSet
429.5 500.5 m 128,-1,1
 442 486 442 486 442 454 c 128,-1,2
 442 422 442 422 423 384 c 128,-1,3
 404 346 404 346 368 346 c 0,4,5
 350 346 350 346 333.5 354 c 128,-1,6
 317 362 317 362 290 362 c 128,-1,7
 263 362 263 362 239.5 343 c 128,-1,8
 216 324 216 324 216 297 c 2,9,-1
 216 87 l 2,10,11
 216 64 216 64 214.5 52.5 c 128,-1,12
 213 41 213 41 205 26.5 c 0,13,14
 190.379310345 1.7763568394e-15 190.379310345 1.7763568394e-15 127 0 c 0,15,16
 79.1428571429 0 79.1428571429 0 58.5 17 c 0,17,18
 42.0776699029 30.5242718447 42.0776699029 30.5242718447 40.5 60.5 c 0,19,20
 40 70 40 70 40 89 c 2,21,-1
 40 440 l 2,22,23
 40 463 40 463 41.5 474.5 c 128,-1,24
 43 486 43 486 50.5 500.5 c 0,25,26
 64.2068965517 527 64.2068965517 527 128 527 c 0,27,28
 188 527 188 527 203 504.5 c 0,29,30
 214 488 214 488 214 471 c 1,31,32
 219 478 219 478 228.5 488 c 128,-1,33
 238 498 238 498 269 515 c 128,-1,34
 300 532 300 532 323.5 532 c 128,-1,35
 347 532 347 532 363 529.5 c 128,-1,36
 379 527 379 527 398 521 c 128,-1,0
 417 515 417 515 429.5 500.5 c 128,-1,1
EndSplineSet
EndChar

StartChar: n
Encoding: 110 110 11
Width: 606
Flags: MW
HStem: 1 21G<83.5 171 434 522> 352 175<295 329.5>
VStem: 40 175<89 265> 390 176<89 264>
LayerCount: 2
Fore
SplineSet
333 527 m 0,0,1
 433 527 433 527 499.5 450.5 c 128,-1,2
 566 374 566 374 566 264 c 2,3,-1
 566 88 l 2,4,5
 566 65 566 65 564.5 53.5 c 128,-1,6
 563 42 563 42 555.5 27.5 c 0,7,8
 541.793103448 1 541.793103448 1 478 1 c 0,9,10
 407.392857143 1 407.392857143 1 395.5 38 c 0,11,12
 390 55.1111111111 390 55.1111111111 390 89 c 2,13,-1
 390 265 l 2,14,15
 390 306 390 306 366.5 329 c 128,-1,16
 343 352 343 352 303.5 352 c 128,-1,17
 264 352 264 352 239.5 328 c 128,-1,18
 215 304 215 304 215 265 c 2,19,-1
 215 88 l 2,20,21
 215 65 215 65 213.5 53.5 c 128,-1,22
 212 42 212 42 204.5 27.5 c 0,23,24
 190.793103448 1 190.793103448 1 127 1 c 0,25,26
 64 1 64 1 50.5 28 c 0,27,28
 43 43 43 43 41.5 54.5 c 128,-1,29
 40 66 40 66 40 89 c 2,30,-1
 40 443 l 2,31,32
 40 465 40 465 41.5 476.5 c 128,-1,33
 43 488 43 488 51 502 c 0,34,35
 65.2857142857 527 65.2857142857 527 128 527 c 0,36,37
 188.695652174 527 188.695652174 527 203 503.5 c 0,38,39
 213 487.071428571 213 487.071428571 213 463 c 1,40,41
 217.4 469.6 217.4 469.6 231.2 482.8 c 128,-1,42
 245 496 245 496 258 504.5 c 0,43,44
 292.411764706 527 292.411764706 527 333 527 c 0,0,1
EndSplineSet
EndChar

StartChar: t
Encoding: 116 116 12
Width: 449
Flags: MW
HStem: 0 165<304.5 341.5> 352 173 687 20G<151 237.5>
VStem: 157 174
LayerCount: 2
Fore
SplineSet
346 350 m 1,0,-1
 281 354 l 1,1,-1
 281 216 l 2,2,3
 281 189 281 189 289.5 177 c 128,-1,4
 298 165 298 165 321.5 165 c 128,-1,5
 345 165 345 165 357.5 163.5 c 128,-1,6
 370 162 370 162 383.5 154.5 c 0,7,8
 407 141.444444444 407 141.444444444 407 87 c 0,9,10
 407 24.5 407 24.5 379 10.5 c 0,11,12
 364 3 364 3 352.5 1.5 c 128,-1,13
 341 0 341 0 319 0 c 0,14,15
 215 0 215 0 161 47 c 128,-1,16
 107 94 107 94 107 206 c 2,17,-1
 107 354 l 1,18,19
 88 351 88 351 66 351 c 128,-1,20
 44 351 44 351 29.5 368 c 128,-1,21
 15 385 15 385 15 426 c 128,-1,22
 15 467 15 467 20 485.5 c 128,-1,23
 25 504 25 504 34.5 512 c 0,24,25
 49.9375 525 49.9375 525 74 525 c 1,26,-1
 107 521 l 1,27,-1
 107 624 l 2,28,29
 107 647 107 647 108.5 658 c 128,-1,30
 110 669 110 669 117.5 682.5 c 0,31,32
 131.111111111 707 131.111111111 707 195 707 c 0,33,34
 263.333333333 707 263.333333333 707 275.5 670.5 c 0,35,36
 281 654 281 654 281 619 c 2,37,-1
 281 521 l 1,38,39
 325 525 325 525 347.5 525 c 128,-1,40
 370 525 370 525 381.5 523.5 c 128,-1,41
 393 522 393 522 407.5 514.5 c 0,42,43
 434 500.793103448 434 500.793103448 434 437 c 0,44,45
 434 374 434 374 407 360.5 c 0,46,47
 392 353 392 353 380.5 351.5 c 128,-1,48
 369 350 369 350 346 350 c 1,0,-1
EndSplineSet
EndChar

StartChar: f
Encoding: 102 102 13
Width: 450
Flags: MW
HStem: -1 21G<151 237.5> 353 173 600 175<312 344>
VStem: 107 176<88 353 353 353 520 573 573 575>
LayerCount: 2
Fore
SplineSet
348 526 m 1,0,1
 417 526 417 526 429 488 c 0,2,3
 435 469 435 469 435 438 c 128,-1,4
 435 407 435 407 428.5 388.5 c 128,-1,5
 422 370 422 370 408 362 c 0,6,7
 387 350 387 350 347 350 c 1,8,-1
 283 354 l 1,9,-1
 283 86 l 2,10,11
 283 47.7333333333 283 47.7333333333 273.5 29.3666666667 c 128,-1,12
 264 11 264 11 244.5 5 c 128,-1,13
 225 -1 225 -1 194 -1 c 128,-1,14
 163 -1 163 -1 144.5 5.5 c 128,-1,15
 126 12 126 12 118 26.5 c 128,-1,16
 110 41 110 41 108.5 53 c 128,-1,17
 107 65 107 65 107 88 c 2,18,-1
 107 353 l 1,19,-1
 71 353 l 1,20,21
 45.2561576355 354.980295567 45.2561576355 354.980295567 34.1280788177 365.490147783 c 0,22,23
 15 383.555555556 15 383.555555556 15 438 c 0,24,25
 15 520 15 520 74 520 c 2,26,-1
 107 520 l 1,27,-1
 107 573 l 2,28,29
 107 650 107 650 162 712.5 c 128,-1,30
 217 775 217 775 321 775 c 0,31,32
 344 775 344 775 355.5 773.5 c 128,-1,33
 367 772 367 772 382 764.5 c 0,34,35
 409 751 409 751 409 687 c 0,36,37
 409 639.142857143 409 639.142857143 392 618.5 c 0,38,39
 378.475728155 602.077669903 378.475728155 602.077669903 348.5 600.5 c 0,40,41
 339 600 339 600 320 600 c 0,42,43
 283 600 283 600 283 575 c 2,44,-1
 283 520 l 1,45,-1
 348 526 l 1,0,1
EndSplineSet
EndChar

StartChar: quotesingle
Encoding: 39 39 14
Width: 208
Flags: MW
HStem: 381 21G<77 130> 713 20G<64.5 143.5>
VStem: 25 158<599.5 660.5 599.5 660.5>
LayerCount: 2
Fore
SplineSet
161 472 m 128,-1,1
 139 381 139 381 103.5 381 c 128,-1,2
 68 381 68 381 46.5 472 c 128,-1,3
 25 563 25 563 25 635 c 0,4,5
 25 697.5625 25 697.5625 42 713.5 c 0,6,7
 62.8 733 62.8 733 97.4 733 c 128,-1,8
 132 733 132 733 149.5 725.5 c 128,-1,9
 167 718 167 718 173.5 701.5 c 0,10,11
 183 677.384615385 183 677.384615385 183 620.192307692 c 128,-1,0
 183 563 183 563 161 472 c 128,-1,1
EndSplineSet
EndChar

StartChar: exclam
Encoding: 33 33 15
Width: 267
Flags: MW
HStem: -1 187<115 152.5 87.5 180> 717 20G<89.5 178>
VStem: 45 177<341 657>
LayerCount: 2
Fore
SplineSet
80.5 179 m 128,-1,1
 101 186 101 186 144.5 186 c 128,-1,2
 188 186 188 186 207.5 167 c 128,-1,3
 227 148 227 148 227 107 c 2,4,-1
 227 91 l 2,5,6
 227 67 227 67 225.5 55.5 c 128,-1,7
 224 44 224 44 215.5 28 c 0,8,9
 200.09375 -1 200.09375 -1 139.546875 -1 c 128,-1,10
 79 -1 79 -1 59.5 18.5 c 128,-1,11
 40 38 40 38 40 94 c 0,12,13
 40 133.25 40 133.25 50 152.625 c 128,-1,0
 60 172 60 172 80.5 179 c 128,-1,1
133 264 m 128,-1,15
 101 264 101 264 82 269 c 128,-1,16
 63 274 63 274 55.5 287 c 128,-1,17
 48 300 48 300 46.5 310 c 128,-1,18
 45 320 45 320 45 341 c 2,19,-1
 45 658 l 2,20,21
 45 679 45 679 46.5 689.5 c 128,-1,22
 48 700 48 700 56 713 c 128,-1,23
 64 726 64 726 83 731.5 c 128,-1,24
 102 737 102 737 134 737 c 128,-1,25
 166 737 166 737 185 731.5 c 128,-1,26
 204 726 204 726 211.5 712.5 c 128,-1,27
 219 699 219 699 220.5 688.5 c 128,-1,28
 222 678 222 678 222 657 c 2,29,-1
 222 340 l 2,30,31
 222 319 222 319 220.5 309 c 128,-1,32
 219 299 219 299 211 286.5 c 128,-1,33
 203 274 203 274 184 269 c 128,-1,14
 165 264 165 264 133 264 c 128,-1,15
EndSplineSet
EndChar

StartChar: question
Encoding: 63 63 16
Width: 512
Flags: MW
HStem: -1 187<232.5 270 205 297.5> 591 160<215 279>
VStem: 174 171 330 157<473.5 542.5>
LayerCount: 2
Fore
SplineSet
173 335 m 1,0,-1
 174 343 l 1,1,2
 174 386 174 386 198.5 411 c 128,-1,3
 223 436 223 436 252 444 c 128,-1,4
 281 452 281 452 305.5 471 c 128,-1,5
 330 490 330 490 330 522.5 c 128,-1,6
 330 555 330 555 311.5 573 c 128,-1,7
 293 591 293 591 256 591 c 128,-1,8
 219 591 219 591 201.5 579.5 c 128,-1,9
 184 568 184 568 180.5 556 c 2,10,-1
 177 544 l 1,11,12
 168 518 168 518 156 504.5 c 128,-1,13
 144 491 144 491 125 491 c 128,-1,14
 106 491 106 491 75 503 c 0,15,16
 15 526.225806452 15 526.225806452 15 560 c 0,17,18
 15 575 15 575 21 590.5 c 128,-1,19
 27 606 27 606 31 616.5 c 128,-1,20
 35 627 35 627 52.5 653 c 128,-1,21
 70 679 70 679 92.5 698.5 c 128,-1,22
 115 718 115 718 156 734.5 c 128,-1,23
 197 751 197 751 247 751 c 0,24,25
 353 751 353 751 420 683 c 128,-1,26
 487 615 487 615 487 525 c 0,27,28
 487 482 487 482 471.5 445.5 c 128,-1,29
 456 409 456 409 434 388 c 0,30,31
 390.268948655 346.256723716 390.268948655 346.256723716 351.5 332.5 c 2,32,-1
 336 327 l 1,33,34
 336 310 336 310 334.5 301 c 128,-1,35
 333 292 333 292 325.5 281.5 c 128,-1,36
 318 271 318 271 300.5 266.5 c 128,-1,37
 283 262 283 262 254 262 c 128,-1,38
 225 262 225 262 207.5 267 c 128,-1,39
 190 272 190 272 183 284 c 128,-1,40
 176 296 176 296 174.5 305.5 c 128,-1,41
 173 315 173 315 173 335 c 1,0,-1
197.5 179 m 128,-1,43
 218 186 218 186 262 186 c 128,-1,44
 306 186 306 186 325.5 166.5 c 128,-1,45
 345 147 345 147 345 91 c 0,46,47
 345 50.75 345 50.75 335 31.375 c 128,-1,48
 325 12 325 12 304.5 5.5 c 128,-1,49
 284 -1 284 -1 241 -1 c 128,-1,50
 198 -1 198 -1 175 20 c 1,51,52
 158 37 158 37 158 78 c 2,53,-1
 158 94 l 2,54,55
 158 117 158 117 159.5 129 c 128,-1,56
 161 141 161 141 169 156.5 c 128,-1,42
 177 172 177 172 197.5 179 c 128,-1,43
EndSplineSet
EndChar

StartChar: I
Encoding: 73 73 17
Width: 257
Flags: MW
HStem: 0 21G<84 172.5> 713 20G<84.5 173>
VStem: 40 177<89 644>
LayerCount: 2
Fore
SplineSet
40 645 m 2,0,1
 40 668 40 668 41.5 679.5 c 128,-1,2
 43 691 43 691 51 706 c 0,3,4
 65.4 733 65.4 733 129 733 c 0,5,6
 199 733 199 733 211.5 695.5 c 0,7,8
 217 679 217 679 217 644 c 2,9,-1
 217 88 l 2,10,11
 217 64 217 64 215.5 53 c 128,-1,12
 214 42 214 42 206 27 c 0,13,14
 191.6 -1.06581410364e-14 191.6 -1.06581410364e-14 128 0 c 0,15,16
 58 0 58 0 45.5 37.5 c 0,17,18
 40 54 40 54 40 89 c 2,19,-1
 40 645 l 2,0,1
EndSplineSet
EndChar

StartChar: s
Encoding: 115 115 18
Width: 489
Flags: MW
HStem: -9 141<226.5 257.5 226.5 289> 399 138<234.5 279>
VStem: 31 157 282 162
LayerCount: 2
Fore
SplineSet
44 47 m 0,0,1
 25 59 25 59 25 85 c 128,-1,2
 25 111 25 111 63 164 c 0,3,4
 74 181 74 181 98.5 181 c 128,-1,5
 123 181 123 181 165 156.5 c 128,-1,6
 207 132 207 132 241 132 c 0,7,8
 302 132 302 132 302 156 c 0,9,10
 302 174.75862069 302 174.75862069 235 184 c 0,11,12
 171.642857143 192.738916256 171.642857143 192.738916256 110 231 c 0,13,14
 81 249 81 249 62 287.5 c 128,-1,15
 43 326 43 326 43 379 c 0,16,17
 43 537 43 537 260 537 c 0,18,19
 331 537 331 537 406 503 c 0,20,21
 441 487 441 487 441 463 c 128,-1,22
 441 439 441 439 419 404 c 128,-1,23
 397 369 397 369 374 369 c 0,24,25
 362 369 362 369 329.5 384 c 128,-1,26
 297 399 297 399 259 399 c 0,27,28
 200 399 200 399 200 377 c 0,29,30
 200 346.627118644 200 346.627118644 268.5 338.5 c 0,31,32
 334 330.728813559 334 330.728813559 395.5 300.5 c 0,33,34
 425 286 425 286 444.5 251.5 c 128,-1,35
 464 217 464 217 464 165 c 128,-1,36
 464 113 464 113 444.5 76.5 c 128,-1,37
 425 40 425 40 389.5 22.5 c 0,38,39
 325.6 -9 325.6 -9 229.3 -9 c 128,-1,40
 133 -9 133 -9 44 47 c 0,0,1
EndSplineSet
EndChar

StartChar: b
Encoding: 98 98 19
Width: 592
Flags: MW
HStem: 1 175<83.5 328.5> 2 21G<294 387.5> 351 175<297 332> 753 20G<84 171.5>
VStem: 40 175<477 685 477 686 477 710> 392 175<241.5 283.5>
LayerCount: 2
Fore
SplineSet
329 526 m 0,0,1
 418 526 418 526 492.5 447 c 128,-1,2
 567 368 567 368 567 263.5 c 128,-1,3
 567 159 567 159 493 80.5 c 128,-1,4
 419 2 419 2 334 2 c 128,-1,5
 249 2 249 2 213 50 c 1,6,7
 205 1 205 1 127 1 c 0,8,9
 64 1 64 1 50.5 28 c 0,10,11
 43 43 43 43 41.5 54.5 c 128,-1,12
 40 66 40 66 40 89 c 2,13,-1
 40 686 l 2,14,15
 40 709 40 709 41.5 720.5 c 128,-1,16
 43 732 43 732 50.5 746.5 c 0,17,18
 64.2068965517 773 64.2068965517 773 128 773 c 0,19,20
 191 773 191 773 204.5 746 c 0,21,22
 212 731 212 731 213.5 719.5 c 128,-1,23
 215 708 215 708 215 685 c 2,24,-1
 215 477 l 1,25,26
 255 526 255 526 329 526 c 0,0,1
303 176 m 128,-1,28
 340 176 340 176 366 203 c 128,-1,29
 392 230 392 230 392 263 c 128,-1,30
 392 296 392 296 368 323.5 c 128,-1,31
 344 351 344 351 304 351 c 128,-1,32
 264 351 264 351 240.5 323 c 128,-1,33
 217 295 217 295 217 262.5 c 128,-1,34
 217 230 217 230 241.5 203 c 128,-1,27
 266 176 266 176 303 176 c 128,-1,28
EndSplineSet
EndChar

StartChar: c
Encoding: 99 99 20
Width: 517
Flags: MW
HStem: -5 179<275 310.5 275 338.5> 354 179<277 312.5>
VStem: 25 180<233 295 233 355>
LayerCount: 2
Fore
SplineSet
233 197.5 m 128,-1,1
 261 174 261 174 292.5 174 c 128,-1,2
 324 174 324 174 351.5 192.5 c 128,-1,3
 379 211 379 211 396 211 c 0,4,5
 426 211 426 211 469 158 c 0,6,7
 492 129 492 129 492 106 c 0,8,9
 492 68 492 68 437 35 c 1,10,11
 380 -5 380 -5 297 -5 c 0,12,13
 203.84375 -5 203.84375 -5 118 62 c 0,14,15
 77 94 77 94 51 147.5 c 128,-1,16
 25 201 25 201 25 265.5 c 128,-1,17
 25 330 25 330 51 382.5 c 128,-1,18
 77 435 77 435 117.5 467 c 0,19,20
 201.03125 533 201.03125 533 295 533 c 0,21,22
 333 533 333 533 369 522.5 c 128,-1,23
 405 512 405 512 421.5 502 c 2,24,-1
 438 492 l 2,25,26
 456 480 456 480 465.5 473 c 0,27,28
 492 453.473684211 492 453.473684211 492 427.736842105 c 128,-1,29
 492 402 492 402 471 370 c 0,30,31
 435 315 435 315 402 315 c 0,32,33
 383 315 383 315 348 337 c 1,34,35
 330 354 330 354 296.5 354 c 128,-1,36
 263 354 263 354 234 330 c 128,-1,37
 205 306 205 306 205 263.5 c 128,-1,0
 205 221 205 221 233 197.5 c 128,-1,1
EndSplineSet
EndChar

StartChar: h
Encoding: 104 104 21
Width: 605
Flags: MW
HStem: 0 21G<83.5 171 434 521> 351 174<300.5 331> 753 20G<84 171.5>
VStem: 40 175<88 281 464 685> 390 175<89 263>
LayerCount: 2
Fore
SplineSet
332 525 m 0,0,1
 432 525 432 525 498.5 449 c 128,-1,2
 565 373 565 373 565 263 c 2,3,-1
 565 87 l 2,4,5
 565 64 565 64 563.5 52.5 c 128,-1,6
 562 41 562 41 554.5 26.5 c 0,7,8
 540.793103448 -9.05941988094e-14 540.793103448 -9.05941988094e-14 477 0 c 0,9,10
 415.620689655 0 415.620689655 0 401 26.5 c 0,11,12
 393 41 393 41 391.5 53 c 128,-1,13
 390 65 390 65 390 89 c 2,14,-1
 390 264 l 2,15,16
 390 305 390 305 367 328 c 128,-1,17
 344 351 344 351 308.5 351 c 128,-1,18
 273 351 273 351 246 329.5 c 128,-1,19
 219 308 219 308 215 281 c 1,20,-1
 215 87 l 2,21,22
 215 64 215 64 213.5 52.5 c 128,-1,23
 212 41 212 41 204.5 26.5 c 0,24,25
 190.793103448 1.95399252334e-14 190.793103448 1.95399252334e-14 127 0 c 0,26,27
 64 0 64 0 50.5 27 c 0,28,29
 43 42 43 42 41.5 53 c 128,-1,30
 40 64 40 64 40 88 c 2,31,-1
 40 686 l 2,32,33
 40 709 40 709 41.5 720.5 c 128,-1,34
 43 732 43 732 50.5 746.5 c 0,35,36
 64.2068965517 773 64.2068965517 773 128 773 c 0,37,38
 191 773 191 773 204.5 746 c 0,39,40
 212 731 212 731 213.5 719.5 c 128,-1,41
 215 708 215 708 215 685 c 2,42,-1
 215 464 l 1,43,44
 265 525 265 525 332 525 c 0,0,1
EndSplineSet
EndChar

StartChar: g
Encoding: 103 103 22
Width: 585
Flags: MW
HStem: -227 161<245.5 314.5 245.5 346.5> -227 210<145 346.5> 16 170<258.5 300> 357 170<255 295.5 201.5 310.5> 509 20G<426.5 503>
VStem: 25 171<250 290.5 250 341.5> 374 171<36 66 66 66>
LayerCount: 2
Fore
SplineSet
374 66 m 1,0,1
 336.5 16 336.5 16 253.25 16 c 128,-1,2
 170 16 170 16 97.5 92.5 c 128,-1,3
 25 169 25 169 25 271 c 128,-1,4
 25 373 25 373 98 450 c 128,-1,5
 171 527 171 527 258 527 c 0,6,7
 292 527 292 527 320 514.5 c 128,-1,8
 348 502 348 502 358.5 491.5 c 128,-1,9
 369 481 369 481 375 472 c 1,10,11
 378 500 378 500 395.5 514.5 c 128,-1,12
 413 529 413 529 452 529 c 128,-1,13
 491 529 491 529 509 523 c 128,-1,14
 527 517 527 517 534.5 502.5 c 128,-1,15
 542 488 542 488 543.5 477 c 128,-1,16
 545 466 545 466 545 443 c 2,17,-1
 545 29 l 2,18,19
 545 -86 545 -86 465 -156.5 c 128,-1,20
 385 -227 385 -227 285 -227 c 0,21,22
 209 -227 209 -227 140 -190 c 128,-1,23
 71 -153 71 -153 71 -123 c 0,24,25
 71 -84 71 -84 101 -54 c 1,26,27
 120 -33 120 -33 130.5 -25 c 128,-1,28
 141 -17 141 -17 155 -17 c 128,-1,29
 169 -17 169 -17 184.5 -29 c 0,30,31
 232.291666667 -66 232.291666667 -66 288 -66 c 0,32,33
 326 -66 326 -66 350 -36 c 128,-1,34
 374 -6 374 -6 374 36 c 2,35,-1
 374 66 l 1,0,1
221.5 212 m 128,-1,37
 247 186 247 186 283.5 186 c 128,-1,38
 320 186 320 186 344 212.5 c 128,-1,39
 368 239 368 239 368 270.5 c 128,-1,40
 368 302 368 302 345 329.5 c 128,-1,41
 322 357 322 357 283 357 c 128,-1,42
 244 357 244 357 220 330 c 128,-1,43
 196 303 196 303 196 270.5 c 128,-1,36
 196 238 196 238 221.5 212 c 128,-1,37
EndSplineSet
EndChar

StartChar: i
Encoding: 105 105 23
Width: 255
Flags: MW
HStem: 0 21G<83.5 171> 598 175<84 171>
VStem: 40 175<88 437 662.5 708.5>
LayerCount: 2
Fore
SplineSet
40 439 m 2,0,1
 40 462 40 462 41.5 473.5 c 128,-1,2
 43 485 43 485 50.5 499.5 c 0,3,4
 64.2068965517 526 64.2068965517 526 128 526 c 0,5,6
 175.857142857 526 175.857142857 526 196.5 509 c 0,7,8
 212.922330097 495.475728155 212.922330097 495.475728155 214.5 465.5 c 0,9,10
 215 456 215 456 215 437 c 2,11,-1
 215 87 l 2,12,13
 215 64 215 64 213.5 52.5 c 128,-1,14
 212 41 212 41 204.5 26.5 c 0,15,16
 190.793103448 1.95399252334e-14 190.793103448 1.95399252334e-14 127 0 c 0,17,18
 64 0 64 0 50.5 27 c 0,19,20
 43 42 43 42 41.5 53 c 128,-1,21
 40 64 40 64 40 88 c 2,22,-1
 40 439 l 2,0,1
178 604 m 128,-1,24
 159 598 159 598 127.5 598 c 128,-1,25
 96 598 96 598 77 604 c 128,-1,26
 58 610 58 610 50.5 625 c 128,-1,27
 43 640 43 640 41.5 651.5 c 128,-1,28
 40 663 40 663 40 686 c 128,-1,29
 40 709 40 709 41.5 720.5 c 128,-1,30
 43 732 43 732 50.5 746.5 c 0,31,32
 64.2068965517 773 64.2068965517 773 128 773 c 0,33,34
 191 773 191 773 204.5 746 c 0,35,36
 212 731 212 731 213.5 719.5 c 128,-1,37
 215 708 215 708 215 685 c 128,-1,38
 215 662 215 662 213.5 650.5 c 128,-1,39
 212 639 212 639 204.5 624.5 c 128,-1,23
 197 610 197 610 178 604 c 128,-1,24
EndSplineSet
EndChar

StartChar: m
Encoding: 109 109 24
Width: 851
Flags: MW
HStem: 0 21G<83.5 171.5 381.5 469.5 679.5 767> 351 177<289 302.5 583.5 599> 507 20G<84.5 164>
VStem: 40 176<88 264> 338 176<89 263 64 264> 636 175<89 263>
LayerCount: 2
Fore
SplineSet
212 457 m 1,0,1
 259.333333333 528 259.333333333 528 325 528 c 0,2,3
 427 528 427 528 477 441 c 1,4,5
 488 456 488 456 503.5 472.5 c 128,-1,6
 519 489 519 489 553 508.5 c 128,-1,7
 587 528 587 528 623 528 c 0,8,9
 703 528 703 528 757 466.5 c 128,-1,10
 811 405 811 405 811 263 c 2,11,-1
 811 88 l 2,12,13
 811 65 811 65 809.5 53.5 c 128,-1,14
 808 42 808 42 800.5 27 c 0,15,16
 787 0 787 0 723 0 c 0,17,18
 660.5 0 660.5 0 646.5 28 c 0,19,20
 639 43 639 43 637.5 54.5 c 128,-1,21
 636 66 636 66 636 89 c 2,22,-1
 636 264 l 2,23,24
 636 351 636 351 574 351 c 0,25,26
 539 351 539 351 526.5 328 c 128,-1,27
 514 305 514 305 514 263 c 2,28,-1
 514 88 l 2,29,30
 514 64 514 64 512.5 53 c 128,-1,31
 511 42 511 42 503 27 c 0,32,33
 488.6 4.26325641456e-14 488.6 4.26325641456e-14 425 0 c 0,34,35
 362.5 0 362.5 0 348.5 28 c 0,36,37
 341 43 341 43 339.5 54.5 c 128,-1,38
 338 66 338 66 338 89 c 2,39,-1
 338 264 l 2,40,41
 338 351 338 351 276 351 c 0,42,43
 216 351 216 351 216 264 c 2,44,-1
 216 87 l 2,45,46
 216 64 216 64 214.5 52.5 c 128,-1,47
 213 41 213 41 205 26.5 c 0,48,49
 190.379310345 1.7763568394e-15 190.379310345 1.7763568394e-15 127 0 c 0,50,51
 64 0 64 0 50.5 27 c 0,52,53
 43 42 43 42 41.5 53 c 128,-1,54
 40 64 40 64 40 88 c 2,55,-1
 40 440 l 2,56,57
 40 463 40 463 41.5 474.5 c 128,-1,58
 43 486 43 486 51 500.5 c 0,59,60
 65.6206896552 527 65.6206896552 527 121.810344828 527 c 128,-1,61
 178 527 178 527 195 509 c 128,-1,62
 212 491 212 491 212 457 c 1,0,1
EndSplineSet
EndChar

StartChar: l
Encoding: 108 108 25
Width: 327
Flags: MW
HStem: 0 168<235.5 267> 755 20G<84 171>
VStem: 40 175<211 223 223 686>
LayerCount: 2
Fore
SplineSet
40 687 m 2,0,1
 40 710 40 710 41.5 721.5 c 128,-1,2
 43 733 43 733 50.5 748 c 0,3,4
 64 775 64 775 128 775 c 0,5,6
 188.827586207 775 188.827586207 775 204 747.5 c 0,7,8
 212 733 212 733 213.5 721 c 128,-1,9
 215 709 215 709 215 686 c 2,10,-1
 215 223 l 2,11,12
 215 187 215 187 221 177.5 c 128,-1,13
 227 168 227 168 247.5 168 c 128,-1,14
 268 168 268 168 275 166.5 c 128,-1,15
 282 165 282 165 292.5 158 c 0,16,17
 312 145 312 145 312 87 c 0,18,19
 312 24.4285714286 312 24.4285714286 292.5 10.5 c 0,20,21
 266.212765957 -8.27659574468 266.212765957 -8.27659574468 168 4 c 0,22,23
 90.756302521 13.6554621849 90.756302521 13.6554621849 67.5 55 c 0,24,25
 40 103.888888889 40 103.888888889 40 211 c 2,26,-1
 40 687 l 2,0,1
EndSplineSet
EndChar

StartChar: p
Encoding: 112 112 26
Width: 582
Flags: MW
HStem: -228 21G<83 168.5> 14 170<290.5 323.5 273 381> 355 171<290 327> 507 20G<82.5 157.5>
VStem: 40 171<-143 -142 -142 60> 386 171<248 289>
LayerCount: 2
Fore
SplineSet
40 -143 m 2,0,-1
 40 441 l 2,1,2
 40 464 40 464 41.5 475 c 128,-1,3
 43 486 43 486 50.5 500.5 c 0,4,5
 64.2068965517 527 64.2068965517 527 117.103448276 527 c 128,-1,6
 170 527 170 527 188.5 513.5 c 128,-1,7
 207 500 207 500 210 474 c 1,8,9
 248 526 248 526 329.5 526 c 128,-1,10
 411 526 411 526 484 449 c 128,-1,11
 557 372 557 372 557 270 c 128,-1,12
 557 168 557 168 484.5 91 c 128,-1,13
 412 14 412 14 330 14 c 128,-1,14
 248 14 248 14 211 60 c 1,15,-1
 211 -142 l 2,16,17
 211 -165 211 -165 209.5 -176 c 128,-1,18
 208 -187 208 -187 200.5 -201.5 c 128,-1,19
 193 -216 193 -216 175 -222 c 128,-1,20
 157 -228 157 -228 126 -228 c 128,-1,21
 95 -228 95 -228 76.5 -222 c 128,-1,22
 58 -216 58 -216 50.5 -202 c 128,-1,23
 43 -188 43 -188 41.5 -177 c 128,-1,24
 40 -166 40 -166 40 -143 c 2,0,-1
215 269 m 128,-1,26
 215 237 215 237 238.5 210.5 c 128,-1,27
 262 184 262 184 298.5 184 c 128,-1,28
 335 184 335 184 360.5 210 c 128,-1,29
 386 236 386 236 386 269 c 128,-1,30
 386 302 386 302 362 328.5 c 128,-1,31
 338 355 338 355 299.5 355 c 128,-1,32
 261 355 261 355 238 328 c 128,-1,25
 215 301 215 301 215 269 c 128,-1,26
EndSplineSet
EndChar

StartChar: q
Encoding: 113 113 27
Width: 582
Flags: MW
HStem: -228 21G<413.5 499> 14 170<258 291.5> 355 171<255 291.5 201 310> 507 20G<424.5 499.5>
VStem: 25 171<248 289 248 340> 371 171<-142 60 60 60>
LayerCount: 2
Fore
SplineSet
372 474 m 1,0,1
 378.115384615 527 378.115384615 527 450 527 c 0,2,3
 488 527 488 527 506 521 c 128,-1,4
 524 515 524 515 531.5 500.5 c 128,-1,5
 539 486 539 486 540.5 475 c 128,-1,6
 542 464 542 464 542 441 c 2,7,-1
 542 -143 l 2,8,9
 542 -166 542 -166 540.5 -177 c 128,-1,10
 539 -188 539 -188 531.5 -202 c 128,-1,11
 524 -216 524 -216 505.5 -222 c 128,-1,12
 487 -228 487 -228 456 -228 c 128,-1,13
 425 -228 425 -228 407 -222 c 128,-1,14
 389 -216 389 -216 381.5 -201.5 c 128,-1,15
 374 -187 374 -187 372.5 -176 c 128,-1,16
 371 -165 371 -165 371 -142 c 2,17,-1
 371 60 l 1,18,19
 331 14 331 14 258 14 c 0,20,21
 169 14 169 14 97 91 c 128,-1,22
 25 168 25 168 25 270 c 128,-1,23
 25 372 25 372 98 449 c 128,-1,24
 171 526 171 526 252.5 526 c 128,-1,25
 334 526 334 526 372 474 c 1,0,1
283 184 m 128,-1,27
 319 184 319 184 343 210.5 c 128,-1,28
 367 237 367 237 367 268.5 c 128,-1,29
 367 300 367 300 344 327.5 c 128,-1,30
 321 355 321 355 282.5 355 c 128,-1,31
 244 355 244 355 220 328.5 c 128,-1,32
 196 302 196 302 196 269 c 128,-1,33
 196 236 196 236 221.5 210 c 128,-1,26
 247 184 247 184 283 184 c 128,-1,27
EndSplineSet
EndChar

StartChar: y
Encoding: 121 121 28
Width: 604
Flags: MW
HStem: -236 21G<245 269> 518 20G<119.5 142>
LayerCount: 2
Fore
SplineSet
530 521 m 0,0,1
 589 495 589 495 589 458 c 0,2,3
 589 440 589 440 581 424 c 128,-1,4
 573 408 573 408 573 407 c 2,5,-1
 311 -179 l 2,6,7
 303 -198 303 -198 297.5 -208 c 128,-1,8
 292 -218 292 -218 280 -227 c 128,-1,9
 268 -236 268 -236 250 -236 c 128,-1,10
 232 -236 232 -236 197 -221 c 0,11,12
 138 -195 138 -195 138 -159 c 0,13,14
 138 -135.395348837 138 -135.395348837 234 70 c 1,15,-1
 35 405 l 2,16,17
 15 438 15 438 15 454 c 0,18,19
 15 486 15 486 69 518 c 0,20,21
 103 538 103 538 122 538 c 128,-1,22
 141 538 141 538 153 530 c 128,-1,23
 165 522 165 522 170.5 513.5 c 128,-1,24
 176 505 176 505 225.5 420.5 c 128,-1,25
 275 336 275 336 320 263 c 1,26,27
 325 279 325 279 374 386.5 c 128,-1,28
 423 494 423 494 426.5 501 c 128,-1,29
 430 508 430 508 437.5 517.5 c 0,30,31
 451.315789474 535 451.315789474 535 474.657894737 535 c 128,-1,32
 498 535 498 535 530 521 c 0,0,1
EndSplineSet
EndChar

StartChar: u
Encoding: 117 117 29
Width: 606
Flags: MW
HStem: 1 176<277 521.5> 2 21G<206 311.5> 508 20G<84 172 435 522.5>
VStem: 40 176<265 439 236 440> 391 175<264 440>
LayerCount: 2
Fore
SplineSet
274 2 m 0,0,1
 173 2 173 2 106.5 78.5 c 128,-1,2
 40 155 40 155 40 265 c 2,3,-1
 40 440 l 2,4,5
 40 464 40 464 41.5 475 c 128,-1,6
 43 486 43 486 50.5 501 c 0,7,8
 64 528 64 528 128 528 c 0,9,10
 198 528 198 528 210.5 490.5 c 0,11,12
 216 474 216 474 216 439 c 2,13,-1
 216 264 l 2,14,15
 216 223 216 223 239.5 200 c 128,-1,16
 263 177 263 177 302.5 177 c 128,-1,17
 342 177 342 177 366.5 201 c 128,-1,18
 391 225 391 225 391 264 c 2,19,-1
 391 441 l 2,20,21
 391 464 391 464 392.5 475.5 c 128,-1,22
 394 487 394 487 401.5 501.5 c 0,23,24
 415.206896552 528 415.206896552 528 479 528 c 0,25,26
 542 528 542 528 555.5 501 c 0,27,28
 563 486 563 486 564.5 474.5 c 128,-1,29
 566 463 566 463 566 440 c 2,30,-1
 566 86 l 2,31,32
 566 64 566 64 564.5 52.5 c 128,-1,33
 563 41 563 41 555 27 c 0,34,35
 540.142857143 1 540.142857143 1 478 1 c 0,36,37
 417 1 417 1 403 25 c 0,38,39
 393 42.1428571429 393 42.1428571429 393 66 c 1,40,41
 388.6 59.4 388.6 59.4 374.8 46.2 c 128,-1,42
 361 33 361 33 348 24.5 c 0,43,44
 313.588235294 2 313.588235294 2 274 2 c 0,0,1
EndSplineSet
EndChar

StartChar: w
Encoding: 119 119 30
Width: 793
Flags: MW
HStem: -3 21G<222 285.5 511 573.5> 513 20G<119 145 651.5 680>
LayerCount: 2
Fore
SplineSet
714 523 m 0,0,1
 778 495 778 495 778 454 c 0,2,3
 778 437 778 437 762 399.5 c 128,-1,4
 746 362 746 362 735 334 c 2,5,-1
 625 66 l 1,6,7
 610.4 22.2 610.4 22.2 575 4.5 c 0,8,9
 560 -3 560 -3 537 -3 c 128,-1,10
 514 -3 514 -3 492.5 14.5 c 128,-1,11
 471 32 471 32 463.5 49.5 c 2,12,-1
 456 67 l 2,13,14
 448 87 448 87 397 223 c 1,15,16
 387 199 387 199 367.5 144.5 c 128,-1,17
 348 90 348 90 342.5 76.5 c 128,-1,18
 337 63 337 63 335.5 58.5 c 128,-1,19
 334 54 334 54 327 42 c 128,-1,20
 320 30 320 30 311 21 c 0,21,22
 287 -3 287 -3 256 -3 c 128,-1,23
 225 -3 225 -3 204 14.5 c 128,-1,24
 183 32 183 32 175.5 49.5 c 2,25,-1
 25 418 l 1,26,27
 15 448 15 448 15 457 c 0,28,29
 15 497 15 497 72 520 c 0,30,31
 104 533 104 533 124 533 c 128,-1,32
 144 533 144 533 156.5 524.5 c 128,-1,33
 169 516 169 516 174 507.5 c 128,-1,34
 179 499 179 499 182.5 490.5 c 0,35,36
 199.222222222 449.888888889 199.222222222 449.888888889 253 302 c 1,37,-1
 312 464 l 2,38,39
 318.5 483.5 318.5 483.5 333.75 498.75 c 0,40,41
 363 528 363 528 393 528 c 128,-1,42
 423 528 423 528 444.5 512 c 128,-1,43
 466 496 466 496 474 479.5 c 2,44,-1
 482 463 l 1,45,46
 532 323 532 323 541 303 c 1,47,-1
 602 469 l 2,48,49
 626 533 626 533 674 533 c 0,50,51
 693 533 693 533 714 523 c 0,0,1
EndSplineSet
EndChar

StartChar: v
Encoding: 118 118 31
Width: 638
Flags: MW
HStem: -5 21G<296.5 345> 516 20G<495.5 518.5>
LayerCount: 2
Fore
SplineSet
571 515 m 0,0,1
 623 484 623 484 623 449 c 0,2,3
 623 429 623 429 603 394 c 2,4,-1
 396 39 l 2,5,6
 385.756097561 21.9268292683 385.756097561 21.9268292683 363.87804878 8.46341463415 c 128,-1,7
 342 -5 342 -5 320.5 -5 c 128,-1,8
 299 -5 299 -5 279.5 5.5 c 128,-1,9
 260 16 260 16 251.5 27 c 2,10,-1
 243 38 l 1,11,-1
 35 394 l 2,12,13
 15 427 15 427 15 448 c 0,14,15
 15 484 15 484 67 515 c 0,16,17
 105 537 105 537 127 537 c 128,-1,18
 149 537 149 537 161.5 523.5 c 128,-1,19
 174 510 174 510 188 483 c 2,20,-1
 319 231 l 1,21,-1
 450 483 l 2,22,23
 461 502 461 502 466.5 510.5 c 128,-1,24
 472 519 472 519 484 527.5 c 128,-1,25
 496 536 496 536 516 536 c 128,-1,26
 536 536 536 536 571 515 c 0,0,1
EndSplineSet
EndChar

StartChar: x
Encoding: 120 120 32
Width: 567
Flags: MW
HStem: -6 21G<106.5 126 441 460.5> 515 20G<106.5 126 441.5 461.5>
LayerCount: 2
Fore
SplineSet
405 264 m 1,0,-1
 516 152 l 2,1,2
 552 116 552 116 552 90.5 c 0,3,4
 552 65 552 65 516 29.5 c 0,5,6
 480 -6 480 -6 455 -6 c 0,7,8
 430 -6 430 -6 394 30 c 2,9,-1
 284 141 l 1,10,-1
 173 30 l 2,11,12
 137 -6 137 -6 112.5 -6 c 0,13,14
 88 -6 88 -6 51.5 29.5 c 0,15,16
 15 65 15 65 15 90.5 c 0,17,18
 15 116 15 116 51 152 c 2,19,-1
 162 264 l 1,20,-1
 51 376 l 2,21,22
 15 412 15 412 15 437.5 c 0,23,24
 15 463 15 463 51.5 499 c 0,25,26
 88 535 88 535 112.5 535 c 0,27,28
 137 535 137 535 173 499 c 2,29,-1
 284 387 l 1,30,-1
 394 499 l 2,31,32
 430 535 430 535 455 535 c 0,33,34
 480 535 480 535 516 499 c 128,-1,35
 552 463 552 463 552 437.5 c 0,36,37
 552 412 552 412 516 376 c 2,38,-1
 405 264 l 1,0,-1
EndSplineSet
EndChar

StartChar: z
Encoding: 122 122 33
Width: 586
Flags: MW
HStem: 0 176<303 473> 352 175<112 461 136 277>
LayerCount: 2
Fore
SplineSet
303 176 m 1,0,-1
 474 176 l 2,1,2
 514 176 514 176 531.5 166 c 128,-1,3
 549 156 549 156 555 137 c 128,-1,4
 561 118 561 118 561 87 c 128,-1,5
 561 56 561 56 555 37 c 128,-1,6
 549 18 549 18 534 10.5 c 128,-1,7
 519 3 519 3 507.5 1.5 c 128,-1,8
 496 0 496 0 473 0 c 2,9,-1
 112 0 l 2,10,11
 77 0 77 0 51 26 c 128,-1,12
 25 52 25 52 25 88 c 128,-1,13
 25 124 25 124 51 149.5 c 128,-1,14
 77 175 77 175 131 223 c 128,-1,15
 185 271 185 271 229 309.5 c 128,-1,16
 273 348 273 348 277 352 c 1,17,-1
 136 352 l 2,18,19
 78.7777777778 352 78.7777777778 352 64 371 c 0,20,21
 47 392.857142857 47 392.857142857 47 428.928571429 c 128,-1,22
 47 465 47 465 52 482.5 c 128,-1,23
 57 500 57 500 64 508.5 c 128,-1,24
 71 517 71 517 84.5 521.5 c 0,25,26
 101 527 101 527 136 527 c 2,27,-1
 461 527 l 2,28,29
 496 527 496 527 522 502 c 128,-1,30
 548 477 548 477 548 439.5 c 128,-1,31
 548 402 548 402 518 373 c 128,-1,32
 488 344 488 344 303 176 c 1,0,-1
EndSplineSet
EndChar

StartChar: A
Encoding: 65 65 34
Width: 765
Flags: MW
HStem: -9 21G<122.5 147> 156 148<316 449 316 521 244 449> 713 20G<366.5 405.5>
LayerCount: 2
Fore
SplineSet
463 681 m 2,0,-1
 733 123 l 2,1,2
 750 89 750 89 750 72 c 0,3,4
 750 36 750 36 692 7 c 0,5,6
 658 -10 658 -10 638.5 -10 c 0,7,8
 619 -10 619 -10 606.5 -1 c 128,-1,9
 594 8 594 8 588.5 18 c 128,-1,10
 583 28 583 28 573 48 c 2,11,-1
 521 156 l 1,12,-1
 244 156 l 1,13,-1
 192 48 l 2,14,15
 182 28 182 28 176.5 19 c 128,-1,16
 171 10 171 10 158.5 0.5 c 128,-1,17
 146 -9 146 -9 126.5 -9 c 0,18,19
 107 -9 107 -9 73 8 c 0,20,21
 15 36 15 36 15 72 c 0,22,23
 15 89 15 89 32 123 c 2,24,25
 302 682 l 2,26,27
 313 705 313 705 335.5 719 c 128,-1,28
 358 733 358 733 383 733 c 0,29,30
 437 733 437 733 463 681 c 2,0,-1
382 441 m 1,31,-1
 316 304 l 1,32,-1
 449 304 l 1,33,-1
 382 441 l 1,31,-1
EndSplineSet
EndChar

StartChar: B
Encoding: 66 66 35
Width: 646
Flags: MW
HStem: 1 21G<84 128 128 391> 312 143<345 386 345 387.5> 557 177<217 357 217 217>
VStem: 40 177<178 557 178 646 178 670> 423 177<492.5 528.5> 444 177<236 264.5 236 279>
LayerCount: 2
Fore
SplineSet
562 393 m 1,0,1
 621 323 621 323 621 236 c 1,2,3
 619 136 619 136 552.5 68.5 c 128,-1,4
 486 1 486 1 391 1 c 2,5,-1
 128 1 l 2,6,7
 57.7142857143 1 57.7142857143 1 45.5 39 c 0,8,9
 40 56.1111111111 40 56.1111111111 40 91 c 2,10,-1
 40 646 l 2,11,12
 40 670 40 670 41.5 681 c 128,-1,13
 43 692 43 692 51 707 c 0,14,15
 65.4 734 65.4 734 129 734 c 2,16,-1
 381 734 l 2,17,18
 473 734 473 734 535 670 c 1,19,20
 600 605 600 605 600 514 c 0,21,22
 600 448 600 448 562 393 c 1,0,1
444 246.5 m 0,23,24
 444 270 444 270 438.5 284 c 128,-1,25
 433 298 433 298 420 303.5 c 0,26,27
 399.909090909 312 399.909090909 312 363.954545455 312 c 128,-1,28
 328 312 328 312 310 326 c 128,-1,29
 292 340 292 340 292 383.5 c 128,-1,30
 292 427 292 427 310.5 441 c 128,-1,31
 329 455 329 455 372 455 c 0,32,33
 412.333333333 455 412.333333333 455 419.5 476.5 c 0,34,35
 423 487 423 487 423 512 c 128,-1,36
 423 537 423 537 406.5 547 c 128,-1,37
 390 557 390 557 357 557 c 2,38,-1
 217 557 l 1,39,-1
 217 178 l 1,40,-1
 381 178 l 2,41,42
 444 178 444 178 444 246.5 c 0,23,24
EndSplineSet
EndChar

StartChar: C
Encoding: 67 67 36
Width: 679
Flags: MW
HStem: -10 178<362.5 434.5 362.5 461.5> 563 177<361.5 435>
VStem: 25 177<294 436.5 294 504.5>
LayerCount: 2
Fore
SplineSet
498 192.5 m 2,0,-1
 516 205 l 1,1,2
 550 225 550 225 564 225 c 0,3,4
 595 225 595 225 631 169 c 0,5,6
 653 134 653 134 653 113 c 128,-1,7
 653 92 653 92 639.5 78 c 128,-1,8
 626 64 626 64 608 53 c 128,-1,9
 590 42 590 42 573.5 32 c 128,-1,10
 557 22 557 22 506 6 c 128,-1,11
 455 -10 455 -10 407.5 -10 c 128,-1,12
 360 -10 360 -10 311.5 2.5 c 128,-1,13
 263 15 263 15 211.5 44.5 c 128,-1,14
 160 74 160 74 119 116.5 c 128,-1,15
 78 159 78 159 51.5 225.5 c 128,-1,16
 25 292 25 292 25 370 c 128,-1,17
 25 448 25 448 51 511.5 c 128,-1,18
 77 575 77 575 117.5 616.5 c 128,-1,19
 158 658 158 658 210 686.5 c 0,20,21
 307.614035088 740 307.614035088 740 407 740 c 0,22,23
 454 740 454 740 502.5 725.5 c 128,-1,24
 551 711 551 711 575.5 696.5 c 2,25,-1
 600 682 l 2,26,27
 618 671 618 671 627.5 663.5 c 0,28,29
 654 642.578947368 654 642.578947368 654 616.289473684 c 128,-1,30
 654 590 654 590 633 561 c 0,31,32
 594 507 594 507 563 507 c 0,33,34
 545 507 545 507 512 529 c 1,35,36
 470 563 470 563 400 563 c 0,37,38
 334.886363636 563 334.886363636 563 272.5 518 c 0,39,40
 242 496 242 496 222 456 c 128,-1,41
 202 416 202 416 202 365.5 c 128,-1,42
 202 315 202 315 222 275 c 128,-1,43
 242 235 242 235 273 212.5 c 0,44,45
 334.311111111 168 334.311111111 168 400 168 c 0,46,47
 431 168 431 168 458.5 176 c 128,-1,48
 486 184 486 184 498 192.5 c 2,0,-1
EndSplineSet
EndChar

StartChar: D
Encoding: 68 68 37
Width: 704
Flags: MW
HStem: 1 177<86 314 217 311> 556 177<283 313 217 408> 714 20G<84.5 159.5>
VStem: 502 177<309.5 421.5>
LayerCount: 2
Fore
SplineSet
129 734 m 2,0,-1
 314 733 l 2,1,2
 459 733 459 733 569 628.5 c 128,-1,3
 679 524 679 524 679 371.5 c 128,-1,4
 679 219 679 219 571.5 110 c 128,-1,5
 464 1 464 1 311 1 c 2,6,-1
 128 1 l 2,7,8
 67.1111111111 1 67.1111111111 1 52 26.5 c 0,9,10
 40 46.75 40 46.75 40 90 c 2,11,-1
 40 646 l 2,12,13
 40 670 40 670 41.5 681 c 128,-1,14
 43 692 43 692 51 707 c 0,15,16
 65.4 734 65.4 734 129 734 c 2,0,-1
444 231.5 m 128,-1,18
 502 285 502 285 502 366 c 128,-1,19
 502 447 502 447 445.5 501.5 c 128,-1,20
 389 556 389 556 313 556 c 2,21,-1
 217 556 l 1,22,-1
 217 178 l 1,23,-1
 314 178 l 2,24,17
 386 178 386 178 444 231.5 c 128,-1,18
EndSplineSet
EndChar

StartChar: G
Encoding: 71 71 38
Width: 714
Flags: MW
HStem: 2 177 295 147<398 598 422 497> 514 232<301.5 567> 569 177<349 425.5>
VStem: 25 177<316 436 316 482.5> 497 177<186 295 295 295>
LayerCount: 2
Fore
SplineSet
422 442 m 2,0,-1
 598 442 l 1,1,2
 652.226256983 439.991620112 652.226256983 439.991620112 664.5 414.5 c 0,3,4
 674 394.769230769 674 394.769230769 674 358 c 2,5,-1
 674 138 l 2,6,7
 674 106 674 106 646 77 c 0,8,9
 562 -10 562 -10 394 -10 c 0,10,11
 245 -10 245 -10 135 102.5 c 128,-1,12
 25 215 25 215 25 374 c 128,-1,13
 25 533 25 533 137 639.5 c 128,-1,14
 249 746 249 746 401 746 c 0,15,16
 518.642857143 746 518.642857143 746 624.5 668 c 0,17,18
 651 648.473684211 651 648.473684211 651 623.736842105 c 128,-1,19
 651 599 651 599 628 567 c 0,20,21
 589 514 589 514 557 514 c 0,22,23
 538 514 538 514 496 541.5 c 128,-1,24
 454 569 454 569 396 569 c 0,25,26
 320 569 320 569 261 515.5 c 128,-1,27
 202 462 202 462 202 375.5 c 128,-1,28
 202 289 202 289 262 228.5 c 128,-1,29
 322 168 322 168 398 168 c 0,30,31
 453 168 453 168 497 186 c 1,32,-1
 497 295 l 1,33,-1
 418 295 l 2,34,35
 386.846153846 295 386.846153846 295 373.923076923 303 c 128,-1,36
 361 311 361 311 357 326.5 c 128,-1,37
 353 342 353 342 353 368.5 c 128,-1,38
 353 395 353 395 357.5 411 c 128,-1,39
 362 427 362 427 374 433 c 0,40,41
 392 442 392 442 422 442 c 2,0,-1
EndSplineSet
EndChar

StartChar: J
Encoding: 74 74 39
Width: 549
Flags: MW
HStem: -10 178<224.5 268.5 224.5 320.5> 713 20G<378 465>
VStem: 332 177<263 637 637 643>
LayerCount: 2
Fore
SplineSet
471.5 726.5 m 128,-1,1
 490 720 490 720 497.5 705 c 0,2,3
 509 682 509 682 509 643 c 2,4,-1
 509 256 l 2,5,6
 509 151 509 151 433 70.5 c 128,-1,7
 357 -10 357 -10 239 -10 c 0,8,9
 173.458333333 -10 173.458333333 -10 121.5 19 c 0,10,11
 75.9596541787 44.4178674352 75.9596541787 44.4178674352 58 63.5 c 2,12,-1
 50 72 l 2,13,14
 15 109 15 109 15 135.5 c 128,-1,15
 15 162 15 162 50 198 c 128,-1,16
 85 234 85 234 112 234 c 128,-1,17
 139 234 139 234 172 201 c 128,-1,18
 205 168 205 168 243.5 168 c 128,-1,19
 282 168 282 168 307 194 c 128,-1,20
 332 220 332 220 332 263 c 2,21,-1
 332 637 l 2,22,23
 332 696.833333333 332 696.833333333 352 713.5 c 0,24,25
 375.4 733 375.4 733 414.2 733 c 128,-1,0
 453 733 453 733 471.5 726.5 c 128,-1,1
EndSplineSet
EndChar

StartChar: M
Encoding: 77 77 40
Width: 870
Flags: MW
HStem: 1 21G<84 171.5 697 785> 712 20G<84.5 159.5 710 785.5>
VStem: 40 176<90 425> 653 177<90 425 425 425>
LayerCount: 2
Fore
SplineSet
819 705 m 0,0,1
 827 690 827 690 828.5 678 c 128,-1,2
 830 666 830 666 830 643 c 2,3,-1
 830 88 l 2,4,5
 830 19 830 19 792 7 c 0,6,7
 773 1 773 1 744 1 c 128,-1,8
 715 1 715 1 698 6 c 128,-1,9
 681 11 681 11 672 18 c 128,-1,10
 663 25 663 25 658.5 38.5 c 0,11,12
 653 55 653 55 653 90 c 2,13,-1
 653 425 l 1,14,15
 628 394 628 394 580 326.5 c 128,-1,16
 532 259 532 259 519 242 c 128,-1,17
 506 225 506 225 501 218.5 c 128,-1,18
 496 212 496 212 476.5 200.5 c 128,-1,19
 457 189 457 189 434.5 189 c 128,-1,20
 412 189 412 189 393.5 199.5 c 128,-1,21
 375 210 375 210 367 220.5 c 2,22,-1
 359 231 l 2,23,24
 339 256 339 256 280 337.5 c 128,-1,25
 221 419 221 419 216 425 c 1,26,-1
 216 88 l 2,27,28
 216 65 216 65 214.5 53.5 c 128,-1,29
 213 42 213 42 205 27.5 c 0,30,31
 190.379310345 1 190.379310345 1 127 1 c 0,32,33
 65.6206896552 1 65.6206896552 1 51 27.5 c 0,34,35
 43 42 43 42 41.5 54 c 128,-1,36
 40 66 40 66 40 90 c 2,37,-1
 40 645 l 2,38,39
 40 668 40 668 41.5 679.5 c 128,-1,40
 43 691 43 691 51 705.5 c 0,41,42
 65.6206896552 732 65.6206896552 732 129 732 c 0,43,44
 156 732 156 732 175.5 725.5 c 128,-1,45
 195 719 195 719 201 712.5 c 2,46,-1
 207 706 l 1,47,-1
 434 408 l 1,48,49
 604 633 604 633 661 705 c 1,50,51
 678 732 678 732 741.3 732 c 128,-1,52
 804.6 732 804.6 732 819 705 c 0,0,1
EndSplineSet
EndChar

StartChar: N
Encoding: 78 78 41
Width: 720
Flags: MW
HStem: 0 21G<84 171.5 562.5 635.5> 712 20G<85 158 549 636.5>
VStem: 40 176<89 417> 504 176<309 643>
LayerCount: 2
Fore
SplineSet
542 726 m 128,-1,1
 561 732 561 732 589.5 732 c 128,-1,2
 618 732 618 732 635.5 727 c 128,-1,3
 653 722 653 722 661.5 715 c 128,-1,4
 670 708 670 708 674.5 694.5 c 0,5,6
 680 678 680 678 680 643 c 2,7,-1
 680 88 l 2,8,9
 680 64 680 64 678.5 53 c 128,-1,10
 677 42 677 42 669 27 c 0,11,12
 654.6 4.26325641456e-14 654.6 4.26325641456e-14 591 0 c 0,13,14
 552 0 552 0 537 6 c 128,-1,15
 522 12 522 12 512 25 c 0,16,17
 287 325 287 325 216 417 c 1,18,-1
 216 88 l 2,19,20
 216 64 216 64 214.5 53 c 128,-1,21
 213 42 213 42 205 27 c 0,22,23
 190.6 -1.06581410364e-14 190.6 -1.06581410364e-14 127 0 c 0,24,25
 65.4 0 65.4 0 51 27 c 0,26,27
 43 42 43 42 41.5 54 c 128,-1,28
 40 66 40 66 40 89 c 2,29,-1
 40 647 l 2,30,31
 40 684.533333333 40 684.533333333 49.5 702.266666667 c 128,-1,32
 59 720 59 720 78 726 c 128,-1,33
 97 732 97 732 127 732 c 128,-1,34
 157 732 157 732 174.5 726.5 c 128,-1,35
 192 721 192 721 199 714.5 c 0,36,37
 203.052631579 710.736842105 203.052631579 710.736842105 222 688 c 1,38,39
 433 401 433 401 504 309 c 1,40,-1
 504 647 l 2,41,42
 504 684.533333333 504 684.533333333 513.5 702.266666667 c 128,-1,0
 523 720 523 720 542 726 c 128,-1,1
EndSplineSet
EndChar

StartChar: L
Encoding: 76 76 42
Width: 587
Flags: MW
HStem: 0 148<84 489 217 488> 713 20G<84.5 173>
VStem: 40 177<148 148 148 644>
LayerCount: 2
Fore
SplineSet
217 148 m 1,0,-1
 489 148 l 2,1,2
 522 148 522 148 537 140.5 c 128,-1,3
 552 133 552 133 557 117 c 128,-1,4
 562 101 562 101 562 74.5 c 128,-1,5
 562 48 562 48 557 32 c 128,-1,6
 552 16 552 16 539.5 9.5 c 0,7,8
 521.230769231 2.70894418009e-14 521.230769231 2.70894418009e-14 488 0 c 2,9,-1
 128 0 l 2,10,11
 58 0 58 0 45.5 37.5 c 0,12,13
 40 54 40 54 40 89 c 2,14,-1
 40 645 l 2,15,16
 40 668 40 668 41.5 679.5 c 128,-1,17
 43 691 43 691 51 706 c 0,18,19
 65.4 733 65.4 733 129 733 c 0,20,21
 199 733 199 733 211.5 695.5 c 0,22,23
 217 679 217 679 217 644 c 2,24,-1
 217 148 l 1,0,-1
EndSplineSet
EndChar

StartChar: K
Encoding: 75 75 43
Width: 639
Flags: MW
HStem: 0 21G<84 172.5> 725 20G<485.5 506.5>
VStem: 40 177<89 283 453 644>
LayerCount: 2
Fore
SplineSet
354 368 m 1,0,1
 507 221 507 221 571 147 c 0,2,3
 604 110 604 110 604 84.5 c 128,-1,4
 604 59 604 59 564 24.5 c 128,-1,5
 524 -10 524 -10 498.5 -10 c 128,-1,6
 473 -10 473 -10 437 32 c 2,7,-1
 217 283 l 1,8,-1
 217 88 l 2,9,10
 217 64 217 64 215.5 53 c 128,-1,11
 214 42 214 42 206 27 c 0,12,13
 191.6 -1.06581410364e-14 191.6 -1.06581410364e-14 128 0 c 0,14,15
 58 0 58 0 45.5 37.5 c 0,16,17
 40 54 40 54 40 89 c 2,18,-1
 40 645 l 2,19,20
 40 668 40 668 41.5 679.5 c 128,-1,21
 43 691 43 691 51 706 c 0,22,23
 65.4 733 65.4 733 129 733 c 0,24,25
 199 733 199 733 211.5 695.5 c 0,26,27
 217 679 217 679 217 644 c 2,28,-1
 217 453 l 1,29,30
 353 606 353 606 437 704 c 0,31,32
 472 745 472 745 498 745 c 128,-1,33
 524 745 524 745 564 710.5 c 128,-1,34
 604 676 604 676 604 650.5 c 128,-1,35
 604 625 604 625 573.5 590 c 0,36,37
 515.506090808 523.449612403 515.506090808 523.449612403 394 406.5 c 2,38,-1
 354 368 l 1,0,1
EndSplineSet
EndChar

StartChar: Q
Encoding: 81 81 44
Width: 830
Flags: MW
HStem: -12 177<343.5 430.5 343.5 432.5> -10 21G<714 733.5> 565 177<343.5 431>
VStem: 25 177<302 427.5 302 474> 573 177<335 428.5> 573 242<94 428.5>
LayerCount: 2
Fore
SplineSet
713 199 m 1,0,1
 759 168.333333333 759 168.333333333 779 153.666666667 c 0,2,3
 815 127.266666667 815 127.266666667 815 102.633333333 c 128,-1,4
 815 78 815 78 785 34 c 128,-1,5
 755 -10 755 -10 724 -10 c 0,6,7
 705 -10 705 -10 666 17 c 0,8,9
 661 20 661 20 638 36 c 128,-1,10
 615 52 615 52 602 60 c 1,11,12
 509 -12 509 -12 393 -12 c 0,13,14
 238 -12 238 -12 131.5 98 c 128,-1,15
 25 208 25 208 25 360 c 0,16,17
 25 443 25 443 55 515.5 c 128,-1,18
 85 588 85 588 135 637 c 128,-1,19
 185 686 185 686 250 714 c 128,-1,20
 315 742 315 742 384 742 c 0,21,22
 532 742 532 742 641 635 c 128,-1,23
 750 528 750 528 750 364 c 0,24,25
 750 281 750 281 713 199 c 1,0,1
259.5 220.5 m 128,-1,27
 317 165 317 165 388 165 c 128,-1,28
 459 165 459 165 516 219 c 128,-1,29
 573 273 573 273 573 364 c 128,-1,30
 573 455 573 455 515.5 510 c 128,-1,31
 458 565 458 565 387 565 c 128,-1,32
 316 565 316 565 259 509.5 c 128,-1,33
 202 454 202 454 202 365 c 128,-1,26
 202 276 202 276 259.5 220.5 c 128,-1,27
EndSplineSet
EndChar

StartChar: R
Encoding: 82 82 45
Width: 631
Flags: MW
HStem: -6 21G<482 507> 556 177<217 343 217 217>
VStem: 40 177<90 202 379 556> 432 176<434.5 500>
LayerCount: 2
Fore
SplineSet
601 124 m 0,0,1
 616 88 616 88 616 72 c 0,2,3
 616 34 616 34 554 8 c 0,4,5
 522 -6 522 -6 502.5 -6 c 128,-1,6
 483 -6 483 -6 470.5 3.5 c 128,-1,7
 458 13 458 13 452.5 23 c 0,8,9
 442.007692308 42.0769230769 442.007692308 42.0769230769 374 204 c 1,10,-1
 343 202 l 1,11,-1
 217 202 l 1,12,-1
 217 89 l 2,13,14
 217 66 217 66 215.5 54.5 c 128,-1,15
 214 43 214 43 206 28 c 0,16,17
 191.6 1 191.6 1 128 1 c 0,18,19
 58 1 58 1 45.5 38.5 c 0,20,21
 40 55 40 55 40 90 c 2,22,-1
 40 645 l 2,23,24
 40 668 40 668 41.5 679.5 c 128,-1,25
 43 691 43 691 51 706 c 0,26,27
 65.4 733 65.4 733 129 733 c 2,28,-1
 345 733 l 2,29,30
 433.419354839 733 433.419354839 733 516 669 c 0,31,32
 556 638 556 638 582 585 c 128,-1,33
 608 532 608 532 608 467 c 0,34,35
 608 354 608 354 533 281 c 1,36,37
 555 228 555 228 601 124 c 0,0,1
217 379 m 1,38,-1
 345 379 l 2,39,40
 374 379 374 379 403 401 c 128,-1,41
 432 423 432 423 432 467 c 128,-1,42
 432 511 432 511 403 533.5 c 128,-1,43
 374 556 374 556 343 556 c 2,44,-1
 217 556 l 1,45,-1
 217 379 l 1,38,-1
EndSplineSet
EndChar

StartChar: P
Encoding: 80 80 46
Width: 632
Flags: MW
HStem: 1 21G<84 172.5> 202 177<217 342 217 343> 556 177<217 342 217 217>
VStem: 40 177<90 202 379 556> 431 176<434.5 500>
LayerCount: 2
Fore
SplineSet
607 467 m 128,-1,1
 607 402 607 402 581 349.5 c 128,-1,2
 555 297 555 297 514.5 266 c 0,3,4
 430.887096774 202 430.887096774 202 342 202 c 2,5,-1
 217 202 l 1,6,-1
 217 89 l 2,7,8
 217 66 217 66 215.5 54.5 c 128,-1,9
 214 43 214 43 206 28 c 0,10,11
 191.6 1 191.6 1 128 1 c 0,12,13
 58 1 58 1 45.5 38.5 c 0,14,15
 40 55 40 55 40 90 c 2,16,-1
 40 645 l 2,17,18
 40 668 40 668 41.5 679.5 c 128,-1,19
 43 691 43 691 51 706 c 0,20,21
 65.4 733 65.4 733 129 733 c 2,22,-1
 343 733 l 2,23,24
 430.887096774 733 430.887096774 733 514.5 669 c 0,25,26
 555 638 555 638 581 585 c 128,-1,0
 607 532 607 532 607 467 c 128,-1,1
402 401 m 128,-1,28
 431 423 431 423 431 467 c 128,-1,29
 431 511 431 511 402 533.5 c 128,-1,30
 373 556 373 556 342 556 c 2,31,-1
 217 556 l 1,32,-1
 217 379 l 1,33,-1
 343 379 l 2,34,27
 373 379 373 379 402 401 c 128,-1,28
EndSplineSet
EndChar

StartChar: O
Encoding: 79 79 47
Width: 775
Flags: MW
HStem: -12 177<343.5 430.5 343.5 493.5> 565 177<343.5 431>
VStem: 25 177<302 427.5 302 474> 573 177<300 428.5>
LayerCount: 2
Fore
SplineSet
384 742 m 0,0,1
 532 742 532 742 641 635 c 128,-1,2
 750 528 750 528 750 369.5 c 128,-1,3
 750 211 750 211 646 99.5 c 128,-1,4
 542 -12 542 -12 390 -12 c 128,-1,5
 238 -12 238 -12 131.5 98 c 128,-1,6
 25 208 25 208 25 360 c 0,7,8
 25 443 25 443 55 515.5 c 128,-1,9
 85 588 85 588 135 637 c 128,-1,10
 185 686 185 686 250 714 c 128,-1,11
 315 742 315 742 384 742 c 0,0,1
259.5 220.5 m 128,-1,13
 317 165 317 165 388 165 c 128,-1,14
 459 165 459 165 516 219 c 128,-1,15
 573 273 573 273 573 364 c 128,-1,16
 573 455 573 455 515.5 510 c 128,-1,17
 458 565 458 565 387 565 c 128,-1,18
 316 565 316 565 259 509.5 c 128,-1,19
 202 454 202 454 202 365 c 128,-1,12
 202 276 202 276 259.5 220.5 c 128,-1,13
EndSplineSet
EndChar

StartChar: T
Encoding: 84 84 48
Width: 731
Flags: MW
HStem: 0 21G<322 408.5> 589 145<67 644 88 279 452 643 452 452>
VStem: 279 173<87 589>
LayerCount: 2
Fore
SplineSet
88 734 m 2,0,-1
 644 734 l 2,1,2
 676 734 676 734 691 726.5 c 128,-1,3
 706 719 706 719 711 703 c 128,-1,4
 716 687 716 687 716 661 c 128,-1,5
 716 635 716 635 711 619.5 c 128,-1,6
 706 604 706 604 694 598 c 0,7,8
 676 589 676 589 643 589 c 2,9,-1
 452 589 l 1,10,-1
 452 86 l 2,11,12
 452 63 452 63 450.5 52 c 128,-1,13
 449 41 449 41 441.5 26.5 c 128,-1,14
 434 12 434 12 415 6 c 128,-1,15
 396 0 396 0 365 0 c 128,-1,16
 334 0 334 0 315.5 6 c 128,-1,17
 297 12 297 12 289.5 26.5 c 128,-1,18
 282 41 282 41 280.5 52.5 c 128,-1,19
 279 64 279 64 279 87 c 2,20,-1
 279 589 l 1,21,-1
 87 589 l 2,22,23
 55 589 55 589 40 596.5 c 128,-1,24
 25 604 25 604 20 620 c 128,-1,25
 15 636 15 636 15 662 c 128,-1,26
 15 688 15 688 20 703.5 c 128,-1,27
 25 719 25 719 37 725 c 0,28,29
 55 734 55 734 88 734 c 2,0,-1
EndSplineSet
EndChar

StartChar: S
Encoding: 83 83 49
Width: 583
Flags: MW
HStem: -10 164<262.5 325.5 262.5 345.5> 525 220<202.5 432.5> 581 164<266.5 312.5>
VStem: 38 176<460.5 543 460.5 580.5> 380 178<210.5 281>
LayerCount: 2
Fore
SplineSet
51 103 m 1,0,1
 25 135 25 135 25 160.5 c 128,-1,2
 25 186 25 186 68 228 c 0,3,4
 93 252 93 252 121 252 c 128,-1,5
 149 252 149 252 199 202 c 1,6,7
 212.967213115 184.540983607 212.967213115 184.540983607 238.983606557 169.270491803 c 128,-1,8
 265 154 265 154 287 154 c 0,9,10
 380 154 380 154 380 230 c 0,11,12
 380 253 380 253 354.5 268.5 c 128,-1,13
 329 284 329 284 291 291 c 128,-1,14
 253 298 253 298 209 313.5 c 128,-1,15
 165 329 165 329 127 350 c 128,-1,16
 89 371 89 371 63.5 416.5 c 128,-1,17
 38 462 38 462 38 526 c 0,18,19
 38 614 38 614 103.5 679.5 c 128,-1,20
 169 745 169 745 282 745 c 0,21,22
 342 745 342 745 391.5 729.5 c 128,-1,23
 441 714 441 714 460.5 698.5 c 2,24,-1
 485 679 l 1,25,26
 516 650 516 650 516 630 c 128,-1,27
 516 610 516 610 492 575 c 0,28,29
 458 525 458 525 422 525 c 0,30,31
 401 525 401 525 370 545 c 0,32,33
 367 547 367 547 358.5 555 c 128,-1,34
 350 563 350 563 343 567.5 c 0,35,36
 322 581 322 581 289.5 581 c 128,-1,37
 257 581 257 581 235.5 565.5 c 128,-1,38
 214 550 214 550 214 522.5 c 128,-1,39
 214 495 214 495 239.5 478 c 128,-1,40
 265 461 265 461 303 455 c 128,-1,41
 341 449 341 449 386 436.5 c 128,-1,42
 431 424 431 424 469 406 c 128,-1,43
 507 388 507 388 532.5 343.5 c 128,-1,44
 558 299 558 299 558 234 c 128,-1,45
 558 169 558 169 532 119.5 c 128,-1,46
 506 70 506 70 464.5 43 c 0,47,48
 383.037037037 -10 383.037037037 -10 291 -10 c 0,49,50
 244 -10 244 -10 202 1.5 c 128,-1,51
 160 13 160 13 133.5 29.5 c 0,52,53
 81.3054711246 61.9984802432 81.3054711246 61.9984802432 59.5 91.5 c 2,54,-1
 51 103 l 1,0,1
EndSplineSet
EndChar

StartChar: U
Encoding: 85 85 50
Width: 726
Flags: MW
HStem: -12 178<306.5 417 306.5 467.5> 714 20G<84.5 173 554.5 642>
VStem: 40 178<344 644> 509 177<345 644>
LayerCount: 2
Fore
SplineSet
548 728 m 128,-1,1
 567 734 567 734 595.5 734 c 128,-1,2
 624 734 624 734 641 729 c 128,-1,3
 658 724 658 724 667 717 c 128,-1,4
 676 710 676 710 680.5 696 c 0,5,6
 686 678.888888889 686 678.888888889 686 644 c 2,7,-1
 686 342 l 2,8,9
 686 210.063291139 686 210.063291139 603.5 102.5 c 0,10,11
 564 51 564 51 501 19.5 c 128,-1,12
 438 -12 438 -12 361.5 -12 c 128,-1,13
 285 -12 285 -12 222.5 20 c 128,-1,14
 160 52 160 52 121 103.5 c 0,15,16
 40 210.461538462 40 210.461538462 40 344 c 2,17,-1
 40 645 l 2,18,19
 40 669 40 669 41.5 680.5 c 128,-1,20
 43 692 43 692 51 707 c 128,-1,21
 59 722 59 722 78 728 c 128,-1,22
 97 734 97 734 129 734 c 128,-1,23
 161 734 161 734 180 728 c 128,-1,24
 199 722 199 722 206.5 707 c 0,25,26
 218 684 218 684 218 644 c 2,27,-1
 218 344 l 2,28,29
 218 282.741935484 218 282.741935484 247.5 228.5 c 0,30,31
 263 200 263 200 293 183 c 128,-1,32
 323 166 323 166 364 166 c 0,33,34
 437 166 437 166 473 220 c 128,-1,35
 509 274 509 274 509 345 c 2,36,-1
 509 651 l 2,37,38
 509 689.5 509 689.5 519 705.75 c 128,-1,0
 529 722 529 722 548 728 c 128,-1,1
EndSplineSet
EndChar

StartChar: V
Encoding: 86 86 51
Width: 783
Flags: MW
HStem: 1 21G<370.5 387 387 397> 719 20G<123 146.5 636.5 660>
LayerCount: 2
Fore
SplineSet
709 722 m 0,0,1
 768 693 768 693 768 658 c 0,2,3
 768 642 768 642 753 610 c 2,4,-1
 477 50 l 2,5,6
 466 28 466 28 443.5 14.5 c 128,-1,7
 421 1 421 1 397 1 c 2,8,-1
 387 1 l 2,9,10
 362 1 362 1 339.5 14.5 c 128,-1,11
 317 28 317 28 306 50 c 2,12,-1
 30 610 l 2,13,14
 15 642 15 642 15 658 c 0,15,16
 15 693 15 693 74 722 c 0,17,18
 107 739 107 739 124.5 739 c 128,-1,19
 142 739 142 739 151 735 c 128,-1,20
 160 731 160 731 167.5 721 c 0,21,22
 176.846153846 708.538461538 176.846153846 708.538461538 184.423076923 694.269230769 c 128,-1,23
 192 680 192 680 223 611.5 c 128,-1,24
 254 543 254 543 289.5 466 c 128,-1,25
 325 389 325 389 356.5 320.5 c 128,-1,26
 388 252 388 252 392 244 c 1,27,-1
 592 682 l 2,28,29
 600 701 600 701 606.5 711.5 c 0,30,31
 623.523809524 739 623.523809524 739 649.761904762 739 c 128,-1,32
 676 739 676 739 709 722 c 0,0,1
EndSplineSet
EndChar

StartChar: W
Encoding: 87 87 52
Width: 999
Flags: MW
HStem: 1 21G<271 335.5 662.5 728.5> 719 20G<848.5 875.5>
LayerCount: 2
Fore
SplineSet
917 729 m 0,0,1
 984 705 984 705 984 665 c 0,2,3
 984 652 984 652 972 616 c 2,4,-1
 780 61 l 2,5,6
 778 54 778 54 773 44 c 128,-1,7
 768 34 768 34 746.5 17.5 c 128,-1,8
 725 1 725 1 695.5 1 c 128,-1,9
 666 1 666 1 644.5 17.5 c 128,-1,10
 623 34 623 34 616.5 50.5 c 2,11,-1
 499 395 l 1,12,13
 388 67 388 67 386 61 c 128,-1,14
 384 55 384 55 377 44 c 128,-1,15
 370 33 370 33 361 24 c 0,16,17
 338 1 338 1 306 1 c 128,-1,18
 274 1 274 1 253.5 16 c 128,-1,19
 233 31 233 31 226 46 c 2,20,-1
 219 61 l 1,21,-1
 26 616 l 2,22,23
 15 649 15 649 15 665 c 0,24,25
 15 705 15 705 82 728 c 0,26,27
 111 738 111 738 134.5 738 c 128,-1,28
 158 738 158 738 170.5 722 c 128,-1,29
 183 706 183 706 193 673 c 2,30,-1
 303 339 l 1,31,-1
 412 668 l 2,32,33
 425.926829268 709.780487805 425.926829268 709.780487805 463 726 c 0,34,35
 479 733 479 733 504.5 733 c 128,-1,36
 530 733 530 733 552 716.5 c 128,-1,37
 574 700 574 700 580 684 c 2,38,-1
 695 337 l 1,39,-1
 805 673 l 2,40,41
 813 696 813 696 818 707 c 128,-1,42
 823 718 823 718 836.5 728.5 c 128,-1,43
 850 739 850 739 870 739 c 128,-1,44
 890 739 890 739 917 729 c 0,0,1
EndSplineSet
EndChar

StartChar: X
Encoding: 88 88 53
Width: 741
Flags: MW
HStem: -10 21G<112.5 133 609 629.5> 732 20G<112.5 133 609 629.5>
LayerCount: 2
Fore
SplineSet
491 371 m 1,0,-1
 692 150 l 2,1,2
 726 112 726 112 726 86 c 0,3,4
 726 60 726 60 687.5 25 c 0,5,6
 649 -10 649 -10 622.5 -10 c 0,7,8
 596 -10 596 -10 561 30 c 2,9,-1
 371 248 l 1,10,-1
 181 30 l 2,11,12
 145 -10 145 -10 119.5 -10 c 0,13,14
 94 -10 94 -10 54.5 25.5 c 0,15,16
 15 61 15 61 15 86 c 0,17,18
 15 111 15 111 50 150 c 2,19,-1
 251 371 l 1,20,-1
 50 592 l 2,21,22
 15 629 15 629 15 655 c 0,23,24
 15 681 15 681 54 716.5 c 0,25,26
 93 752 93 752 119.5 752 c 0,27,28
 146 752 146 752 181 712 c 2,29,-1
 371 494 l 1,30,-1
 561 712 l 2,31,32
 597 752 597 752 622.5 752 c 0,33,34
 648 752 648 752 687 717 c 128,-1,35
 726 682 726 682 726 655 c 0,36,37
 726 628 726 628 692 592 c 2,38,-1
 491 371 l 1,0,-1
EndSplineSet
EndChar

StartChar: Y
Encoding: 89 89 54
Width: 686
Flags: MW
HStem: -2 21G<298.5 387.5> 724 20G<120 142 544.5 567>
VStem: 254 178<88 277>
LayerCount: 2
Fore
SplineSet
622 719 m 1,0,1
 671 685 671 685 671 653 c 0,2,3
 671 634 671 634 648 600 c 2,4,-1
 432 277 l 1,5,-1
 432 86 l 2,6,7
 432 63 432 63 430.5 51.5 c 128,-1,8
 429 40 429 40 421 25 c 128,-1,9
 413 10 413 10 394 4 c 128,-1,10
 375 -2 375 -2 343 -2 c 128,-1,11
 311 -2 311 -2 292 4 c 128,-1,12
 273 10 273 10 265 25.5 c 128,-1,13
 257 41 257 41 255.5 52.5 c 128,-1,14
 254 64 254 64 254 88 c 2,15,-1
 254 277 l 1,16,-1
 38 600 l 2,17,18
 15 634 15 634 15 653 c 0,19,20
 15 685 15 685 59 714.5 c 128,-1,21
 103 744 103 744 122 744 c 128,-1,22
 141 744 141 744 152.5 736 c 0,23,24
 168.813953488 724.651162791 168.813953488 724.651162791 188 695 c 2,25,-1
 343 447 l 1,26,-1
 498 695 l 2,27,28
 517.186046512 724.651162791 517.186046512 724.651162791 531.093023256 734.325581395 c 128,-1,29
 545 744 545 744 563.5 744 c 128,-1,30
 582 744 582 744 622 719 c 1,0,1
EndSplineSet
EndChar

StartChar: Z
Encoding: 90 90 55
Width: 643
Flags: MW
HStem: -2 173<97.5 531 282 529> 560 174<114 117 117 347>
LayerCount: 2
Fore
SplineSet
531 171 m 2,0,1
 569.533333333 171 569.533333333 171 587.266666667 161.5 c 128,-1,2
 605 152 605 152 611.5 134 c 128,-1,3
 618 116 618 116 618 88 c 128,-1,4
 618 60 618 60 613 43 c 128,-1,5
 608 26 608 26 601 17 c 128,-1,6
 594 8 594 8 580.5 3.5 c 0,7,8
 564 -2 564 -2 529 -2 c 2,9,-1
 113 -2 l 2,10,11
 90 -2 90 -2 69 10 c 0,12,13
 25 35.1428571429 25 35.1428571429 25 89 c 0,14,15
 25 115 25 115 37 131 c 2,16,-1
 347 560 l 1,17,-1
 117 560 l 2,18,19
 93 560 93 560 81.5 561.5 c 128,-1,20
 70 563 70 563 54 570.5 c 0,21,22
 25 584.09375 25 584.09375 25 645 c 0,23,24
 25 708.6 25 708.6 52 723 c 0,25,26
 67 731 67 731 78.5 732.5 c 128,-1,27
 90 734 90 734 114 734 c 2,28,-1
 516 734 l 2,29,30
 539 734 539 734 560 722 c 128,-1,31
 581 710 581 710 592.5 690 c 128,-1,32
 604 670 604 670 604 643 c 128,-1,33
 604 616 604 616 592 600 c 2,34,-1
 282 171 l 1,35,-1
 531 171 l 2,0,1
EndSplineSet
EndChar

StartChar: one
Encoding: 49 49 57
Width: 407
Flags: MW
HStem: -2 21G<234.5 322.5> 714 20G<262 323>
VStem: 190 177<88 445 445 445>
LayerCount: 2
Fore
SplineSet
218 708 m 1,0,1
 244 734 244 734 274.5 734 c 128,-1,2
 305 734 305 734 322 729 c 128,-1,3
 339 724 339 724 348 717.5 c 128,-1,4
 357 711 357 711 361.5 696.5 c 0,5,6
 367 678.777777778 367 678.777777778 367 643 c 2,7,-1
 367 86 l 2,8,9
 367 63 367 63 365.5 51.5 c 128,-1,10
 364 40 364 40 356 25 c 0,11,12
 341.6 -2 341.6 -2 278 -2 c 0,13,14
 215.620689655 -2 215.620689655 -2 201 24.5 c 0,15,16
 193 39 193 39 191.5 51.5 c 128,-1,17
 190 64 190 64 190 88 c 2,18,-1
 190 445 l 1,19,-1
 177 433 l 1,20,21
 136 402 136 402 107 402 c 128,-1,22
 78 402 78 402 46.5 437 c 128,-1,23
 15 472 15 472 15 499 c 128,-1,24
 15 526 15 526 51 558 c 2,25,-1
 215 706 l 1,26,-1
 218 708 l 1,0,1
EndSplineSet
Substitution2: "'sups' Superscript in Latin lookup 1 subtable" onesuperior
EndChar

StartChar: two
Encoding: 50 50 58
Width: 609
Flags: MW
HStem: -2 178<323 504> 567 177<250.5 338>
VStem: 25 177<451 468 468 474 445 539.5> 387 178<404 486>
LayerCount: 2
Fore
SplineSet
506 176 m 2,0,1
 546.533333333 176 546.533333333 176 564.266666667 166.5 c 128,-1,2
 582 157 582 157 588 137.5 c 128,-1,3
 594 118 594 118 594 86.5 c 128,-1,4
 594 55 594 55 587.5 36 c 128,-1,5
 581 17 581 17 566.5 9.5 c 0,6,7
 544.266666667 -2 544.266666667 -2 504 -2 c 2,8,-1
 113 -2 l 2,9,10
 77 -2 77 -2 51 25 c 128,-1,11
 25 52 25 52 25 88 c 0,12,13
 25 142 25 142 62.5 187.5 c 128,-1,14
 100 233 100 233 153 265.5 c 128,-1,15
 206 298 206 298 259 329.5 c 128,-1,16
 312 361 312 361 349.5 401 c 128,-1,17
 387 441 387 441 387 486 c 0,18,19
 387 495.333333333 387 495.333333333 380 511.666666667 c 128,-1,20
 373 528 373 528 364.5 538.5 c 128,-1,21
 356 549 356 549 338 558 c 128,-1,22
 320 567 320 567 288 567 c 128,-1,23
 256 567 256 567 232.5 543.5 c 128,-1,24
 209 520 209 520 205.5 497 c 2,25,-1
 202 474 l 1,26,-1
 202 468 l 2,27,28
 202 446 202 446 200.5 435 c 128,-1,29
 199 424 199 424 191 410.5 c 0,30,31
 176.481481481 386 176.481481481 386 113 386 c 0,32,33
 43 386 43 386 30.5 423.5 c 0,34,35
 25 440 25 440 25 475 c 0,36,37
 25 579 25 579 99.5 661.5 c 128,-1,38
 174 744 174 744 294.5 744 c 128,-1,39
 415 744 415 744 490 660.5 c 128,-1,40
 565 577 565 577 565 470 c 0,41,42
 565 413 565 413 540 362 c 128,-1,43
 515 311 515 311 479.5 279.5 c 0,44,45
 405.832369942 214.132947977 405.832369942 214.132947977 348 191 c 2,46,-1
 323 181 l 1,47,-1
 323 176 l 1,48,-1
 506 176 l 2,0,1
EndSplineSet
Substitution2: "'sups' Superscript in Latin lookup 1 subtable" twosuperior
EndChar

StartChar: three
Encoding: 51 51 59
Width: 608
Flags: MW
HStem: -13 173<262 342 262 382> 298 177<290 340.5 152.5 345> 573 171<275.5 340>
VStem: 390 177<503 525.5> 406 177<215.5 246>
LayerCount: 2
Fore
SplineSet
496 674 m 128,-1,1
 567 604 567 604 567 516.5 c 128,-1,2
 567 429 567 429 489 390 c 1,3,-1
 489 383 l 1,4,5
 499.260869565 377.869565217 499.260869565 377.869565217 518.630434783 361.434782609 c 128,-1,6
 538 345 538 345 550.5 329 c 0,7,8
 583 287.4 583 287.4 583 233 c 0,9,10
 583 126 583 126 503 56.5 c 128,-1,11
 423 -13 423 -13 302 -13 c 0,12,13
 181.710526316 -13 181.710526316 -13 102.5 57 c 0,14,15
 71.9848275862 83.9668965517 71.9848275862 83.9668965517 49 128.5 c 0,16,17
 41 144 41 144 38.5 154 c 2,18,-1
 36 164 l 1,19,20
 25 197 25 197 25 218 c 0,21,22
 25 276 25 276 123 276 c 0,23,24
 163 276 163 276 176 266 c 0,25,26
 192.586206897 253.24137931 192.586206897 253.24137931 205.5 214.5 c 0,27,28
 216.415841584 181.752475248 216.415841584 181.752475248 261 166.5 c 0,29,30
 280 160 280 160 303 160 c 0,31,32
 356 160 356 160 381 181.5 c 128,-1,33
 406 203 406 203 406 230 c 128,-1,34
 406 257 406 257 381.5 277.5 c 128,-1,35
 357 298 357 298 323.5 298 c 128,-1,36
 290 298 290 298 278 300 c 128,-1,37
 266 302 266 302 251.5 309.5 c 0,38,39
 225 323.206896552 225 323.206896552 225 387 c 0,40,41
 225 457 225 457 262.5 469.5 c 0,42,43
 279 475 279 475 314 475 c 0,44,45
 390 475 390 475 390 514 c 0,46,47
 390 535 390 535 370 554 c 128,-1,48
 350 573 350 573 314.5 573 c 128,-1,49
 279 573 279 573 258 561 c 128,-1,50
 237 549 237 549 231.5 537 c 2,51,-1
 226 525 l 2,52,53
 203 475 203 475 160 475 c 0,54,55
 135 475 135 475 105 493 c 0,56,57
 55 522 55 522 55 560 c 0,58,59
 55 576.25 55 576.25 78 628 c 0,60,61
 82 637 82 637 100 659.5 c 128,-1,62
 118 682 118 682 141.5 699 c 128,-1,63
 165 716 165 716 207.5 730 c 128,-1,64
 250 744 250 744 302 744 c 0,65,0
 425 744 425 744 496 674 c 128,-1,1
EndSplineSet
Substitution2: "'sups' Superscript in Latin lookup 1 subtable" threesuperior
EndChar

StartChar: four
Encoding: 52 52 60
Width: 592
Flags: MW
HStem: 1 21G<418 506.5> 212 165<59 374 211 374 211 374> 717 20G<142 171>
VStem: 374 178<90 212 212 212 377 645>
LayerCount: 2
Fore
SplineSet
412.5 728.5 m 128,-1,1
 432 734 432 734 463.5 734 c 128,-1,2
 495 734 495 734 514 727.5 c 128,-1,3
 533 721 533 721 541 706.5 c 128,-1,4
 549 692 549 692 550.5 680 c 128,-1,5
 552 668 552 668 552 645 c 2,6,-1
 552 89 l 2,7,8
 552 49.7333333333 552 49.7333333333 542.5 31.3666666667 c 128,-1,9
 533 13 533 13 513.5 7 c 128,-1,10
 494 1 494 1 465 1 c 128,-1,11
 436 1 436 1 419 6 c 128,-1,12
 402 11 402 11 393 18 c 128,-1,13
 384 25 384 25 379.5 38.5 c 0,14,15
 374 55 374 55 374 90 c 2,16,-1
 374 212 l 1,17,-1
 103 212 l 2,18,19
 33 212 33 212 20.5 249.5 c 0,20,21
 15 266 15 266 15 293 c 128,-1,22
 15 320 15 320 18 333 c 2,23,-1
 101 668 l 2,24,25
 107 691 107 691 111.5 703 c 128,-1,26
 116 715 116 715 129.5 726 c 128,-1,27
 143 737 143 737 164 737 c 128,-1,28
 185 737 185 737 210 730 c 0,29,30
 280 711 280 711 280 666 c 0,31,32
 280 650 280 650 273 624 c 0,33,34
 272 622 272 622 272 621 c 2,35,-1
 211 377 l 1,36,-1
 374 377 l 1,37,-1
 374 650 l 2,38,39
 374 673 374 673 375.5 684 c 128,-1,40
 377 695 377 695 385 709 c 128,-1,0
 393 723 393 723 412.5 728.5 c 128,-1,1
EndSplineSet
EndChar

StartChar: five
Encoding: 53 53 61
Width: 530
Flags: MW
HStem: -14 178<221 271.5 221 325.5> 308 177<252 268> 559 175<364 408 233 426> 715 20G<115.5 159.5>
VStem: 327 178<213.5 260>
LayerCount: 2
Fore
SplineSet
156 735 m 2,0,-1
 308.5 734 l 1,1,-1
 402 734 l 2,2,3
 426 734 426 734 437 732.5 c 128,-1,4
 448 731 448 731 463 723 c 0,5,6
 490 708.6 490 708.6 490 643 c 0,7,8
 490 582.892857143 490 582.892857143 465 569.5 c 0,9,10
 451 562 451 562 440.5 560.5 c 128,-1,11
 430 559 430 559 408 559 c 2,12,-1
 233 559 l 1,13,14
 231 547 231 547 223 483 c 1,15,16
 234 485 234 485 258 485 c 0,17,18
 353 485 353 485 429 413.5 c 128,-1,19
 505 342 505 342 505 238.5 c 128,-1,20
 505 135 505 135 433 60.5 c 128,-1,21
 361 -14 361 -14 254 -14 c 0,22,23
 161.272727273 -14 161.272727273 -14 86.5 33 c 0,24,25
 69 44 69 44 61 51.5 c 2,26,-1
 53 59 l 1,27,28
 15 92 15 92 15 119 c 128,-1,29
 15 146 15 146 52 184 c 1,30,31
 82 217 82 217 110 217 c 128,-1,32
 138 217 138 217 177 185 c 1,33,34
 195 164 195 164 239.5 164 c 128,-1,35
 284 164 284 164 305.5 183 c 128,-1,36
 327 202 327 202 327 235.5 c 128,-1,37
 327 269 327 269 303.5 288.5 c 128,-1,38
 280 308 280 308 250 308 c 128,-1,39
 220 308 220 308 202 290 c 1,40,41
 175 267 175 267 147.5 267 c 128,-1,42
 120 267 120 267 84.5 286 c 128,-1,43
 49 305 49 305 38 316.5 c 128,-1,44
 27 328 27 328 27 340.846153846 c 128,-1,45
 27 353.692307692 27 353.692307692 47 501.846153846 c 128,-1,46
 67 650 67 650 68 656 c 128,-1,47
 69 662 69 662 75 677 c 128,-1,48
 81 692 81 692 89.5 704 c 128,-1,49
 98 716 98 716 115.5 725.5 c 128,-1,50
 133 735 133 735 156 735 c 2,0,-1
EndSplineSet
EndChar

StartChar: six
Encoding: 54 54 62
Width: 560
Flags: MW
HStem: -13 164<248.5 315.5 248.5 355.5> 281 156<276.5 316> 556 177<341.5 450>
VStem: 25 182<205 234 205 408.5> 360 175<201.5 230.5>
LayerCount: 2
Fore
SplineSet
535 224 m 0,0,1
 535 123 535 123 462.5 55 c 128,-1,2
 390 -13 390 -13 287 -13 c 0,3,4
 157 -13 157 -13 91 70.5 c 128,-1,5
 25 154 25 154 25 286 c 0,6,7
 25 477 25 477 133.5 605 c 128,-1,8
 242 733 242 733 430 733 c 0,9,10
 467.533333333 733 467.533333333 733 485.266666667 723.5 c 128,-1,11
 503 714 503 714 509 695 c 128,-1,12
 515 676 515 676 515 647 c 128,-1,13
 515 618 515 618 510 601 c 128,-1,14
 505 584 505 584 498 575 c 128,-1,15
 491 566 491 566 477.5 561.5 c 0,16,17
 461 556 461 556 420 556 c 128,-1,18
 379 556 379 556 340.5 542 c 128,-1,19
 302 528 302 528 280.5 508 c 0,20,21
 235.971563981 466.578199052 235.971563981 466.578199052 225.5 434 c 2,22,-1
 221 420 l 1,23,24
 258 437 258 437 295 437 c 0,25,26
 394 437 394 437 464.5 371.5 c 128,-1,27
 535 306 535 306 535 224 c 0,0,1
283 151 m 0,28,29
 360 151 360 151 360 218 c 0,30,31
 360 241 360 241 342.5 261 c 128,-1,32
 325 281 325 281 286.5 281 c 128,-1,33
 248 281 248 281 227.5 262.5 c 128,-1,34
 207 244 207 244 207 225 c 128,-1,35
 207 206 207 206 209.5 196 c 128,-1,36
 212 186 212 186 219 174.5 c 0,37,38
 233.304347826 151 233.304347826 151 283 151 c 0,28,29
EndSplineSet
EndChar

StartChar: seven
Encoding: 55 55 63
Width: 561
Flags: MW
HStem: 0 21G<163.5 250> 555 177<98 103 103 331>
VStem: 119 177<51 162 50 192.5> 331 215<530.5 667>
LayerCount: 2
Fore
SplineSet
458 732 m 2,0,1
 528 732 528 732 540.5 694.5 c 0,2,3
 546 678 546 678 546 638 c 128,-1,4
 546 598 546 598 520 538.5 c 128,-1,5
 494 479 494 479 457.5 421 c 128,-1,6
 421 363 421 363 384.5 304 c 0,7,8
 296 160.945205479 296 160.945205479 296 74 c 0,9,10
 296 52 296 52 294 41.5 c 128,-1,11
 292 31 292 31 284 19.5 c 128,-1,12
 276 8 276 8 257.5 4 c 128,-1,13
 239 0 239 0 207 0 c 128,-1,14
 175 0 175 0 156.5 4 c 128,-1,15
 138 8 138 8 130 20 c 128,-1,16
 122 32 122 32 120.5 42.5 c 128,-1,17
 119 53 119 53 119 76 c 0,18,19
 119 141 119 141 141 209.5 c 128,-1,20
 163 278 163 278 194 332 c 128,-1,21
 225 386 225 386 256 431.5 c 128,-1,22
 287 477 287 477 309 509.5 c 128,-1,23
 331 542 331 542 331 555 c 1,24,-1
 103 555 l 2,25,26
 63.25 555 63.25 555 45.125 565 c 128,-1,27
 27 575 27 575 21 594 c 128,-1,28
 15 613 15 613 15 644 c 128,-1,29
 15 675 15 675 21 694 c 128,-1,30
 27 713 27 713 40.5 720.5 c 0,31,32
 61.2 732 61.2 732 98 732 c 2,33,-1
 458 732 l 2,0,1
EndSplineSet
EndChar

StartChar: eight
Encoding: 56 56 64
Width: 582
Flags: MW
HStem: -14 169<259.5 324 259.5 355> 306 161<269 316.5 269 323.5> 578 170<266.5 315>
VStem: 25 177<215.5 247.5 215.5 282.5> 47 178<512 535 512 589.5> 358 177<512.5 534.5> 380 177<215.5 245>
LayerCount: 2
Fore
SplineSet
557 235 m 0,0,1
 557 123 557 123 475.5 54.5 c 128,-1,2
 394 -14 394 -14 291 -14 c 128,-1,3
 188 -14 188 -14 106.5 54 c 128,-1,4
 25 122 25 122 25 235 c 0,5,6
 25 277 25 277 45.5 316.5 c 128,-1,7
 66 356 66 356 86.5 374.5 c 2,8,-1
 107 393 l 1,9,10
 100 399 100 399 90 409 c 128,-1,11
 80 419 80 419 63.5 452.5 c 128,-1,12
 47 486 47 486 47 522 c 0,13,14
 47 620 47 620 121 684 c 128,-1,15
 195 748 195 748 293 748 c 128,-1,16
 391 748 391 748 463 683 c 128,-1,17
 535 618 535 618 535 517 c 0,18,19
 535 487 535 487 520.5 456 c 128,-1,20
 506 425 506 425 491 409 c 2,21,-1
 476 393 l 1,22,23
 485 386 485 386 498.5 372.5 c 128,-1,24
 512 359 512 359 534.5 318 c 128,-1,25
 557 277 557 277 557 235 c 0,0,1
341 560.5 m 128,-1,27
 324 578 324 578 290.5 578 c 128,-1,28
 257 578 257 578 241 561 c 128,-1,29
 225 544 225 544 225 523.5 c 128,-1,30
 225 503 225 503 242.5 485 c 128,-1,31
 260 467 260 467 292.5 467 c 128,-1,32
 325 467 325 467 341.5 485 c 128,-1,33
 358 503 358 503 358 523 c 128,-1,26
 358 543 358 543 341 560.5 c 128,-1,27
292 155 m 128,-1,35
 336 155 336 155 358 179 c 128,-1,36
 380 203 380 203 380 230.5 c 128,-1,37
 380 258 380 258 357.5 282 c 128,-1,38
 335 306 335 306 291.5 306 c 128,-1,39
 248 306 248 306 225 282.5 c 128,-1,40
 202 259 202 259 202 231 c 128,-1,41
 202 203 202 203 225 179 c 128,-1,34
 248 155 248 155 292 155 c 128,-1,35
EndSplineSet
EndChar

StartChar: nine
Encoding: 57 57 65
Width: 560
Flags: MW
HStem: -1 177<109.5 126 126 132> 295 156<244 282.5> 581 164<243.5 310.5>
VStem: 25 174<501.5 530.5 501.5 575.5> 353 182<498 527>
LayerCount: 2
Fore
SplineSet
25 508 m 0,0,1
 25 609 25 609 97 677 c 128,-1,2
 169 745 169 745 272 745 c 0,3,4
 403 745 403 745 469 661.5 c 128,-1,5
 535 578 535 578 535 446 c 0,6,7
 535 255 535 255 427 127 c 128,-1,8
 319 -1 319 -1 132 -1 c 2,9,-1
 126 -1 l 2,10,11
 88.5 -1 88.5 -1 72.25 9 c 0,12,13
 44 26.3846153846 44 26.3846153846 44 88 c 0,14,15
 44 158.285714286 44 158.285714286 82 170.5 c 0,16,17
 99.1111111111 176 99.1111111111 176 140.055555556 176 c 128,-1,18
 181 176 181 176 219.5 190 c 128,-1,19
 258 204 258 204 279 224 c 0,20,21
 322.298969072 265.237113402 322.298969072 265.237113402 334 298 c 2,22,-1
 339 312 l 1,23,24
 301 295 301 295 264 295 c 0,25,26
 166 295 166 295 95.5 360.5 c 128,-1,27
 25 426 25 426 25 508 c 0,0,1
276 581 m 0,28,29
 199 581 199 581 199 514 c 0,30,31
 199 491 199 491 216.5 471 c 128,-1,32
 234 451 234 451 273 451 c 128,-1,33
 312 451 312 451 332.5 469.5 c 128,-1,34
 353 488 353 488 353 506.5 c 128,-1,35
 353 525 353 525 350.5 535.5 c 128,-1,36
 348 546 348 546 340.5 557.5 c 0,37,38
 325.173913043 581 325.173913043 581 276 581 c 0,28,29
EndSplineSet
EndChar

StartChar: zero
Encoding: 48 48 66
Width: 608
Flags: MW
HStem: -14 178<255.5 353.5 255.5 423> 567 177<254.5 352>
VStem: 25 177<334.5 394 334.5 430> 406 177<360 366 366 395.5>
LayerCount: 2
Fore
SplineSet
182.5 716.5 m 128,-1,1
 235 744 235 744 304 744 c 128,-1,2
 373 744 373 744 424.5 717 c 128,-1,3
 476 690 476 690 505.5 650 c 128,-1,4
 535 610 535 610 553 556 c 0,5,6
 583 466 583 466 583 365 c 0,7,8
 583 183.74137931 583 183.74137931 505 77.5 c 0,9,10
 476 38 476 38 424.5 12 c 128,-1,11
 373 -14 373 -14 305 -14 c 128,-1,12
 237 -14 237 -14 184.5 12.5 c 128,-1,13
 132 39 132 39 102.5 78 c 128,-1,14
 73 117 73 117 54.5 171 c 0,15,16
 25 257.108108108 25 257.108108108 25 366 c 0,17,18
 25 465.694444444 25 465.694444444 48.5 536.847222222 c 128,-1,19
 72 608 72 608 101 648.5 c 128,-1,0
 130 689 130 689 182.5 716.5 c 128,-1,1
303 164 m 0,20,21
 406 164 406 164 406 360 c 2,22,-1
 406 366 l 2,23,24
 406 567 406 567 304 567 c 128,-1,25
 202 567 202 567 202 365.5 c 128,-1,26
 202 164 202 164 303 164 c 0,20,21
EndSplineSet
EndChar

StartChar: asterisk
Encoding: 42 42 67
Width: 503
Flags: MW
HStem: 284 21G<163.5 181> 724 20G<211.5 292>
VStem: 171 162<616 663 616 668 616 689>
LayerCount: 2
Fore
SplineSet
480 579 m 0,0,1
 488 552 488 552 488 535.5 c 128,-1,2
 488 519 488 519 478 506 c 128,-1,3
 468 493 468 493 457 488 c 128,-1,4
 446 483 446 483 424 475 c 1,5,-1
 382 462 l 1,6,-1
 415 416 l 1,7,-1
 423 404 l 1,8,9
 436 382 436 382 436 371 c 0,10,11
 436 342 436 342 397 314 c 128,-1,12
 358 286 358 286 341 286 c 128,-1,13
 324 286 324 286 313 293 c 0,14,15
 297.875 302.625 297.875 302.625 281 327 c 2,16,-1
 252 367 l 1,17,-1
 215 317 l 1,18,19
 193 284 193 284 170.5 284 c 128,-1,20
 148 284 148 284 107.5 313 c 128,-1,21
 67 342 67 342 67 370 c 0,22,23
 67 387 67 387 88 416 c 2,24,-1
 121 462 l 1,25,-1
 79 475 l 1,26,27
 43 482 43 482 25 504.5 c 0,28,29
 15 517 15 517 15 535 c 128,-1,30
 15 553 15 553 22 575 c 0,31,32
 44 641 44 641 80 641 c 0,33,34
 94 641 94 641 107 636.5 c 128,-1,35
 120 632 120 632 120.5 631.5 c 2,36,-1
 171 616 l 1,37,-1
 171 668 l 2,38,39
 171 702.428571429 171 702.428571429 179.5 718.214285714 c 128,-1,40
 188 734 188 734 205.5 739 c 128,-1,41
 223 744 223 744 252 744 c 128,-1,42
 281 744 281 744 298.5 738.5 c 128,-1,43
 316 733 316 733 323 720 c 0,44,45
 333 701.428571429 333 701.428571429 333 663 c 2,46,-1
 333 616 l 1,47,-1
 382 632 l 2,48,49
 414 642 414 642 424 642 c 0,50,51
 459 642 459 642 480 579 c 0,0,1
EndSplineSet
EndChar

StartChar: quotedblright
Encoding: 8221 8221 68
Width: 482
Flags: MW
HStem: 387 21G<44 92 288 336> 713 20G<72.5 137.5 317 382>
VStem: 25 187<631.5 638 638 654 631.5 665>
LayerCount: 2
Fore
SplineSet
310 726.5 m 128,-1,1
 330 733 330 733 374 733 c 128,-1,2
 418 733 418 733 437.5 713.5 c 128,-1,3
 457 694 457 694 457 638 c 0,4,5
 457 525.461538462 457 525.461538462 402.5 450 c 0,6,7
 357 387 357 387 288 387 c 0,8,9
 281.052631579 387 281.052631579 387 275.526315789 397.5 c 128,-1,10
 270 408 270 408 270 425 c 128,-1,11
 270 442 270 442 274.5 451.5 c 128,-1,12
 279 461 279 461 284.5 462.5 c 128,-1,13
 290 464 290 464 293 464.5 c 128,-1,14
 296 465 296 465 304 469.5 c 128,-1,15
 312 474 312 474 318 482 c 0,16,17
 334.107692308 503.476923077 334.107692308 503.476923077 336 547 c 1,18,19
 304 551 304 551 287 567 c 1,20,21
 269 586 269 586 269.5 625.5 c 128,-1,22
 270 665 270 665 271.5 676.5 c 128,-1,23
 273 688 273 688 281.5 704 c 128,-1,0
 290 720 290 720 310 726.5 c 128,-1,1
195 712 m 1,24,25
 212 695 212 695 212 654 c 2,26,-1
 212 638 l 2,27,28
 212 613 212 613 210 601 c 1,29,30
 203 513 203 513 158 450 c 128,-1,31
 113 387 113 387 44 387 c 0,32,33
 37.0526315789 387 37.0526315789 387 31.5263157895 397.5 c 128,-1,34
 26 408 26 408 26 425 c 128,-1,35
 26 442 26 442 30.5 451.5 c 128,-1,36
 35 461 35 461 40.5 462.5 c 128,-1,37
 46 464 46 464 49 464.5 c 128,-1,38
 52 465 52 465 60 469.5 c 128,-1,39
 68 474 68 474 74 482 c 0,40,41
 90.1076923077 503.476923077 90.1076923077 503.476923077 92 547 c 1,42,43
 58 552 58 552 41.5 569 c 128,-1,44
 25 586 25 586 25 641 c 0,45,46
 25 681.25 25 681.25 35 700.625 c 128,-1,47
 45 720 45 720 65.5 726.5 c 128,-1,48
 86 733 86 733 129 733 c 128,-1,49
 172 733 172 733 195 712 c 1,24,25
EndSplineSet
EndChar

StartChar: quotedblleft
Encoding: 8220 8220 69
Width: 482
Flags: MW
HStem: 387 21G<100 165 344 409> 713 20G<145 193 390 438>
VStem: 25 186 269 187
LayerCount: 2
Fore
SplineSet
195 553 m 128,-1,1
 212 536 212 536 212 495 c 2,2,-1
 212 480 l 2,3,4
 212 456 212 456 210.5 444 c 128,-1,5
 209 432 209 432 201 416.5 c 0,6,7
 185.774193548 387 185.774193548 387 124.887096774 387 c 128,-1,8
 64 387 64 387 44.5 407 c 128,-1,9
 25 427 25 427 25 483 c 0,10,11
 25 508 25 508 27 520 c 1,12,13
 34 608 34 608 79 670.5 c 128,-1,14
 124 733 124 733 193 733 c 0,15,16
 199.947368421 733 199.947368421 733 205.473684211 722.5 c 128,-1,17
 211 712 211 712 211 695.5 c 128,-1,18
 211 679 211 679 206.5 669 c 128,-1,19
 202 659 202 659 196.5 657.5 c 128,-1,20
 191 656 191 656 188 655.5 c 128,-1,21
 185 655 185 655 177.5 650.5 c 128,-1,22
 170 646 170 646 163.5 638 c 0,23,24
 146.939929329 617.618374558 146.939929329 617.618374558 145 573 c 1,25,0
 178 570 178 570 195 553 c 128,-1,1
389 573 m 1,26,27
 422 570 422 570 439.5 552.5 c 128,-1,28
 457 535 457 535 457 480 c 0,29,30
 457 420.842105263 457 420.842105263 435.5 405 c 0,31,32
 411.071428571 387 411.071428571 387 359.535714286 387 c 128,-1,33
 308 387 308 387 288.5 407 c 128,-1,34
 269 427 269 427 269 483 c 0,35,36
 269 508 269 508 271 520 c 1,37,38
 278 608 278 608 323.5 670.5 c 128,-1,39
 369 733 369 733 438 733 c 0,40,41
 444.947368421 733 444.947368421 733 450.473684211 722.5 c 128,-1,42
 456 712 456 712 456 695.5 c 128,-1,43
 456 679 456 679 451.5 669 c 128,-1,44
 447 659 447 659 441.5 657.5 c 128,-1,45
 436 656 436 656 433 655.5 c 128,-1,46
 430 655 430 655 422 650.5 c 128,-1,47
 414 646 414 646 407.5 638 c 0,48,49
 390.939929329 617.618374558 390.939929329 617.618374558 389 573 c 1,26,27
EndSplineSet
EndChar

StartChar: quoteright
Encoding: 8217 8217 70
Width: 237
Flags: MW
HStem: 387 21G<44 92> 713 20G<72.5 137.5>
VStem: 25 187<631.5 638 638 654 631.5 665>
LayerCount: 2
Fore
SplineSet
195 712 m 1,0,1
 212 695 212 695 212 654 c 2,2,-1
 212 638 l 2,3,4
 212 613 212 613 210 601 c 1,5,6
 203 513 203 513 158 450 c 128,-1,7
 113 387 113 387 44 387 c 0,8,9
 37.0526315789 387 37.0526315789 387 31.5263157895 397.5 c 128,-1,10
 26 408 26 408 26 425 c 128,-1,11
 26 442 26 442 30.5 451.5 c 128,-1,12
 35 461 35 461 40.5 462.5 c 128,-1,13
 46 464 46 464 49 464.5 c 128,-1,14
 52 465 52 465 60 469.5 c 128,-1,15
 68 474 68 474 74 482 c 0,16,17
 90.1076923077 503.476923077 90.1076923077 503.476923077 92 547 c 1,18,19
 58 552 58 552 41.5 569 c 128,-1,20
 25 586 25 586 25 641 c 0,21,22
 25 681.25 25 681.25 35 700.625 c 128,-1,23
 45 720 45 720 65.5 726.5 c 128,-1,24
 86 733 86 733 129 733 c 128,-1,25
 172 733 172 733 195 712 c 1,0,1
EndSplineSet
EndChar

StartChar: quoteleft
Encoding: 8216 8216 71
Width: 237
Flags: MW
HStem: 387 21G<100 165> 713 20G<145 193>
VStem: 25 186
LayerCount: 2
Fore
SplineSet
195 553 m 128,-1,1
 212 536 212 536 212 495 c 2,2,-1
 212 480 l 2,3,4
 212 456 212 456 210.5 444 c 128,-1,5
 209 432 209 432 201 416.5 c 0,6,7
 185.774193548 387 185.774193548 387 124.887096774 387 c 128,-1,8
 64 387 64 387 44.5 407 c 128,-1,9
 25 427 25 427 25 483 c 0,10,11
 25 508 25 508 27 520 c 1,12,13
 34 608 34 608 79 670.5 c 128,-1,14
 124 733 124 733 193 733 c 0,15,16
 199.947368421 733 199.947368421 733 205.473684211 722.5 c 128,-1,17
 211 712 211 712 211 695.5 c 128,-1,18
 211 679 211 679 206.5 669 c 128,-1,19
 202 659 202 659 196.5 657.5 c 128,-1,20
 191 656 191 656 188 655.5 c 128,-1,21
 185 655 185 655 177.5 650.5 c 128,-1,22
 170 646 170 646 163.5 638 c 0,23,24
 146.939929329 617.618374558 146.939929329 617.618374558 145 573 c 1,25,0
 178 570 178 570 195 553 c 128,-1,1
EndSplineSet
EndChar

StartChar: quotedbl
Encoding: 34 34 72
Width: 429
Flags: MW
HStem: 381 21G<77 130 298 351> 713 20G<64.5 143.5 286 365>
VStem: 25 158<599.5 660.5 599.5 660.5> 246 158<599.5 660.5 599.5 660.5>
LayerCount: 2
Fore
SplineSet
161 472 m 128,-1,1
 139 381 139 381 103.5 381 c 128,-1,2
 68 381 68 381 46.5 472 c 128,-1,3
 25 563 25 563 25 635 c 0,4,5
 25 697.5625 25 697.5625 42 713.5 c 0,6,7
 62.8 733 62.8 733 97.4 733 c 128,-1,8
 132 733 132 733 149.5 725.5 c 128,-1,9
 167 718 167 718 173.5 701.5 c 0,10,11
 183 677.384615385 183 677.384615385 183 620.192307692 c 128,-1,0
 183 563 183 563 161 472 c 128,-1,1
382 472 m 128,-1,13
 360 381 360 381 324.5 381 c 128,-1,14
 289 381 289 381 267.5 472 c 128,-1,15
 246 563 246 563 246 635 c 0,16,17
 246 712 246 712 280 726 c 0,18,19
 297 733 297 733 325.5 733 c 128,-1,20
 354 733 354 733 371 725.5 c 128,-1,21
 388 718 388 718 394.5 701.5 c 0,22,23
 404 677.384615385 404 677.384615385 404 620.192307692 c 128,-1,12
 404 563 404 563 382 472 c 128,-1,13
EndSplineSet
EndChar

StartChar: questiondown
Encoding: 191 191 73
Width: 511
Flags: MW
HStem: -222 160<233 297 233 352.5> 343 187<241.5 279 214 306.5>
VStem: 25 157<-13.5 55 -13.5 81.5> 167 171
LayerCount: 2
Fore
SplineSet
430 29 m 0,0,1
 496 3 496 3 496 -30 c 0,2,3
 496 -50 496 -50 491 -60 c 128,-1,4
 486 -70 486 -70 485 -73.5 c 128,-1,5
 484 -77 484 -77 480 -87.5 c 128,-1,6
 476 -98 476 -98 458.5 -124 c 128,-1,7
 441 -150 441 -150 418.5 -169.5 c 128,-1,8
 396 -189 396 -189 355 -205.5 c 128,-1,9
 314 -222 314 -222 264 -222 c 0,10,11
 158 -222 158 -222 91.5 -154 c 128,-1,12
 25 -86 25 -86 25 4 c 0,13,14
 25 47 25 47 40.5 83.5 c 128,-1,15
 56 120 56 120 78 141 c 0,16,17
 121.731051345 182.743276284 121.731051345 182.743276284 160.5 196.5 c 2,18,-1
 176 202 l 1,19,20
 176 220 176 220 177.5 228.5 c 128,-1,21
 179 237 179 237 186.5 247.5 c 128,-1,22
 194 258 194 258 211.5 262.5 c 128,-1,23
 229 267 229 267 258 267 c 128,-1,24
 287 267 287 267 304 262.5 c 128,-1,25
 321 258 321 258 328 246 c 0,26,27
 338 228.857142857 338 228.857142857 338 194 c 2,28,-1
 338 186 l 2,29,30
 338 143 338 143 313.5 118 c 128,-1,31
 289 93 289 93 260 84.5 c 128,-1,32
 231 76 231 76 206.5 57.5 c 128,-1,33
 182 39 182 39 182 6.5 c 128,-1,34
 182 -26 182 -26 200.5 -44 c 128,-1,35
 219 -62 219 -62 256 -62 c 128,-1,36
 293 -62 293 -62 310.5 -50 c 128,-1,37
 328 -38 328 -38 331.5 -26.5 c 2,38,-1
 335 -15 l 2,39,40
 343 10 343 10 355 24 c 128,-1,41
 367 38 367 38 386.5 38 c 128,-1,42
 406 38 406 38 430 29 c 0,0,1
313.5 350 m 128,-1,44
 293 343 293 343 249.5 343 c 128,-1,45
 206 343 206 343 186.5 362 c 128,-1,46
 167 381 167 381 167 422 c 2,47,-1
 167 438 l 2,48,49
 167 462 167 462 168.5 473.5 c 128,-1,50
 170 485 170 485 178.5 501 c 0,51,52
 193.90625 530 193.90625 530 254.453125 530 c 128,-1,53
 315 530 315 530 334.5 510 c 128,-1,54
 354 490 354 490 354 435 c 0,55,56
 354 395.75 354 395.75 344 376.375 c 128,-1,43
 334 357 334 357 313.5 350 c 128,-1,44
EndSplineSet
EndChar

StartChar: ellipsis
Encoding: 8230 8230 74
Width: 911
Flags: MW
HStem: -1 187<100 137.5 72.5 165 436.5 474 773 811>
VStem: 25 187<80.5 91 91 107 67.5 118> 362 187<79 94 94 105.5 67.5 118> 698 188<91 94>
LayerCount: 2
Fore
SplineSet
195 165 m 1,0,1
 212 148 212 148 212 107 c 2,2,-1
 212 91 l 2,3,4
 212 68 212 68 210.5 56 c 128,-1,5
 209 44 209 44 201 28.5 c 0,6,7
 185.774193548 -1 185.774193548 -1 124.887096774 -1 c 128,-1,8
 64 -1 64 -1 44.5 19 c 128,-1,9
 25 39 25 39 25 94 c 0,10,11
 25 134.25 25 134.25 35 153.625 c 128,-1,12
 45 173 45 173 65.5 179.5 c 128,-1,13
 86 186 86 186 129 186 c 128,-1,14
 172 186 172 186 195 165 c 1,0,1
402 179.5 m 128,-1,16
 422 186 422 186 466 186 c 128,-1,17
 510 186 510 186 529.5 166.5 c 128,-1,18
 549 147 549 147 549 91 c 0,19,20
 549 51.75 549 51.75 539 32.375 c 128,-1,21
 529 13 529 13 508.5 6 c 128,-1,22
 488 -1 488 -1 444.5 -1 c 128,-1,23
 401 -1 401 -1 381.5 18.5 c 128,-1,24
 362 38 362 38 362 79 c 2,25,-1
 362 94 l 2,26,27
 362 118 362 118 363.5 129.5 c 128,-1,28
 365 141 365 141 373.5 157 c 128,-1,15
 382 173 382 173 402 179.5 c 128,-1,16
739 179.5 m 128,-1,30
 759 186 759 186 803 186 c 128,-1,31
 847 186 847 186 866.5 166.5 c 128,-1,32
 886 147 886 147 886 91 c 0,33,34
 886 32.8421052632 886 32.8421052632 864.5 17 c 0,35,36
 840.071428571 -1 840.071428571 -1 788.535714286 -1 c 128,-1,37
 737 -1 737 -1 717.5 19 c 128,-1,38
 698 39 698 39 698 94 c 1,39,40
 699 118 699 118 700.5 129.5 c 128,-1,41
 702 141 702 141 710.5 157 c 128,-1,29
 719 173 719 173 739 179.5 c 128,-1,30
EndSplineSet
EndChar

StartChar: comma
Encoding: 44 44 75
Width: 238
Flags: MW
HStem: -159 21G<44 87.5> 166 20G<73 138>
LayerCount: 2
Fore
SplineSet
66 179.5 m 128,-1,1
 86 186 86 186 130 186 c 128,-1,2
 174 186 174 186 193.5 166.5 c 128,-1,3
 213 147 213 147 213 91 c 0,4,5
 213 70 213 70 210 52 c 1,6,7
 201 -33 201 -33 154 -96 c 128,-1,8
 107 -159 107 -159 44 -159 c 0,9,10
 37.0526315789 -159 37.0526315789 -159 31.5263157895 -148.5 c 128,-1,11
 26 -138 26 -138 26 -121.5 c 128,-1,12
 26 -105 26 -105 30.5 -95 c 128,-1,13
 35 -85 35 -85 42 -82.5 c 128,-1,14
 49 -80 49 -80 56.5 -74.5 c 128,-1,15
 64 -69 64 -69 77 -48 c 128,-1,16
 90 -27 90 -27 92 0 c 1,17,18
 60 4 60 4 42.5 21.5 c 128,-1,19
 25 39 25 39 25.5 78.5 c 128,-1,20
 26 118 26 118 27.5 129.5 c 128,-1,21
 29 141 29 141 37.5 157 c 128,-1,0
 46 173 46 173 66 179.5 c 128,-1,1
EndSplineSet
EndChar

StartChar: semicolon
Encoding: 59 59 76
Width: 237
Flags: MW
HStem: -160 21G<44 87.5> 318 187<100 137.5 72 165>
VStem: 25 187<90 91 91 94 94 95 84 117.5 409 410 410 413 413 414>
LayerCount: 2
Fore
SplineSet
195 484 m 1,0,1
 212 466 212 466 212 414 c 2,2,-1
 212 410 l 2,3,4
 212 386 212 386 210.5 374.5 c 128,-1,5
 209 363 209 363 200.5 347 c 0,6,7
 185.09375 318 185.09375 318 124.546875 318 c 128,-1,8
 64 318 64 318 44.5 337 c 128,-1,9
 25 356 25 356 25 409 c 2,10,-1
 25 413 l 2,11,12
 25 436 25 436 26.5 448 c 128,-1,13
 28 460 28 460 36 475.5 c 0,14,15
 51.2258064516 505 51.2258064516 505 111.612903226 505 c 128,-1,16
 172 505 172 505 195 484 c 1,0,1
195 165 m 1,17,18
 212 148 212 148 212 95 c 2,19,-1
 212 91 l 2,20,21
 212 -19.2553191489 212 -19.2553191489 154 -97 c 0,22,23
 107 -160 107 -160 44 -160 c 0,24,25
 37.0526315789 -160 37.0526315789 -160 31.5263157895 -149.5 c 128,-1,26
 26 -139 26 -139 26 -122 c 128,-1,27
 26 -105 26 -105 30.5 -95.5 c 128,-1,28
 35 -86 35 -86 42 -83.5 c 128,-1,29
 49 -81 49 -81 56 -75.5 c 128,-1,30
 63 -70 63 -70 76.5 -48.5 c 128,-1,31
 90 -27 90 -27 92 0 c 1,32,33
 59 4 59 4 42 20.5 c 128,-1,34
 25 37 25 37 25 90 c 2,35,-1
 25 94 l 2,36,37
 25 117 25 117 26.5 129 c 128,-1,38
 28 141 28 141 36 156.5 c 0,39,40
 51.2258064516 186 51.2258064516 186 111.612903226 186 c 128,-1,41
 172 186 172 186 195 165 c 1,17,18
EndSplineSet
EndChar

StartChar: period
Encoding: 46 46 77
Width: 237
Flags: MW
HStem: -1 187<100 137.5 72 165>
VStem: 25 187<90 91 91 94 94 95 67 117.5>
LayerCount: 2
Fore
SplineSet
195 165 m 1,0,1
 212 148 212 148 212 95 c 2,2,-1
 212 91 l 2,3,4
 212 67 212 67 210.5 55.5 c 128,-1,5
 209 44 209 44 200.5 28 c 0,6,7
 185.09375 -1 185.09375 -1 124.546875 -1 c 128,-1,8
 64 -1 64 -1 44.5 18 c 128,-1,9
 25 37 25 37 25 90 c 2,10,-1
 25 94 l 2,11,12
 25 117 25 117 26.5 129 c 128,-1,13
 28 141 28 141 36 156.5 c 0,14,15
 51.2258064516 186 51.2258064516 186 111.612903226 186 c 128,-1,16
 172 186 172 186 195 165 c 1,0,1
EndSplineSet
EndChar

StartChar: colon
Encoding: 58 58 78
Width: 238
Flags: MW
HStem: -1 187<100 138 73 165> 318 187<100 138 73 165>
VStem: 25 188<91 94 410 413>
LayerCount: 2
Fore
SplineSet
193.5 485 m 128,-1,1
 213 465 213 465 213 410 c 1,2,3
 212 386 212 386 210.5 374.5 c 128,-1,4
 209 363 209 363 200.5 347 c 0,5,6
 185.09375 318 185.09375 318 124.546875 318 c 128,-1,7
 64 318 64 318 44.5 337.5 c 128,-1,8
 25 357 25 357 25 413 c 0,9,10
 25 471.157894737 25 471.157894737 46.5 487 c 0,11,12
 70.9285714286 505 70.9285714286 505 122.464285714 505 c 128,-1,0
 174 505 174 505 193.5 485 c 128,-1,1
193.5 166.5 m 128,-1,14
 213 147 213 147 213 91 c 1,15,16
 212 67 212 67 210.5 55.5 c 128,-1,17
 209 44 209 44 200.5 28 c 0,18,19
 185.09375 -1 185.09375 -1 124.546875 -1 c 128,-1,20
 64 -1 64 -1 44.5 18.5 c 128,-1,21
 25 38 25 38 25 94 c 0,22,23
 25 152.157894737 25 152.157894737 46.5 168 c 0,24,25
 70.9285714286 186 70.9285714286 186 122.464285714 186 c 128,-1,13
 174 186 174 186 193.5 166.5 c 128,-1,14
EndSplineSet
EndChar

StartChar: braceleft
Encoding: 123 123 79
Width: 381
Flags: MW
HStem: -226 143<292.5 312.5 292.5 312.5> 629 144<290 294>
VStem: 131 143<39 174.5> 131 235<-190 84.5>
LayerCount: 2
Fore
SplineSet
130 -28.5 m 1,0,-1
 131 65 l 2,1,2
 131 129 131 129 129 153 c 1,3,4
 129 201 129 201 69 201 c 2,5,-1
 63 201 l 2,6,7
 28.6451612903 201 28.6451612903 201 19.5 232.5 c 0,8,9
 15 248 15 248 15 273 c 128,-1,10
 15 298 15 298 19.5 314 c 128,-1,11
 24 330 24 330 32.5 336 c 0,12,13
 45.25 345 45.25 345 62 345 c 2,14,-1
 66 345 l 2,15,16
 129 345 129 345 129 394 c 0,17,18
 130 577 130 577 130 598 c 0,19,20
 130 675 130 675 176.5 724 c 128,-1,21
 223 773 223 773 293 773 c 0,22,23
 326 773 326 773 341 765.5 c 128,-1,24
 356 758 356 758 361 742.5 c 128,-1,25
 366 727 366 727 366 702 c 128,-1,26
 366 677 366 677 361 661.5 c 128,-1,27
 356 646 356 646 344 639.5 c 0,28,29
 324.615384615 629 324.615384615 629 294 629 c 0,30,31
 274 629 274 629 274 590 c 2,32,-1
 274 420 l 2,33,34
 274 376 274 376 259 339 c 128,-1,35
 244 302 244 302 229.5 287 c 2,36,-1
 215 272 l 1,37,38
 220.655172414 269.172413793 220.655172414 269.172413793 233.327586207 254.086206897 c 128,-1,39
 246 239 246 239 253.5 222.5 c 0,40,41
 274 177.4 274 177.4 273.5 96.2 c 128,-1,42
 273 15 273 15 273 -33 c 2,43,-1
 273 -57 l 2,44,45
 273 -69 273 -69 278.5 -75.5 c 0,46,47
 284.846153846 -83 284.846153846 -83 298.423076923 -83 c 128,-1,48
 312 -83 312 -83 321.5 -84.5 c 128,-1,49
 331 -86 331 -86 343.5 -92 c 0,50,51
 366 -102.8 366 -102.8 366 -154 c 0,52,53
 366 -205.5 366 -205.5 343 -217 c 0,54,55
 325 -226 325 -226 294 -226 c 0,56,57
 224 -226 224 -226 177 -176 c 128,-1,58
 130 -126 130 -126 130 -47 c 2,59,-1
 130 -28.5 l 1,0,-1
EndSplineSet
EndChar

StartChar: braceright
Encoding: 125 125 80
Width: 381
Flags: MW
HStem: -226 21G<67.5 132> 629 144<86 90.5>
VStem: 15 235<-190 -44.5> 106 144
LayerCount: 2
Fore
SplineSet
249 65 m 2,0,-1
 250 -28.5 l 1,1,-1
 250 -47 l 2,2,3
 250 -126 250 -126 203 -176 c 128,-1,4
 156 -226 156 -226 86 -226 c 0,5,6
 29.8387096774 -226 29.8387096774 -226 20 -195.5 c 0,7,8
 15 -180 15 -180 15 -154 c 128,-1,9
 15 -128 15 -128 20 -113 c 128,-1,10
 25 -98 25 -98 37 -92 c 0,11,12
 55 -83 55 -83 72.5 -83 c 128,-1,13
 90 -83 90 -83 93 -82.5 c 128,-1,14
 96 -82 96 -82 101.5 -75.5 c 128,-1,15
 107 -69 107 -69 107 -57 c 2,16,-1
 107 -33 l 1,17,-1
 106 113 l 2,18,19
 106 168 106 168 121 207.5 c 128,-1,20
 136 247 136 247 151 259.5 c 2,21,-1
 166 272 l 1,22,23
 159 278 159 278 149 289 c 128,-1,24
 139 300 139 300 122.5 338 c 128,-1,25
 106 376 106 376 106 420 c 2,26,-1
 107 590 l 2,27,28
 107 622.571428571 107 622.571428571 95.5 627.5 c 0,29,30
 92 629 92 629 79.5 629 c 128,-1,31
 67 629 67 629 57.5 631 c 128,-1,32
 48 633 48 633 36.5 639.5 c 128,-1,33
 25 646 25 646 20 661.5 c 128,-1,34
 15 677 15 677 15 702 c 128,-1,35
 15 727 15 727 20 742.5 c 128,-1,36
 25 758 25 758 36.5 764 c 0,37,38
 53.75 773 53.75 773 87 773 c 0,39,40
 157 773 157 773 203.5 724 c 128,-1,41
 250 675 250 675 250 598 c 2,42,-1
 251 394 l 2,43,44
 251 345 251 345 314 345 c 2,45,-1
 318 345 l 2,46,47
 352.78125 345 352.78125 345 361.5 314 c 0,48,49
 366 298 366 298 366 269.5 c 128,-1,50
 366 241 366 241 357 223.5 c 128,-1,51
 348 206 348 206 339 203.5 c 128,-1,52
 330 201 330 201 317 201 c 2,53,-1
 311 201 l 2,54,55
 251 201 251 201 251 153 c 1,56,57
 249 129 249 129 249 65 c 2,0,-1
EndSplineSet
EndChar

StartChar: parenleft
Encoding: 40 40 81
Width: 384
Flags: MW
HStem: -228 129<278 321.5> 646 129<280.5 304 304 310>
VStem: 30 150<164.5 376>
LayerCount: 2
Fore
SplineSet
262.5 -76.5 m 128,-1,1
 284 -99 284 -99 303 -99 c 128,-1,2
 322 -99 322 -99 330.5 -100 c 128,-1,3
 339 -101 339 -101 349.5 -107 c 128,-1,4
 360 -113 360 -113 364.5 -127 c 128,-1,5
 369 -141 369 -141 369 -164 c 128,-1,6
 369 -187 369 -187 364.5 -200.5 c 128,-1,7
 360 -214 360 -214 349 -219.5 c 0,8,9
 332 -228 332 -228 304 -228 c 0,10,11
 236 -228 236 -228 181.5 -180.5 c 128,-1,12
 127 -133 127 -133 95 -57.5 c 0,13,14
 30 95.859375 30 95.859375 30 272 c 0,15,16
 30 446.73015873 30 446.73015873 92.5 600.5 c 0,17,18
 124 678 124 678 179 726.5 c 128,-1,19
 234 775 234 775 305 775 c 0,20,21
 335 775 335 775 347.5 767.5 c 0,22,23
 369 754.6 369 754.6 369 710 c 0,24,25
 369 663.4 369 663.4 351 653.5 c 0,26,27
 337.363636364 646 337.363636364 646 310 646 c 2,28,-1
 304 646 l 2,29,30
 264.860465116 646 264.860465116 646 224.5 557 c 0,31,32
 205 514 205 514 192.5 439.5 c 128,-1,33
 180 365 180 365 180 273 c 128,-1,34
 180 181 180 181 192 107 c 128,-1,35
 204 33 204 33 222.5 -10.5 c 128,-1,0
 241 -54 241 -54 262.5 -76.5 c 128,-1,1
EndSplineSet
EndChar

StartChar: parenright
Encoding: 41 41 82
Width: 384
Flags: MW
HStem: -228 129<62.5 106 61 175.5> 646 129<61.5 74 74 80>
VStem: 204 150<164.5 376 164.5 402.5>
LayerCount: 2
Fore
SplineSet
53.5 -100 m 128,-1,1
 62 -99 62 -99 81 -99 c 128,-1,2
 100 -99 100 -99 121.5 -76.5 c 128,-1,3
 143 -54 143 -54 161.5 -10.5 c 0,4,5
 204 89.4324324324 204 89.4324324324 204 274 c 0,6,7
 204 365 204 365 191.5 439.5 c 128,-1,8
 179 514 179 514 159.5 557 c 0,9,10
 119.139534884 646 119.139534884 646 80 646 c 2,11,-1
 74 646 l 2,12,13
 46.6363636364 646 46.6363636364 646 34.8181818182 652.5 c 0,14,15
 15 663.4 15 663.4 15 707.7 c 128,-1,16
 15 752 15 752 31 763.5 c 128,-1,17
 47 775 47 775 79 775 c 0,18,19
 150 775 150 775 205 726.5 c 128,-1,20
 260 678 260 678 291.5 600.5 c 0,21,22
 354 446.73015873 354 446.73015873 354 272 c 0,23,24
 354 95.859375 354 95.859375 289 -57.5 c 0,25,26
 257 -133 257 -133 202.5 -180.5 c 128,-1,27
 148 -228 148 -228 80 -228 c 0,28,29
 28.6666666667 -228 28.6666666667 -228 19.5 -200.5 c 0,30,31
 15 -187 15 -187 15 -164 c 128,-1,32
 15 -141 15 -141 19.5 -127 c 128,-1,33
 24 -113 24 -113 34.5 -107 c 128,-1,0
 45 -101 45 -101 53.5 -100 c 128,-1,1
EndSplineSet
EndChar

StartChar: bracketright
Encoding: 93 93 83
Width: 348
Flags: MW
HStem: -226 144<72 73 73 146 72 227> 629 144<72 73 73 146>
VStem: 146 162<-82 629 629 629>
LayerCount: 2
Fore
SplineSet
226 773 m 2,0,1
 285.206896552 773 285.206896552 773 298 746.5 c 0,2,3
 308 725.785714286 308 725.785714286 308 687 c 2,4,-1
 308 -139 l 2,5,6
 308 -178.785714286 308 -178.785714286 299.5 -196.392857143 c 128,-1,7
 291 -214 291 -214 273.5 -220 c 128,-1,8
 256 -226 256 -226 227 -226 c 2,9,-1
 73 -226 l 2,10,11
 26.8709677419 -226 26.8709677419 -226 19 -195.5 c 0,12,13
 15 -180 15 -180 15 -154.5 c 128,-1,14
 15 -129 15 -129 19 -113 c 128,-1,15
 23 -97 23 -97 32.5 -91 c 0,16,17
 46.75 -82 46.75 -82 72 -82 c 2,18,-1
 146 -82 l 1,19,-1
 146 629 l 1,20,-1
 73 629 l 2,21,22
 26.8709677419 629 26.8709677419 629 19 659.5 c 0,23,24
 15 675 15 675 15 700.5 c 128,-1,25
 15 726 15 726 19 742 c 128,-1,26
 23 758 23 758 32.5 764 c 0,27,28
 46.75 773 46.75 773 72 773 c 2,29,-1
 226 773 l 2,0,1
EndSplineSet
EndChar

StartChar: bracketleft
Encoding: 91 91 84
Width: 348
Flags: MW
HStem: -226 144<80.5 276 202 275> 629 144<202 275 202 202>
VStem: 40 162<-82 -82 -82 629>
LayerCount: 2
Fore
SplineSet
202 -82 m 1,0,-1
 276 -82 l 2,1,2
 301.25 -82 301.25 -82 313.125 -89.5 c 0,3,4
 333 -102.052631579 333 -102.052631579 333 -155 c 0,5,6
 333 -206.2 333 -206.2 315 -217 c 0,7,8
 300 -226 300 -226 275 -226 c 2,9,-1
 121 -226 l 2,10,11
 62.7931034483 -226 62.7931034483 -226 50 -199.5 c 0,12,13
 40 -178.785714286 40 -178.785714286 40 -139 c 2,14,-1
 40 687 l 2,15,16
 40 725.785714286 40 725.785714286 48.5 743.392857143 c 128,-1,17
 57 761 57 761 75 767 c 128,-1,18
 93 773 93 773 122 773 c 2,19,-1
 276 773 l 2,20,21
 301.25 773 301.25 773 313.125 765.5 c 0,22,23
 333 752.947368421 333 752.947368421 333 700 c 0,24,25
 333 648.8 333 648.8 315 638 c 0,26,27
 300 629 300 629 275 629 c 2,28,-1
 202 629 l 1,29,-1
 202 -82 l 1,0,-1
EndSplineSet
EndChar

StartChar: bar
Encoding: 124 124 85
Width: 217
Flags: MW
HStem: -232 21G<74 142.5> 753 20G<74.5 143>
VStem: 40 137<-144 686>
LayerCount: 2
Fore
SplineSet
40 687 m 2,0,1
 40 755.4 40 755.4 69 767 c 0,2,3
 84 773 84 773 108.5 773 c 128,-1,4
 133 773 133 773 148 767 c 128,-1,5
 163 761 163 761 169 746.5 c 0,6,7
 177 727.166666667 177 727.166666667 177 686 c 2,8,-1
 177 -146 l 2,9,10
 177 -214.4 177 -214.4 148 -226 c 0,11,12
 133 -232 133 -232 108.5 -232 c 128,-1,13
 84 -232 84 -232 69 -226 c 128,-1,14
 54 -220 54 -220 48 -205 c 0,15,16
 40 -185 40 -185 40 -144 c 2,17,-1
 40 687 l 2,0,1
EndSplineSet
EndChar

StartChar: plus
Encoding: 43 43 86
Width: 527
Flags: MW
HStem: 1 21G 160 158 457 20G
VStem: 185 158<115 195 92.5 195 353 433>
LayerCount: 2
Fore
SplineSet
343 353 m 1,0,-1
 424 353 l 2,1,2
 459.428571429 353 459.428571429 353 475.214285714 344.5 c 128,-1,3
 491 336 491 336 496.5 319 c 128,-1,4
 502 302 502 302 502 273.5 c 128,-1,5
 502 245 502 245 497 228 c 128,-1,6
 492 211 492 211 480 204.5 c 0,7,8
 462.461538462 195 462.461538462 195 429 195 c 2,9,-1
 343 195 l 1,10,-1
 343 114 l 2,11,12
 343 78.5714285714 343 78.5714285714 334.5 62.7857142857 c 128,-1,13
 326 47 326 47 309 41.5 c 128,-1,14
 292 36 292 36 263.5 36 c 128,-1,15
 235 36 235 36 218 41.5 c 128,-1,16
 201 47 201 47 194.5 60 c 0,17,18
 185 79 185 79 185 115 c 2,19,-1
 185 195 l 1,20,-1
 98 195 l 2,21,22
 64.5384615385 195 64.5384615385 195 49.7692307692 203 c 128,-1,23
 35 211 35 211 30 228.5 c 128,-1,24
 25 246 25 246 25 274 c 128,-1,25
 25 302 25 302 30.5 319.5 c 128,-1,26
 36 337 36 337 49.5 343.5 c 0,27,28
 69.2307692308 353 69.2307692308 353 105 353 c 2,29,-1
 185 353 l 1,30,-1
 185 434 l 2,31,32
 185 469 185 469 193 485 c 128,-1,33
 201 501 201 501 218.5 506.5 c 128,-1,34
 236 512 236 512 264 512 c 128,-1,35
 292 512 292 512 309.5 506.5 c 128,-1,36
 327 501 327 501 333.5 488 c 0,37,38
 343 469 343 469 343 433 c 2,39,-1
 343 353 l 1,0,-1
EndSplineSet
EndChar

StartChar: hyphen
Encoding: 45 45 87
Width: 433
Flags: MW
HStem: 139 158<80 336 98 335>
LayerCount: 2
Fore
SplineSet
335 139 m 2,0,-1
 97 139 l 2,1,2
 40.8888888889 139 40.8888888889 139 30.5 173 c 0,3,4
 25 191 25 191 25 219 c 128,-1,5
 25 247 25 247 31 264 c 128,-1,6
 37 281 37 281 49.5 287.5 c 0,7,8
 67.7692307692 297 67.7692307692 297 98 297 c 2,9,-1
 336 297 l 2,10,11
 391.971428571 297 391.971428571 297 402.5 263.5 c 0,12,13
 408 246 408 246 408 218 c 128,-1,14
 408 190 408 190 402.5 172.5 c 128,-1,15
 397 155 397 155 385 148.5 c 0,16,17
 367.461538462 139 367.461538462 139 335 139 c 2,0,-1
EndSplineSet
EndChar

StartChar: at
Encoding: 64 64 88
Width: 908
Flags: MW
HStem: -130 125<406 422> 96 127<398 406.5> 350 128<409.5 601> 544 124<355.5 524.5>
VStem: 25 125<193 357 193 396.5> 468 124<96.5 111 96.5 112> 759 124<194 372>
LayerCount: 2
Fore
SplineSet
847.5 443.5 m 128,-1,1
 883 365 883 365 883 277.5 c 128,-1,2
 883 190 883 190 859 129.5 c 128,-1,3
 835 69 835 69 796.5 33 c 0,4,5
 717.361111111 -41 717.361111111 -41 622 -41 c 0,6,7
 556 -41 556 -41 512 -1 c 128,-1,8
 468 39 468 39 468 108 c 0,9,10
 468 116 468 116 470 132 c 1,11,12
 437 96 437 96 379 96 c 128,-1,13
 321 96 321 96 275.5 145.5 c 128,-1,14
 230 195 230 195 230 265 c 0,15,16
 230 353.655737705 230 353.655737705 296 415.327868852 c 128,-1,17
 362 477 362 477 423.5 477 c 128,-1,18
 485 477 485 477 509 437 c 1,19,20
 514 457 514 457 528.5 467.5 c 128,-1,21
 543 478 543 478 576.5 478 c 128,-1,22
 610 478 610 478 622.5 467.5 c 128,-1,23
 635 457 635 457 635 443.5 c 128,-1,24
 635 430 635 430 633 414 c 2,25,-1
 599 158 l 1,26,27
 592 117 592 117 592 105 c 128,-1,28
 592 93 592 93 599.5 88.5 c 128,-1,29
 607 84 607 84 623 84 c 128,-1,30
 639 84 639 84 654 88 c 128,-1,31
 669 92 669 92 688.5 104.5 c 128,-1,32
 708 117 708 117 723 137 c 0,33,34
 759 185 759 185 759 265 c 128,-1,35
 759 345 759 345 733 398 c 128,-1,36
 707 451 707 451 661.5 482 c 0,37,38
 570.5 544 570.5 544 440.75 544 c 128,-1,39
 311 544 311 544 230.5 470.5 c 128,-1,40
 150 397 150 397 150 271 c 128,-1,41
 150 145 150 145 212.5 70 c 128,-1,42
 275 -5 275 -5 406 -5 c 2,43,-1
 425 -5 l 2,44,45
 449 -5 449 -5 458.5 -16.5 c 128,-1,46
 468 -28 468 -28 468 -59 c 128,-1,47
 468 -90 468 -90 463.5 -103.5 c 128,-1,48
 459 -117 459 -117 448.5 -122.5 c 0,49,50
 434.181818182 -130 434.181818182 -130 405 -130 c 0,51,52
 229 -130 229 -130 127 -21.5 c 128,-1,53
 25 87 25 87 25 270 c 0,54,55
 25 392 25 392 83 484.5 c 128,-1,56
 141 577 141 577 233.5 622.5 c 128,-1,57
 326 668 326 668 427.5 668 c 128,-1,58
 529 668 529 668 608.5 643.5 c 128,-1,59
 688 619 688 619 750 570.5 c 128,-1,0
 812 522 812 522 847.5 443.5 c 128,-1,1
374 239.5 m 128,-1,61
 390 223 390 223 416 223 c 128,-1,62
 442 223 442 223 462.5 242.5 c 128,-1,63
 483 262 483 262 486 286 c 1,64,-1
 486 292 l 2,65,66
 486 315 486 315 471.5 332.5 c 128,-1,67
 457 350 457 350 429 350 c 128,-1,68
 401 350 401 350 381 330.5 c 128,-1,69
 361 311 361 311 358 286 c 1,70,-1
 358 279 l 2,71,60
 358 256 358 256 374 239.5 c 128,-1,61
EndSplineSet
EndChar

StartChar: numbersign
Encoding: 35 35 89
Width: 749
Flags: MW
HStem: 4 21G<150.5 213.5 442.5 505.5> 168 132<53.5 156 91 134 299 426 91 277 591 619> 410 131<93.5 196 131 174 131 318 339 466 631 659> 711 20G<255.5 323.5 547.5 615.5>
LayerCount: 2
Fore
SplineSet
631 541 m 1,0,-1
 682 541 l 2,1,2
 701 541 701 541 709.5 539.5 c 128,-1,3
 718 538 718 538 726 529 c 128,-1,4
 734 520 734 520 734 502.5 c 128,-1,5
 734 485 734 485 730.5 464.5 c 128,-1,6
 727 444 727 444 715 429 c 128,-1,7
 703 414 703 414 692 412 c 128,-1,8
 681 410 681 410 659 410 c 2,9,-1
 609 410 l 1,10,-1
 591 300 l 1,11,-1
 642 300 l 2,12,13
 661 300 661 300 669.5 298.5 c 128,-1,14
 678 297 678 297 686 288 c 128,-1,15
 694 279 694 279 694 261.5 c 128,-1,16
 694 244 694 244 691 227 c 128,-1,17
 688 210 688 210 681.5 196 c 128,-1,18
 675 182 675 182 663.5 176 c 0,19,20
 648.166666667 168 648.166666667 168 619 168 c 2,21,-1
 569 168 l 1,22,23
 559 106 559 106 557 91 c 2,24,-1
 555 80 l 2,25,26
 551 58 551 58 548.5 49 c 128,-1,27
 546 40 546 40 537.5 27 c 0,28,29
 522.461538462 4 522.461538462 4 464.230769231 4 c 128,-1,30
 406 4 406 4 406 41 c 0,31,32
 406 42 406 42 414 93 c 2,33,-1
 426 168 l 1,34,-1
 277 168 l 1,35,36
 267 106 267 106 265 91 c 2,37,-1
 263 80 l 2,38,39
 259 58 259 58 256.5 49 c 128,-1,40
 254 40 254 40 245.5 27 c 0,41,42
 230.461538462 4 230.461538462 4 172.230769231 4 c 128,-1,43
 114 4 114 4 114 41 c 0,44,45
 114 42 114 42 122 93 c 2,46,-1
 134 168 l 1,47,-1
 68 168 l 2,48,49
 25.7058823529 168 25.7058823529 168 18.5 185.5 c 0,50,51
 15 194 15 194 15 209.5 c 128,-1,52
 15 225 15 225 18.5 245.5 c 128,-1,53
 22 266 22 266 34.5 281 c 128,-1,54
 47 296 47 296 58 298 c 128,-1,55
 69 300 69 300 91 300 c 2,56,-1
 156 300 l 1,57,-1
 174 410 l 1,58,-1
 108 410 l 2,59,60
 65.1111111111 410 65.1111111111 410 58.5 427 c 0,61,62
 55 436 55 436 55 451 c 128,-1,63
 55 466 55 466 58.5 486.5 c 128,-1,64
 62 507 62 507 74.5 522 c 128,-1,65
 87 537 87 537 98 539 c 128,-1,66
 109 541 109 541 131 541 c 2,67,-1
 196 541 l 1,68,-1
 213 644 l 2,69,70
 214 650 214 650 215.5 663.5 c 128,-1,71
 217 677 217 677 218.5 682.5 c 128,-1,72
 220 688 220 688 223 698 c 128,-1,73
 226 708 226 708 231.5 712 c 128,-1,74
 237 716 237 716 245.5 721.5 c 0,75,76
 260.181818182 731 260.181818182 731 297 731 c 128,-1,77
 334 731 334 731 348.5 720.5 c 128,-1,78
 363 710 363 710 363 689 c 0,79,80
 363 686 363 686 358 654 c 2,81,-1
 339 541 l 1,82,-1
 488 541 l 1,83,-1
 505 644 l 2,84,85
 506 650 506 650 507.5 663.5 c 128,-1,86
 509 677 509 677 510.5 682.5 c 128,-1,87
 512 688 512 688 515 698 c 128,-1,88
 518 708 518 708 523.5 712 c 128,-1,89
 529 716 529 716 537.5 721.5 c 0,90,91
 552.181818182 731 552.181818182 731 589 731 c 128,-1,92
 626 731 626 731 640.5 720.5 c 128,-1,93
 655 710 655 710 655 689 c 0,94,95
 655 686 655 686 650 654 c 2,96,-1
 631 541 l 1,0,-1
448 300 m 1,97,-1
 466 410 l 1,98,-1
 318 410 l 1,99,-1
 299 300 l 1,100,-1
 448 300 l 1,97,-1
EndSplineSet
EndChar

StartChar: perthousand
Encoding: 8240 8240 90
Width: 1223
Flags: MW
HStem: -30 21G<235.5 245.5> -2 120<611.5 650 611.5 686.5 994 1032.5> 252 120<610.5 652 993 1034.5> 616 120<187.5 229> 764 20G<593 603.5>
VStem: 40 108<525 574 525 605> 268 109<525 574.5> 463 109<160 209 160 241> 692 108<160.5 210.5> 846 108<160 209 160 241> 1074 109<160.5 210.5>
LayerCount: 2
Fore
SplineSet
891 321 m 128,-1,1
 936 372 936 372 1016 372 c 128,-1,2
 1096 372 1096 372 1139.5 322 c 128,-1,3
 1183 272 1183 272 1183 183.5 c 128,-1,4
 1183 95 1183 95 1139.5 46.5 c 128,-1,5
 1096 -2 1096 -2 1017.5 -2 c 128,-1,6
 939 -2 939 -2 892.5 48.5 c 128,-1,7
 846 99 846 99 846 184.5 c 128,-1,0
 846 270 846 270 891 321 c 128,-1,1
1014 118 m 0,8,9
 1074 118 1074 118 1074 186 c 0,10,11
 1074 222 1074 222 1060 237 c 128,-1,12
 1046 252 1046 252 1014.5 252 c 128,-1,13
 983 252 983 252 968.5 236.5 c 128,-1,14
 954 221 954 221 954 184.5 c 128,-1,15
 954 148 954 148 968.5 133 c 128,-1,16
 983 118 983 118 1014 118 c 0,8,9
508 321 m 128,-1,18
 553 372 553 372 633.5 372 c 128,-1,19
 714 372 714 372 757 322 c 128,-1,20
 800 272 800 272 800 183.5 c 128,-1,21
 800 95 800 95 757 46.5 c 128,-1,22
 714 -2 714 -2 635 -2 c 128,-1,23
 556 -2 556 -2 509.5 48.5 c 128,-1,24
 463 99 463 99 463 184.5 c 128,-1,17
 463 270 463 270 508 321 c 128,-1,18
631 118 m 0,25,26
 692 118 692 118 692 186 c 0,27,28
 692 222 692 222 677.5 237 c 128,-1,29
 663 252 663 252 631.5 252 c 128,-1,30
 600 252 600 252 586 236.5 c 128,-1,31
 572 221 572 221 572 185 c 128,-1,32
 572 149 572 149 586.5 133.5 c 128,-1,33
 601 118 601 118 631 118 c 0,25,26
85 685 m 128,-1,35
 130 736 130 736 210 736 c 128,-1,36
 290 736 290 736 333.5 686 c 128,-1,37
 377 636 377 636 377 548 c 128,-1,38
 377 460 377 460 333.5 411.5 c 128,-1,39
 290 363 290 363 211.5 363 c 128,-1,40
 133 363 133 363 86.5 413 c 128,-1,41
 40 463 40 463 40 548.5 c 128,-1,34
 40 634 40 634 85 685 c 128,-1,35
208 483 m 0,42,43
 268 483 268 483 268 550 c 0,44,45
 268 586 268 586 254 601 c 128,-1,46
 240 616 240 616 208.5 616 c 128,-1,47
 177 616 177 616 162.5 600.5 c 128,-1,48
 148 585 148 585 148 549.5 c 128,-1,49
 148 514 148 514 163 498.5 c 128,-1,50
 178 483 178 483 208 483 c 0,42,43
573 761 m 2,51,52
 586 784 586 784 598.5 784 c 128,-1,53
 611 784 611 784 635 771 c 128,-1,54
 659 758 659 758 659 743 c 0,55,56
 659 736 659 736 652 724 c 2,57,-1
 265 -7 l 1,58,-1
 263 -10 l 1,59,60
 252 -30 252 -30 240 -30 c 128,-1,61
 228 -30 228 -30 204 -17.5 c 128,-1,62
 180 -5 180 -5 180 7 c 128,-1,63
 180 19 180 19 187 31 c 2,64,-1
 573 761 l 2,51,52
EndSplineSet
Ligature2: "'frac' Diagonal Fractions in Latin lookup 2 subtable" zero slash zero zero
EndChar

StartChar: percent
Encoding: 37 37 91
Width: 838
Flags: MW
HStem: -30 21G<239.5 249.5> -2 120<609.5 648 609.5 684.5> 252 120<608.5 650> 616 120<187.5 229> 764 20G<597 607.5>
VStem: 40 108<525 574 525 605> 268 109<525 574.5> 461 109<160 209 160 241> 690 108<160.5 210.5>
LayerCount: 2
Fore
SplineSet
506 321 m 128,-1,1
 551 372 551 372 631.5 372 c 128,-1,2
 712 372 712 372 755 322 c 128,-1,3
 798 272 798 272 798 183.5 c 128,-1,4
 798 95 798 95 755 46.5 c 128,-1,5
 712 -2 712 -2 633 -2 c 128,-1,6
 554 -2 554 -2 507.5 48.5 c 128,-1,7
 461 99 461 99 461 184.5 c 128,-1,0
 461 270 461 270 506 321 c 128,-1,1
629 118 m 0,8,9
 690 118 690 118 690 186 c 0,10,11
 690 222 690 222 675.5 237 c 128,-1,12
 661 252 661 252 629.5 252 c 128,-1,13
 598 252 598 252 584 236.5 c 128,-1,14
 570 221 570 221 570 185 c 128,-1,15
 570 149 570 149 584.5 133.5 c 128,-1,16
 599 118 599 118 629 118 c 0,8,9
85 685 m 128,-1,18
 130 736 130 736 210 736 c 128,-1,19
 290 736 290 736 333.5 686 c 128,-1,20
 377 636 377 636 377 548 c 128,-1,21
 377 460 377 460 333.5 411.5 c 128,-1,22
 290 363 290 363 211.5 363 c 128,-1,23
 133 363 133 363 86.5 413 c 128,-1,24
 40 463 40 463 40 548.5 c 128,-1,17
 40 634 40 634 85 685 c 128,-1,18
208 483 m 0,25,26
 268 483 268 483 268 550 c 0,27,28
 268 586 268 586 254 601 c 128,-1,29
 240 616 240 616 208.5 616 c 128,-1,30
 177 616 177 616 162.5 600.5 c 128,-1,31
 148 585 148 585 148 549.5 c 128,-1,32
 148 514 148 514 163 498.5 c 128,-1,33
 178 483 178 483 208 483 c 0,25,26
577 761 m 2,34,35
 590 784 590 784 602.5 784 c 128,-1,36
 615 784 615 784 639 771 c 128,-1,37
 663 758 663 758 663 743 c 0,38,39
 663 736 663 736 656 724 c 2,40,-1
 269 -7 l 1,41,-1
 267 -10 l 1,42,43
 256 -30 256 -30 244 -30 c 128,-1,44
 232 -30 232 -30 208 -17.5 c 128,-1,45
 184 -5 184 -5 184 7 c 128,-1,46
 184 19 184 19 191 31 c 2,47,-1
 577 761 l 2,34,35
EndSplineSet
Ligature2: "'frac' Diagonal Fractions in Latin lookup 2 subtable" zero slash zero
EndChar

StartChar: slash
Encoding: 47 47 92
Width: 526
Flags: MW
HStem: -56 21G<117 139> 762 20G<387 409>
LayerCount: 2
Fore
SplineSet
176 -8 m 2,0,1
 168 -25 168 -25 163.5 -33 c 128,-1,2
 159 -41 159 -41 148.5 -48.5 c 128,-1,3
 138 -56 138 -56 121 -56 c 128,-1,4
 104 -56 104 -56 71 -41 c 128,-1,5
 38 -26 38 -26 26.5 -14.5 c 128,-1,6
 15 -3 15 -3 15 11 c 128,-1,7
 15 25 15 25 27 61 c 1,8,-1
 349 734 l 2,9,10
 367.96 771.92 367.96 771.92 383 778.5 c 0,11,12
 391 782 391 782 406.5 782 c 128,-1,13
 422 782 422 782 457 766 c 0,14,15
 511 740 511 740 511 709 c 0,16,17
 511 696 511 696 497 659 c 1,18,-1
 176 -8 l 2,0,1
EndSplineSet
EndChar

StartChar: fraction
Encoding: 8260 8260 93
Width: 433
Flags: W
LayerCount: 2
Fore
SplineSet
445 777.5 m 128,-1,1
 449 782 449 782 455.315789474 782.263157895 c 128,-1,2
 461.631578947 782.526315789 461.631578947 782.526315789 467.789473684 782.526315789 c 128,-1,3
 473.947368421 782.526315789 473.947368421 782.526315789 497.015350877 770.472979323 c 128,-1,4
 520.083333333 758.419642857 520.083333333 758.419642857 520.083333333 744.209821429 c 128,-1,5
 520.083333333 730 520.083333333 730 510 719 c 1,6,-1
 126 -7 l 2,7,8
 120 -19 120 -19 115.5 -24 c 0,9,10
 102.733333333 -38.1851851852 102.733333333 -38.1851851852 70 -20 c 0,11,12
 40.8823529412 -4.47058823529 40.8823529412 -4.47058823529 40.8823529412 7.5276816609 c 0,13,14
 40.8823529412 16.7647058824 40.8823529412 16.7647058824 50 35 c 2,15,-1
 434 761 l 2,16,0
 441 773 441 773 445 777.5 c 128,-1,1
EndSplineSet
EndChar

StartChar: cent
Encoding: 162 162 94
Width: 434
Flags: MW
HStem: -81 21G<215 273> 647 20G<215 273>
VStem: 25 148<260.5 311.5 260.5 345.5> 186 116<-7 72 -28 74 -28 74 500 592>
LayerCount: 2
Fore
SplineSet
196.5 231.5 m 128,-1,1
 220 212 220 212 246.142857143 212 c 128,-1,2
 272.285714286 212 272.285714286 212 293.142857143 227 c 128,-1,3
 314 242 314 242 330 242 c 0,4,5
 355 242 355 242 390 199 c 0,6,7
 409 176 409 176 409 156 c 0,8,9
 409 125 409 125 364 98 c 1,10,11
 340 81 340 81 302 72 c 1,12,-1
 302 -8 l 2,13,14
 302 -42.2 302 -42.2 296 -56.6 c 128,-1,15
 290 -71 290 -71 277.5 -76 c 128,-1,16
 265 -81 265 -81 244 -81 c 128,-1,17
 223 -81 223 -81 210.5 -76 c 128,-1,18
 198 -71 198 -71 193 -58.5 c 0,19,20
 186 -41 186 -41 186 -7 c 2,21,-1
 186 74 l 1,22,23
 118 95 118 95 71.5 150 c 128,-1,24
 25 205 25 205 25 286.5 c 128,-1,25
 25 368 25 368 72 423 c 128,-1,26
 119 478 119 478 186 498 c 1,27,-1
 186 593 l 2,28,29
 186 652.2 186 652.2 210.5 662 c 0,30,31
 223 667 223 667 244 667 c 128,-1,32
 265 667 265 667 277.5 662 c 128,-1,33
 290 657 290 657 295 644.5 c 0,34,35
 302 627 302 627 302 592 c 2,36,-1
 302 500 l 1,37,38
 343.094488189 490.330708661 343.094488189 490.330708661 386.5 458.5 c 0,39,40
 408 442.733333333 408 442.733333333 408 421.366666667 c 128,-1,41
 408 400 408 400 391 373 c 0,42,43
 362 328 362 328 334 328 c 0,44,45
 318 328 318 328 291 346 c 1,46,47
 275 360 275 360 247.5 360 c 128,-1,48
 220 360 220 360 196.5 340.5 c 128,-1,49
 173 321 173 321 173 286 c 128,-1,0
 173 251 173 251 196.5 231.5 c 128,-1,1
EndSplineSet
EndChar

StartChar: dollar
Encoding: 36 36 95
Width: 475
Flags: MW
HStem: -81 21G<208 266> 755 20G<208.5 266.5>
VStem: 36 140<424.5 490 424.5 514> 179 117<-7 55 55 55 646 701> 308 142<225 281.5>
LayerCount: 2
Fore
SplineSet
450 243 m 0,0,1
 450 165 450 165 405 118 c 128,-1,2
 360 71 360 71 296 56 c 1,3,-1
 296 -8 l 2,4,5
 296 -42.6363636364 296 -42.6363636364 289.5 -56.8181818182 c 128,-1,6
 283 -71 283 -71 270.5 -76 c 128,-1,7
 258 -81 258 -81 237 -81 c 128,-1,8
 216 -81 216 -81 203.5 -76 c 128,-1,9
 191 -71 191 -71 186 -58.5 c 0,10,11
 179 -41 179 -41 179 -7 c 2,12,-1
 179 55 l 1,13,14
 138 64 138 64 105 85 c 128,-1,15
 72 106 72 106 59 122.5 c 2,16,-1
 46 139 l 2,17,18
 25 166 25 166 25 186 c 128,-1,19
 25 206 25 206 59 239 c 0,20,21
 79 258 79 258 101.5 258 c 128,-1,22
 124 258 124 258 164 218 c 1,23,24
 195 180 195 180 234 180 c 0,25,26
 308 180 308 180 308 241 c 0,27,28
 308 263 308 263 280 275 c 128,-1,29
 252 287 252 287 212 296.5 c 128,-1,30
 172 306 172 306 132 322 c 128,-1,31
 92 338 92 338 64 377 c 128,-1,32
 36 416 36 416 36 476 c 128,-1,33
 36 536 36 536 74 584 c 128,-1,34
 112 632 112 632 179 646 c 1,35,-1
 179 702 l 2,36,37
 179 736.2 179 736.2 185 750.6 c 0,38,39
 195.166666667 775 195.166666667 775 238 775 c 0,40,41
 265 775 265 775 278.5 763.5 c 128,-1,42
 292 752 292 752 294 739 c 128,-1,43
 296 726 296 726 296 701 c 2,44,-1
 296 645 l 1,45,46
 324 639 324 639 347 628 c 128,-1,47
 370 617 370 617 379 609.5 c 2,48,-1
 388 602 l 1,49,-1
 392 599 l 1,50,51
 417 576 417 576 417 561 c 128,-1,52
 417 546 417 546 393.5 511 c 128,-1,53
 370 476 370 476 342 476 c 0,54,55
 324 476 324 476 311.5 485 c 128,-1,56
 299 494 299 494 292 500 c 128,-1,57
 285 506 285 506 279 510 c 0,58,59
 262.5 521 262.5 521 236.25 521 c 128,-1,60
 210 521 210 521 193 508.5 c 128,-1,61
 176 496 176 496 176 474 c 128,-1,62
 176 452 176 452 196.5 438.5 c 128,-1,63
 217 425 217 425 247 420.5 c 128,-1,64
 277 416 277 416 313 405.5 c 128,-1,65
 349 395 349 395 379 381 c 128,-1,66
 409 367 409 367 429.5 331.5 c 128,-1,67
 450 296 450 296 450 243 c 0,0,1
EndSplineSet
EndChar

StartChar: backslash
Encoding: 92 92 96
Width: 528
Flags: MW
HStem: -56 21G<389 411> 762 20G<119 141>
LayerCount: 2
Fore
SplineSet
351 -8 m 2,0,-1
 28.5 665 l 2,1,2
 15 692 15 692 15 707 c 0,3,4
 15 739 15 739 71 766 c 0,5,6
 106 782 106 782 121.5 782 c 128,-1,7
 137 782 137 782 145 778.5 c 128,-1,8
 153 775 153 775 159.5 767 c 0,9,10
 167.3 757.4 167.3 757.4 179 734 c 2,11,-1
 499 66 l 1,12,13
 513 29 513 29 513 13.5 c 128,-1,14
 513 -2 513 -2 501 -14 c 128,-1,15
 489 -26 489 -26 456.5 -41 c 128,-1,16
 424 -56 424 -56 404 -56 c 128,-1,17
 384 -56 384 -56 373 -44.5 c 128,-1,18
 362 -33 362 -33 351 -8 c 2,0,-1
EndSplineSet
EndChar

StartChar: section
Encoding: 167 167 97
Width: 560
Flags: MW
HStem: -226 157<252.5 312.5 252.5 331.5> 611 157<256 300>
VStem: 38 168<261.5 301.5 261.5 310.5 527 575> 365 170<-15 38 -79 53 262 293.5>
LayerCount: 2
Fore
SplineSet
490 140 m 1,0,1
 535 92 535 92 535 7 c 0,2,3
 535 -54 535 -54 510 -101.5 c 128,-1,4
 485 -149 485 -149 445.5 -174.5 c 0,5,6
 365.725490196 -226 365.725490196 -226 279 -226 c 0,7,8
 189.0625 -226 189.0625 -226 128.5 -188 c 0,9,10
 77.7508196721 -156.157377049 77.7508196721 -156.157377049 58 -129 c 2,11,-1
 50 -118 l 1,12,13
 25 -87 25 -87 25 -67 c 0,14,15
 25 -36 25 -36 66 2 c 0,16,17
 90 25 90 25 116.5 25 c 128,-1,18
 143 25 143 25 183 -15 c 2,19,-1
 191 -23 l 1,20,21
 204.421487603 -39.7768595041 204.421487603 -39.7768595041 229.710743802 -54.3884297521 c 128,-1,22
 255 -69 255 -69 276 -69 c 0,23,24
 365 -69 365 -69 365 4 c 0,25,26
 365 39.0689655172 365 39.0689655172 300 57 c 0,27,28
 271 65 271 65 236.5 73.5 c 128,-1,29
 202 82 202 82 167 96.5 c 128,-1,30
 132 111 132 111 103 133 c 128,-1,31
 74 155 74 155 56 194.5 c 128,-1,32
 38 234 38 234 38 287 c 0,33,34
 38 364 38 364 87 420 c 1,35,36
 38 471 38 471 38 556.5 c 128,-1,37
 38 642 38 642 100.5 705 c 128,-1,38
 163 768 163 768 271 768 c 0,39,40
 328 768 328 768 375.5 753 c 128,-1,41
 423 738 423 738 441.5 723.5 c 2,42,-1
 465 705 l 1,43,44
 495 677 495 677 495 658.5 c 128,-1,45
 495 640 495 640 471 606 c 0,46,47
 438 557 438 557 404 557 c 0,48,49
 375.466666667 557 375.466666667 557 344 586.5 c 0,50,51
 317.866666667 611 317.866666667 611 270 611 c 0,52,53
 247 611 247 611 226.5 596.5 c 128,-1,54
 206 582 206 582 206 555.5 c 128,-1,55
 206 529 206 529 230.5 512.5 c 128,-1,56
 255 496 255 496 291.5 490.5 c 128,-1,57
 328 485 328 485 370.5 473 c 128,-1,58
 413 461 413 461 449.5 443.5 c 128,-1,59
 486 426 486 426 510.5 384 c 128,-1,60
 535 342 535 342 535 270 c 128,-1,61
 535 198 535 198 490 140 c 1,0,1
328 211 m 1,62,63
 365 228 365 228 365 275 c 0,64,65
 365 302.166666667 365 302.166666667 333 315.5 c 0,66,67
 299.459016393 329.475409836 299.459016393 329.475409836 260 339 c 1,68,69
 239 336 239 336 222.5 322 c 128,-1,70
 206 308 206 308 206 280.5 c 0,71,72
 206 228.428571429 206 228.428571429 328 211 c 1,62,63
EndSplineSet
EndChar

StartChar: degree
Encoding: 176 176 98
Width: 407
Flags: MW
HStem: 407 116<192 214 192 245> 652 116<191 216.5>
VStem: 25 115<563 610.5 563 641> 267 115<563.5 611.5>
LayerCount: 2
Fore
SplineSet
79.5 716.5 m 128,-1,1
 134 768 134 768 204 768 c 128,-1,2
 274 768 274 768 328 717 c 128,-1,3
 382 666 382 666 382 586 c 128,-1,4
 382 506 382 506 326.5 456.5 c 128,-1,5
 271 407 271 407 203.5 407 c 128,-1,6
 136 407 136 407 80.5 457.5 c 128,-1,7
 25 508 25 508 25 586.5 c 128,-1,0
 25 665 25 665 79.5 716.5 c 128,-1,1
203 523 m 128,-1,9
 225 523 225 523 246 539 c 128,-1,10
 267 555 267 555 267 587.5 c 128,-1,11
 267 620 267 620 247 636 c 128,-1,12
 227 652 227 652 204 652 c 128,-1,13
 181 652 181 652 160.5 635.5 c 128,-1,14
 140 619 140 619 140 587 c 128,-1,15
 140 555 140 555 160.5 539 c 128,-1,8
 181 523 181 523 203 523 c 128,-1,9
EndSplineSet
EndChar

StartChar: ampersand
Encoding: 38 38 99
Width: 748
Flags: MW
HStem: 3 135 636 133<305.5 336.5>
VStem: 25 135 133 125 315 128
LayerCount: 2
Fore
SplineSet
646 -1 m 0,0,1
 559 -1 559 -1 474 44 c 1,2,3
 379 -8 379 -8 282 -8 c 0,4,5
 25 -8 25 -8 25 206 c 0,6,7
 25 317 25 317 140 412 c 1,8,9
 100 501 100 501 100 573 c 0,10,11
 100 673 100 673 160 721 c 128,-1,12
 220 769 220 769 321 769 c 128,-1,13
 422 769 422 769 474 721 c 128,-1,14
 526 673 526 673 526 590 c 0,15,16
 526 519.517241379 526 519.517241379 469 463.5 c 0,17,18
 427.246498599 422.466386555 427.246498599 422.466386555 351 371 c 1,19,20
 410 293 410 293 479 239 c 1,21,22
 507 282 507 282 518 327 c 0,23,24
 528 371 528 371 608 371 c 0,25,26
 642 371 642 371 659.5 362 c 128,-1,27
 677 353 677 353 679.5 343.5 c 128,-1,28
 682 334 682 334 681 319 c 0,29,30
 677 243 677 243 619 168 c 1,31,32
 634 165 634 165 647 165 c 0,33,34
 725 165 725 165 725 86 c 0,35,36
 725 31 725 31 707 15 c 128,-1,37
 689 -1 689 -1 646 -1 c 0,0,1
258 585 m 0,38,39
 258 549 258 549 275 504 c 1,40,41
 322 534 322 534 345.5 554 c 128,-1,42
 369 574 369 574 369 592 c 0,43,44
 369 636 369 636 320 636 c 0,45,46
 258 636 258 636 258 585 c 0,38,39
289 140 m 0,47,48
 314 140 314 140 334 144 c 1,49,50
 276 196 276 196 224 268 c 1,51,52
 201 239 201 239 201 208 c 0,53,54
 201 140 201 140 289 140 c 0,47,48
EndSplineSet
EndChar

StartChar: underscore
Encoding: 95 95 100
Width: 826
Flags: MW
HStem: -228 138<59.5 750 77 749>
LayerCount: 2
Fore
SplineSet
76 -228 m 2,0,1
 28.2 -228 28.2 -228 19.5 -199 c 0,2,3
 15 -184 15 -184 15 -159 c 128,-1,4
 15 -134 15 -134 19.5 -119 c 128,-1,5
 24 -104 24 -104 34.5 -98.5 c 0,6,7
 50.7272727273 -90 50.7272727273 -90 77 -90 c 2,8,-1
 750 -90 l 2,9,10
 797.5 -90 797.5 -90 806.5 -120 c 0,11,12
 811 -135 811 -135 811 -159.5 c 128,-1,13
 811 -184 811 -184 806.5 -199 c 128,-1,14
 802 -214 802 -214 791.5 -220 c 0,15,16
 777.5 -228 777.5 -228 749 -228 c 2,17,-1
 76 -228 l 2,0,1
EndSplineSet
EndChar

StartChar: cedilla
Encoding: 184 184 101
Width: 559
Flags: MW
HStem: -72 102<212 282.5>
VStem: 284 88<-90 -72>
LayerCount: 2
Fore
SplineSet
260 30 m 0,0,1
 300 30 300 30 336 0.5 c 128,-1,2
 372 -29 372 -29 372 -81.5 c 128,-1,3
 372 -134 372 -134 333 -164 c 1,4,5
 302 -192 302 -192 264 -192 c 128,-1,6
 226 -192 226 -192 202.5 -176 c 128,-1,7
 179 -160 179 -160 176 -145 c 1,8,-1
 176 -141 l 2,9,10
 176 -126 176 -126 187 -114 c 0,11,12
 207 -90 207 -90 219.5 -90 c 128,-1,13
 232 -90 232 -90 247 -101 c 1,14,15
 251 -102 251 -102 254 -103 c 128,-1,16
 257 -104 257 -104 263 -104 c 128,-1,17
 269 -104 269 -104 276.5 -98.5 c 128,-1,18
 284 -93 284 -93 284 -81 c 128,-1,19
 284 -69 284 -69 276 -63 c 128,-1,20
 268 -57 268 -57 259.5 -57 c 128,-1,21
 251 -57 251 -57 246 -62 c 1,22,23
 230 -72 230 -72 217 -72 c 128,-1,24
 204 -72 204 -72 186 -47 c 1,25,26
 176 -30 176 -30 177.075757576 -18.5454545455 c 0,27,28
 179.560758627 7.91455665265 179.560758627 7.91455665265 210.480379314 18.9572783263 c 128,-1,29
 241.4 30 241.4 30 260 30 c 0,0,1
EndSplineSet
EndChar

StartChar: ccedilla
Encoding: 231 231 102
Width: 524
Flags: MW
HStem: -192 21G<268 297> -73 247<237 314.5> 356 182<280 316>
VStem: 25 183<233.5 297 233.5 357> 308 88<-90.5 -73>
LayerCount: 2
Fore
SplineSet
201 -21 m 1,0,1
 203.857142857 -3.85714285714 203.857142857 -3.85714285714 217 6 c 1,2,3
 136 32 136 32 80.5 99.5 c 128,-1,4
 25 167 25 167 25 267 c 0,5,6
 25 331 25 331 51 384.5 c 128,-1,7
 77 438 77 438 118.5 470.5 c 0,8,9
 204.692307692 538 204.692307692 538 299 538 c 0,10,11
 338 538 338 538 374 528 c 128,-1,12
 410 518 410 518 427 507.5 c 2,13,-1
 444 497 l 2,14,15
 463 485 463 485 472 478 c 0,16,17
 499 457 499 457 499 432 c 128,-1,18
 499 407 499 407 477 372 c 0,19,20
 441 317 441 317 407 317 c 0,21,22
 388 317 388 317 353 339 c 1,23,24
 334 356 334 356 300 356 c 128,-1,25
 266 356 266 356 237 332.5 c 128,-1,26
 208 309 208 309 208 265.5 c 128,-1,27
 208 222 208 222 236.5 198 c 128,-1,28
 265 174 265 174 297 174 c 128,-1,29
 329 174 329 174 356.5 192.5 c 128,-1,30
 384 211 384 211 401 211 c 0,31,32
 431 211 431 211 476 157 c 0,33,34
 499 128 499 128 499 104 c 0,35,36
 499 67 499 67 444 32 c 1,37,38
 412 10 412 10 361 -1 c 1,39,40
 396 -32 396 -32 396 -82.5 c 128,-1,41
 396 -133 396 -133 360.5 -162.5 c 128,-1,42
 325 -192 325 -192 284 -192 c 0,43,44
 256.857142857 -192 256.857142857 -192 242.928571429 -184.5 c 0,45,46
 204.340206186 -163.721649485 204.340206186 -163.721649485 202 -145 c 1,47,-1
 201 -140 l 1,48,49
 201 -128 201 -128 216.5 -109.5 c 128,-1,50
 232 -91 232 -91 243 -91 c 128,-1,51
 254 -91 254 -91 261 -95.5 c 128,-1,52
 268 -100 268 -100 272 -101 c 1,53,54
 276 -105 276 -105 284.5 -105 c 128,-1,55
 293 -105 293 -105 300.5 -99 c 128,-1,56
 308 -93 308 -93 308 -81.5 c 128,-1,57
 308 -70 308 -70 300.5 -64 c 128,-1,58
 293 -58 293 -58 284.5 -58 c 128,-1,59
 276 -58 276 -58 271 -63 c 1,60,61
 255 -73 255 -73 241.5 -73 c 128,-1,62
 228 -73 228 -73 214.5 -52 c 128,-1,63
 201 -31 201 -31 201 -21 c 1,0,1
EndSplineSet
EndChar

StartChar: Ccedilla
Encoding: 199 199 103
Width: 679
Flags: MW
HStem: -193 21G<374 402> 564 178<361.5 435>
VStem: 25 177<294.5 437.5 294.5 505.5> 413 85<-94.5 -77.5>
LayerCount: 2
Fore
SplineSet
309 -27 m 1,0,1
 312 -9 312 -9 327 0 c 1,2,3
 217.001669449 24.4440734558 217.001669449 24.4440734558 126 110.5 c 0,4,5
 80 154 80 154 52.5 222 c 128,-1,6
 25 290 25 290 25 369.5 c 128,-1,7
 25 449 25 449 51 513 c 128,-1,8
 77 577 77 577 117.5 618 c 128,-1,9
 158 659 158 659 210 688 c 0,10,11
 306.827586207 742 306.827586207 742 408 742 c 0,12,13
 455 742 455 742 503 727 c 128,-1,14
 551 712 551 712 576 697.5 c 2,15,-1
 601 683 l 1,16,17
 618 671 618 671 627.5 664 c 0,18,19
 654 644.473684211 654 644.473684211 654 617.736842105 c 128,-1,20
 654 591 654 591 633 562 c 0,21,22
 595 508 595 508 564 508 c 0,23,24
 547 508 547 508 512 530 c 1,25,26
 470 564 470 564 400 564 c 0,27,28
 334.886363636 564 334.886363636 564 272.5 519 c 0,29,30
 242 497 242 497 222 457 c 128,-1,31
 202 417 202 417 202 366.5 c 128,-1,32
 202 316 202 316 222 275.5 c 128,-1,33
 242 235 242 235 273.5 212.5 c 0,34,35
 335.8 168 335.8 168 400 168 c 0,36,37
 431 168 431 168 458.5 176 c 128,-1,38
 486 184 486 184 498 192.5 c 2,39,-1
 510 201 l 1,40,-1
 517 205 l 1,41,42
 549 226 549 226 565 226 c 0,43,44
 595 226 595 226 631 170 c 0,45,46
 653 135 653 135 653 117 c 128,-1,47
 653 99 653 99 644 86 c 128,-1,48
 635 73 635 73 626.5 66.5 c 128,-1,49
 618 60 618 60 600 49 c 1,50,51
 544 9 544 9 460 -5 c 1,52,53
 498 -36 498 -36 498 -86 c 128,-1,54
 498 -136 498 -136 463.5 -164.5 c 128,-1,55
 429 -193 429 -193 390 -193 c 0,56,57
 364 -193 364 -193 350 -186 c 0,58,59
 312.4 -167.2 312.4 -167.2 310 -148 c 1,60,-1
 309 -143 l 1,61,62
 309 -131 309 -131 324 -113 c 128,-1,63
 339 -95 339 -95 349.5 -95 c 128,-1,64
 360 -95 360 -95 367 -99.5 c 128,-1,65
 374 -104 374 -104 378 -105 c 1,66,67
 382 -109 382 -109 390 -109 c 128,-1,68
 398 -109 398 -109 405.5 -103 c 128,-1,69
 413 -97 413 -97 413 -86 c 128,-1,70
 413 -75 413 -75 405.5 -69 c 128,-1,71
 398 -63 398 -63 389.5 -63 c 128,-1,72
 381 -63 381 -63 372 -70 c 128,-1,73
 363 -77 363 -77 347.5 -77 c 128,-1,74
 332 -77 332 -77 320.5 -56.5 c 128,-1,75
 309 -36 309 -36 309 -27 c 1,0,1
EndSplineSet
EndChar

StartChar: tilde
Encoding: 732 732 104
Width: 584
Flags: MW
HStem: 592 131<323 345 323 380.5> 644 79 644 129<211 233>
LayerCount: 2
Fore
SplineSet
442 758 m 0,0,1
 478 733 478 733 478 710 c 0,2,3
 478 696 478 696 470 683 c 128,-1,4
 462 670 462 670 459 664.5 c 128,-1,5
 456 659 456 659 445 645 c 128,-1,6
 434 631 434 631 420 620.5 c 0,7,8
 382 592 382 592 343 592 c 128,-1,9
 304 592 304 592 281.5 605 c 128,-1,10
 259 618 259 618 244.5 631 c 128,-1,11
 230 644 230 644 221 644 c 0,12,13
 207 644 207 644 195 632 c 1,14,15
 172 592 172 592 152.5 592 c 128,-1,16
 133 592 133 592 105.5 616 c 128,-1,17
 78 640 78 640 78 655.5 c 128,-1,18
 78 671 78 671 86 684 c 128,-1,19
 94 697 94 697 97 702.5 c 128,-1,20
 100 708 100 708 111.5 721.5 c 128,-1,21
 123 735 123 735 137 745.5 c 0,22,23
 173.666666667 773 173.666666667 773 213.833333333 773 c 128,-1,24
 254 773 254 773 276 760.5 c 128,-1,25
 298 748 298 748 312 735.5 c 128,-1,26
 326 723 326 723 335 723 c 0,27,28
 351 723 351 723 361 735 c 1,29,30
 382 773 382 773 406 773 c 0,31,32
 421 773 421 773 442 758 c 0,0,1
EndSplineSet
EndChar

StartChar: atilde
Encoding: 227 227 105
Width: 596
Flags: MW
HStem: 2 175<264 302 264 512> 352 174<260.5 300 205 317> 592 131<370 392 370 427.5> 644 79 644 129<258 280>
VStem: 25 175<242 283.5 242 336> 375 181<243.5 282.5>
LayerCount: 2
Fore
SplineSet
382 471 m 1,0,1
 388 527 388 527 461 527 c 0,2,3
 500 527 500 527 519 521 c 128,-1,4
 538 515 538 515 545.5 500 c 128,-1,5
 553 485 553 485 554.5 473.5 c 128,-1,6
 556 462 556 462 556 439 c 2,7,-1
 556 89 l 2,8,9
 556 66 556 66 554.5 54.5 c 128,-1,10
 553 43 553 43 545.5 28.5 c 0,11,12
 531.793103448 2 531.793103448 2 477.396551724 2 c 128,-1,13
 423 2 423 2 404.5 15.5 c 128,-1,14
 386 29 386 29 383 55 c 1,15,16
 346 2 346 2 259.5 2 c 128,-1,17
 173 2 173 2 99 81 c 128,-1,18
 25 160 25 160 25 264.5 c 128,-1,19
 25 369 25 369 99.5 447.5 c 128,-1,20
 174 526 174 526 263 526 c 0,21,22
 297 526 297 526 325 514 c 128,-1,23
 353 502 353 502 364 491.5 c 128,-1,24
 375 481 375 481 382 471 c 1,0,1
226 203.5 m 128,-1,26
 252 177 252 177 289 177 c 128,-1,27
 326 177 326 177 350.5 204 c 128,-1,28
 375 231 375 231 375 263.5 c 128,-1,29
 375 296 375 296 351.5 324 c 128,-1,30
 328 352 328 352 288.5 352 c 128,-1,31
 249 352 249 352 224.5 324 c 128,-1,32
 200 296 200 296 200 263 c 128,-1,25
 200 230 200 230 226 203.5 c 128,-1,26
489 758 m 0,33,34
 525 733 525 733 525 710 c 0,35,36
 525 696 525 696 517 683 c 128,-1,37
 509 670 509 670 506 664.5 c 128,-1,38
 503 659 503 659 492 645 c 128,-1,39
 481 631 481 631 467 620.5 c 0,40,41
 429 592 429 592 390 592 c 128,-1,42
 351 592 351 592 328.5 605 c 128,-1,43
 306 618 306 618 291.5 631 c 128,-1,44
 277 644 277 644 268 644 c 0,45,46
 254 644 254 644 242 632 c 1,47,48
 219 592 219 592 199.5 592 c 128,-1,49
 180 592 180 592 152.5 616 c 128,-1,50
 125 640 125 640 125 655.5 c 128,-1,51
 125 671 125 671 133 684 c 128,-1,52
 141 697 141 697 144 702.5 c 128,-1,53
 147 708 147 708 158.5 721.5 c 128,-1,54
 170 735 170 735 184 745.5 c 0,55,56
 220.666666667 773 220.666666667 773 271 773 c 0,57,58
 317 773 317 773 359 735.5 c 0,59,60
 373 723 373 723 382 723 c 0,61,62
 400 723 400 723 408 735 c 1,63,64
 429 773 429 773 453 773 c 0,65,66
 468 773 468 773 489 758 c 0,33,34
EndSplineSet
EndChar

StartChar: otilde
Encoding: 245 245 106
Width: 600
Flags: MW
HStem: -9 176<282 316 282 364> 363 176<280 319> 592 131<347 369 347 404.5> 644 79 644 129<235 257>
VStem: 25 177<228.5 300.5 228.5 346.5> 398 177<229 302>
LayerCount: 2
Fore
SplineSet
109 461 m 128,-1,1
 193 539 193 539 301 539 c 128,-1,2
 409 539 409 539 492 461.5 c 128,-1,3
 575 384 575 384 575 264 c 0,4,5
 575 181 575 181 532 116.5 c 128,-1,6
 489 52 489 52 427.5 21.5 c 128,-1,7
 366 -9 366 -9 300 -9 c 128,-1,8
 234 -9 234 -9 172 23.5 c 128,-1,9
 110 56 110 56 67.5 119.5 c 128,-1,10
 25 183 25 183 25 263 c 0,11,0
 25 383 25 383 109 461 c 128,-1,1
299 167 m 128,-1,13
 332 167 332 167 365 192 c 128,-1,14
 398 217 398 217 398 266 c 128,-1,15
 398 315 398 315 367 339 c 128,-1,16
 336 363 336 363 300 363 c 128,-1,17
 264 363 264 363 233 338 c 128,-1,18
 202 313 202 313 202 264.5 c 128,-1,19
 202 216 202 216 234 191.5 c 128,-1,12
 266 167 266 167 299 167 c 128,-1,13
466 758 m 0,20,21
 502 733 502 733 502 710 c 0,22,23
 502 696 502 696 494 683 c 128,-1,24
 486 670 486 670 483 664.5 c 128,-1,25
 480 659 480 659 469 645 c 128,-1,26
 458 631 458 631 444 620.5 c 0,27,28
 406 592 406 592 367 592 c 128,-1,29
 328 592 328 592 305.5 605 c 128,-1,30
 283 618 283 618 268.5 631 c 128,-1,31
 254 644 254 644 245 644 c 0,32,33
 231 644 231 644 219 632 c 1,34,35
 196 592 196 592 176.5 592 c 128,-1,36
 157 592 157 592 129.5 616 c 128,-1,37
 102 640 102 640 102 655.5 c 128,-1,38
 102 671 102 671 110 684 c 128,-1,39
 118 697 118 697 121 702.5 c 128,-1,40
 124 708 124 708 135.5 721.5 c 128,-1,41
 147 735 147 735 161 745.5 c 0,42,43
 197.666666667 773 197.666666667 773 237.833333333 773 c 128,-1,44
 278 773 278 773 300 760.5 c 128,-1,45
 322 748 322 748 336 735.5 c 128,-1,46
 350 723 350 723 359 723 c 0,47,48
 375 723 375 723 385 735 c 1,49,50
 406 773 406 773 430 773 c 0,51,52
 445 773 445 773 466 758 c 0,20,21
EndSplineSet
EndChar

StartChar: ntilde
Encoding: 241 241 107
Width: 606
Flags: MW
HStem: 1 21G<83.5 171 434 522> 352 175<295 329.5> 592 131<351 373 351 408.5> 644 79 644 129<239 261>
VStem: 40 175<89 265> 390 176<89 264>
LayerCount: 2
Fore
SplineSet
333 527 m 0,0,1
 433 527 433 527 499.5 450.5 c 128,-1,2
 566 374 566 374 566 264 c 2,3,-1
 566 88 l 2,4,5
 566 65 566 65 564.5 53.5 c 128,-1,6
 563 42 563 42 555.5 27.5 c 0,7,8
 541.793103448 1 541.793103448 1 478 1 c 0,9,10
 407.392857143 1 407.392857143 1 395.5 38 c 0,11,12
 390 55.1111111111 390 55.1111111111 390 89 c 2,13,-1
 390 265 l 2,14,15
 390 306 390 306 366.5 329 c 128,-1,16
 343 352 343 352 303.5 352 c 128,-1,17
 264 352 264 352 239.5 328 c 128,-1,18
 215 304 215 304 215 265 c 2,19,-1
 215 88 l 2,20,21
 215 65 215 65 213.5 53.5 c 128,-1,22
 212 42 212 42 204.5 27.5 c 0,23,24
 190.793103448 1 190.793103448 1 127 1 c 0,25,26
 64 1 64 1 50.5 28 c 0,27,28
 43 43 43 43 41.5 54.5 c 128,-1,29
 40 66 40 66 40 89 c 2,30,-1
 40 443 l 2,31,32
 40 465 40 465 41.5 476.5 c 128,-1,33
 43 488 43 488 51 502 c 0,34,35
 65.2857142857 527 65.2857142857 527 128 527 c 0,36,37
 188.695652174 527 188.695652174 527 203 503.5 c 0,38,39
 213 487.071428571 213 487.071428571 213 463 c 1,40,41
 217.4 469.6 217.4 469.6 231.2 482.8 c 128,-1,42
 245 496 245 496 258 504.5 c 0,43,44
 292.411764706 527 292.411764706 527 333 527 c 0,0,1
470 758 m 0,45,46
 506 733 506 733 506 710 c 0,47,48
 506 696 506 696 498 683 c 128,-1,49
 490 670 490 670 487 664.5 c 128,-1,50
 484 659 484 659 473 645 c 128,-1,51
 462 631 462 631 448 620.5 c 0,52,53
 410 592 410 592 371 592 c 128,-1,54
 332 592 332 592 309.5 605 c 128,-1,55
 287 618 287 618 272.5 631 c 128,-1,56
 258 644 258 644 249 644 c 0,57,58
 235 644 235 644 223 632 c 1,59,60
 200 592 200 592 180.5 592 c 128,-1,61
 161 592 161 592 133.5 616 c 128,-1,62
 106 640 106 640 106 655.5 c 128,-1,63
 106 671 106 671 114 684 c 128,-1,64
 122 697 122 697 125 702.5 c 128,-1,65
 128 708 128 708 139.5 721.5 c 128,-1,66
 151 735 151 735 165 745.5 c 0,67,68
 201.666666667 773 201.666666667 773 241.833333333 773 c 128,-1,69
 282 773 282 773 304 760.5 c 128,-1,70
 326 748 326 748 340 735.5 c 128,-1,71
 354 723 354 723 363 723 c 0,72,73
 379 723 379 723 389 735 c 1,74,75
 410 773 410 773 434 773 c 0,76,77
 449 773 449 773 470 758 c 0,45,46
EndSplineSet
EndChar

StartChar: Otilde
Encoding: 213 213 108
Width: 775
Flags: MW
HStem: -12 177<343.5 430.5 343.5 493.5> 565 177<343.5 431> 792 131<454 476 454 511.5> 844 79 844 129<342 364>
VStem: 25 177<302 427.5 302 474> 573 177<300 428.5>
LayerCount: 2
Fore
SplineSet
384 742 m 0,0,1
 532 742 532 742 641 635 c 128,-1,2
 750 528 750 528 750 369.5 c 128,-1,3
 750 211 750 211 646 99.5 c 128,-1,4
 542 -12 542 -12 390 -12 c 128,-1,5
 238 -12 238 -12 131.5 98 c 128,-1,6
 25 208 25 208 25 360 c 0,7,8
 25 443 25 443 55 515.5 c 128,-1,9
 85 588 85 588 135 637 c 128,-1,10
 185 686 185 686 250 714 c 128,-1,11
 315 742 315 742 384 742 c 0,0,1
259.5 220.5 m 128,-1,13
 317 165 317 165 388 165 c 128,-1,14
 459 165 459 165 516 219 c 128,-1,15
 573 273 573 273 573 364 c 128,-1,16
 573 455 573 455 515.5 510 c 128,-1,17
 458 565 458 565 387 565 c 128,-1,18
 316 565 316 565 259 509.5 c 128,-1,19
 202 454 202 454 202 365 c 128,-1,12
 202 276 202 276 259.5 220.5 c 128,-1,13
573 958 m 0,20,21
 609 933 609 933 609 910 c 0,22,23
 609 896 609 896 601 883 c 128,-1,24
 593 870 593 870 590 864.5 c 128,-1,25
 587 859 587 859 576 845 c 128,-1,26
 565 831 565 831 551 820.5 c 0,27,28
 513 792 513 792 474 792 c 128,-1,29
 435 792 435 792 412.5 805 c 128,-1,30
 390 818 390 818 375.5 831 c 128,-1,31
 361 844 361 844 352 844 c 0,32,33
 338 844 338 844 326 832 c 1,34,35
 303 792 303 792 283.5 792 c 128,-1,36
 264 792 264 792 236.5 816 c 128,-1,37
 209 840 209 840 209 855.5 c 128,-1,38
 209 871 209 871 217 884 c 128,-1,39
 225 897 225 897 228 902.5 c 128,-1,40
 231 908 231 908 242.5 921.5 c 128,-1,41
 254 935 254 935 268 945.5 c 0,42,43
 304.666666667 973 304.666666667 973 344.833333333 973 c 128,-1,44
 385 973 385 973 407 960.5 c 128,-1,45
 429 948 429 948 443 935.5 c 128,-1,46
 457 923 457 923 466 923 c 0,47,48
 484 923 484 923 492 935 c 1,49,50
 513 973 513 973 537 973 c 0,51,52
 552 973 552 973 573 958 c 0,20,21
EndSplineSet
EndChar

StartChar: Atilde
Encoding: 195 195 109
Width: 765
Flags: MW
HStem: -10 21G<618 642.5> -9 21G<122.5 147> 156 148<316 449 316 521 244 449> 792 131<427 449 427 484.5> 844 79 844 129<315 337>
LayerCount: 2
Fore
SplineSet
546 958 m 0,0,1
 582 933 582 933 582 910 c 0,2,3
 582 896 582 896 574 883 c 128,-1,4
 566 870 566 870 563 864.5 c 128,-1,5
 560 859 560 859 549 845 c 128,-1,6
 538 831 538 831 524 820.5 c 0,7,8
 486 792 486 792 447 792 c 128,-1,9
 408 792 408 792 385.5 805 c 128,-1,10
 363 818 363 818 348.5 831 c 128,-1,11
 334 844 334 844 325 844 c 0,12,13
 311 844 311 844 299 832 c 1,14,15
 276 792 276 792 256.5 792 c 128,-1,16
 237 792 237 792 209.5 816 c 128,-1,17
 182 840 182 840 182 855.5 c 128,-1,18
 182 871 182 871 190 884 c 128,-1,19
 198 897 198 897 201 902.5 c 128,-1,20
 204 908 204 908 215.5 921.5 c 128,-1,21
 227 935 227 935 241 945.5 c 0,22,23
 277.666666667 973 277.666666667 973 317.833333333 973 c 128,-1,24
 358 973 358 973 380 960.5 c 128,-1,25
 402 948 402 948 416 935.5 c 128,-1,26
 430 923 430 923 439 923 c 0,27,28
 455 923 455 923 465 935 c 1,29,30
 486 973 486 973 510 973 c 0,31,32
 525 973 525 973 546 958 c 0,0,1
463 681 m 2,33,-1
 733 123 l 2,34,35
 750 89 750 89 750 72 c 0,36,37
 750 36 750 36 692 7 c 0,38,39
 658 -10 658 -10 638.5 -10 c 128,-1,40
 619 -10 619 -10 606.5 -1 c 128,-1,41
 594 8 594 8 588.5 18 c 128,-1,42
 583 28 583 28 573 48 c 2,43,-1
 521 156 l 1,44,-1
 244 156 l 1,45,-1
 192 48 l 2,46,47
 182 28 182 28 176.5 19 c 128,-1,48
 171 10 171 10 158.5 0.5 c 128,-1,49
 146 -9 146 -9 126.5 -9 c 128,-1,50
 107 -9 107 -9 73 8 c 0,51,52
 15 36 15 36 15 72 c 0,53,54
 15 89 15 89 32 123 c 2,55,-1
 302 682 l 2,56,57
 313 705 313 705 335.5 719 c 128,-1,58
 358 733 358 733 383 733 c 0,59,60
 437 733 437 733 463 681 c 2,33,-1
382 441 m 1,61,-1
 316 304 l 1,62,-1
 449 304 l 1,63,-1
 382 441 l 1,61,-1
EndSplineSet
EndChar

StartChar: Ntilde
Encoding: 209 209 110
Width: 720
Flags: MW
HStem: 0 21G<84 171.5 562.5 635.5> 792 131<405 427 405 462.5> 844 79 844 129<293 315>
VStem: 40 176<89 417> 504 176<309 643>
LayerCount: 2
Fore
SplineSet
542 726 m 128,-1,1
 561 732 561 732 589.5 732 c 128,-1,2
 618 732 618 732 635.5 727 c 128,-1,3
 653 722 653 722 661.5 715 c 128,-1,4
 670 708 670 708 674.5 694.5 c 0,5,6
 680 678 680 678 680 643 c 2,7,-1
 680 88 l 2,8,9
 680 64 680 64 678.5 53 c 128,-1,10
 677 42 677 42 669 27 c 0,11,12
 654.6 4.26325641456e-14 654.6 4.26325641456e-14 591 0 c 0,13,14
 552 0 552 0 537 6 c 128,-1,15
 522 12 522 12 512 25 c 0,16,17
 287 325 287 325 216 417 c 1,18,-1
 216 88 l 2,19,20
 216 64 216 64 214.5 53 c 128,-1,21
 213 42 213 42 205 27 c 0,22,23
 190.6 -1.06581410364e-14 190.6 -1.06581410364e-14 127 0 c 0,24,25
 65.4 0 65.4 0 51 27 c 0,26,27
 43 42 43 42 41.5 54 c 128,-1,28
 40 66 40 66 40 89 c 2,29,-1
 40 647 l 2,30,31
 40 684.533333333 40 684.533333333 49.5 702.266666667 c 128,-1,32
 59 720 59 720 78 726 c 128,-1,33
 97 732 97 732 127 732 c 128,-1,34
 157 732 157 732 174.5 726.5 c 128,-1,35
 192 721 192 721 199 714.5 c 0,36,37
 203.052631579 710.736842105 203.052631579 710.736842105 222 688 c 1,38,39
 433 401 433 401 504 309 c 1,40,-1
 504 647 l 2,41,42
 504 684.533333333 504 684.533333333 513.5 702.266666667 c 128,-1,0
 523 720 523 720 542 726 c 128,-1,1
524 958 m 0,43,44
 560 933 560 933 560 910 c 0,45,46
 560 896 560 896 552 883 c 128,-1,47
 544 870 544 870 541 864.5 c 128,-1,48
 538 859 538 859 527 845 c 128,-1,49
 516 831 516 831 502 820.5 c 0,50,51
 464 792 464 792 425 792 c 128,-1,52
 386 792 386 792 363.5 805 c 128,-1,53
 341 818 341 818 326.5 831 c 128,-1,54
 312 844 312 844 303 844 c 0,55,56
 289 844 289 844 277 832 c 1,57,58
 254 792 254 792 234.5 792 c 128,-1,59
 215 792 215 792 187.5 816 c 128,-1,60
 160 840 160 840 160 855.5 c 128,-1,61
 160 871 160 871 168 884 c 128,-1,62
 176 897 176 897 179 902.5 c 128,-1,63
 182 908 182 908 193.5 921.5 c 128,-1,64
 205 935 205 935 219 945.5 c 0,65,66
 255.666666667 973 255.666666667 973 295.833333333 973 c 128,-1,67
 336 973 336 973 358 960.5 c 128,-1,68
 380 948 380 948 394 935.5 c 128,-1,69
 408 923 408 923 417 923 c 0,70,71
 433 923 433 923 443 935 c 1,72,73
 464 973 464 973 488 973 c 0,74,75
 503 973 503 973 524 958 c 0,43,44
EndSplineSet
EndChar

StartChar: acute
Encoding: 180 180 111
Width: 605
Flags: MW
HStem: 569 21G<199 212.5> 754 20G<384.5 398>
LayerCount: 2
Fore
SplineSet
238 576 m 1,0,1
 224 569 224 569 208 569 c 0,2,3
 178 569 178 569 159 628 c 0,4,5
 151 652 151 652 151 669 c 128,-1,6
 151 686 151 686 157.5 695 c 0,7,8
 167.12 708.32 167.12 708.32 194 716 c 2,9,-1
 359 767 l 2,10,11
 385 774 385 774 389 774 c 0,12,13
 419 774 419 774 437 715 c 0,14,15
 445 691 445 691 445 674.5 c 128,-1,16
 445 658 445 658 438.5 649 c 0,17,18
 428.88 635.68 428.88 635.68 402 628 c 2,19,-1
 238 576 l 1,0,1
EndSplineSet
EndChar

StartChar: aacute
Encoding: 225 225 112
Width: 596
Flags: MW
HStem: 2 175<264 302 264 512> 352 174<260.5 300 205 317> 754 20G<411.5 425>
VStem: 25 175<242 283.5 242 336> 375 181<243.5 282.5>
LayerCount: 2
Fore
SplineSet
382 471 m 1,0,1
 388 527 388 527 461 527 c 0,2,3
 500 527 500 527 519 521 c 128,-1,4
 538 515 538 515 545.5 500 c 128,-1,5
 553 485 553 485 554.5 473.5 c 128,-1,6
 556 462 556 462 556 439 c 2,7,-1
 556 89 l 2,8,9
 556 66 556 66 554.5 54.5 c 128,-1,10
 553 43 553 43 545.5 28.5 c 0,11,12
 531.793103448 2 531.793103448 2 477.396551724 2 c 128,-1,13
 423 2 423 2 404.5 15.5 c 128,-1,14
 386 29 386 29 383 55 c 1,15,16
 346 2 346 2 259.5 2 c 128,-1,17
 173 2 173 2 99 81 c 128,-1,18
 25 160 25 160 25 264.5 c 128,-1,19
 25 369 25 369 99.5 447.5 c 128,-1,20
 174 526 174 526 263 526 c 0,21,22
 297 526 297 526 325 514 c 128,-1,23
 353 502 353 502 364 491.5 c 128,-1,24
 375 481 375 481 382 471 c 1,0,1
265 576 m 1,25,-1
 235 569 l 1,26,27
 205 569 205 569 186 628 c 0,28,29
 178 652 178 652 178 669 c 128,-1,30
 178 686 178 686 184.5 695 c 0,31,32
 194.12 708.32 194.12 708.32 221 716 c 2,33,-1
 386 767 l 2,34,35
 412 774 412 774 416 774 c 0,36,37
 446 774 446 774 464 715 c 0,38,39
 472 691 472 691 472 674.5 c 128,-1,40
 472 658 472 658 465.5 649 c 0,41,42
 455.88 635.68 455.88 635.68 429 628 c 2,43,-1
 265 576 l 1,25,-1
226 203.5 m 128,-1,45
 252 177 252 177 289 177 c 128,-1,46
 326 177 326 177 350.5 204 c 128,-1,47
 375 231 375 231 375 263.5 c 128,-1,48
 375 296 375 296 351.5 324 c 128,-1,49
 328 352 328 352 288.5 352 c 128,-1,50
 249 352 249 352 224.5 324 c 128,-1,51
 200 296 200 296 200 263 c 128,-1,44
 200 230 200 230 226 203.5 c 128,-1,45
EndSplineSet
EndChar

StartChar: eacute
Encoding: 233 233 113
Width: 573
Flags: MW
HStem: -6 151 -6 202 371 161 754 20G<402.5 416>
LayerCount: 2
Fore
SplineSet
256 576 m 1,0,1
 242 569 242 569 226 569 c 0,2,3
 196 569 196 569 177 628 c 0,4,5
 169 652 169 652 169 669 c 128,-1,6
 169 686 169 686 175.5 695 c 0,7,8
 185.12 708.32 185.12 708.32 212 716 c 2,9,-1
 377 767 l 2,10,11
 403 774 403 774 407 774 c 0,12,13
 437 774 437 774 455 715 c 0,14,15
 463 691 463 691 463 674.5 c 128,-1,16
 463 658 463 658 456.5 649 c 0,17,18
 446.88 635.68 446.88 635.68 420 628 c 2,19,-1
 256 576 l 1,0,1
517.5 235.5 m 128,-1,21
 487 206 487 206 450 206 c 2,22,-1
 213 206 l 1,23,24
 213 178 213 178 246 159 c 128,-1,25
 279 140 279 140 311.5 140 c 0,26,27
 370 140 370 140 403 152 c 2,28,-1
 414 156 l 1,29,30
 438 167 438 167 454 167 c 0,31,32
 486 167 486 167 509 122 c 0,33,34
 522 95 522 95 522 76 c 0,35,36
 522 -13 522 -13 309 -13 c 0,37,38
 235 -13 235 -13 177.5 12.5 c 128,-1,39
 120 38 120 38 88 79.5 c 0,40,41
 25 161.203125 25 161.203125 25 261 c 0,42,43
 25 387 25 387 106.5 462.5 c 128,-1,44
 188 538 188 538 310 538 c 0,45,46
 448.75 538 448.75 538 513.5 440 c 0,47,48
 548 387.783783784 548 387.783783784 548 326.391891892 c 128,-1,20
 548 265 548 265 517.5 235.5 c 128,-1,21
337 297 m 2,49,50
 375 297 375 297 375 329 c 0,51,52
 375 352 375 352 357.5 366 c 128,-1,53
 340 380 340 380 307.5 380 c 128,-1,54
 275 380 275 380 243 353.5 c 128,-1,55
 211 327 211 327 211 297 c 1,56,-1
 337 297 l 2,49,50
EndSplineSet
EndChar

StartChar: iacute
Encoding: 237 237 114
Width: 255
Flags: MW
HStem: 0 21G<83.5 171> 754 20G<249.5 263>
VStem: 47 175
LayerCount: 2
Fore
SplineSet
40 439 m 2,0,1
 40 462 40 462 41.5 473.5 c 128,-1,2
 43 485 43 485 50.5 499.5 c 0,3,4
 64.2068965517 526 64.2068965517 526 128 526 c 0,5,6
 175.857142857 526 175.857142857 526 196.5 509 c 0,7,8
 212.922330097 495.475728155 212.922330097 495.475728155 214.5 465.5 c 0,9,10
 215 456 215 456 215 437 c 2,11,-1
 215 87 l 2,12,13
 215 64 215 64 213.5 52.5 c 128,-1,14
 212 41 212 41 204.5 26.5 c 0,15,16
 190.793103448 1.95399252334e-14 190.793103448 1.95399252334e-14 127 0 c 0,17,18
 64 0 64 0 50.5 27 c 0,19,20
 43 42 43 42 41.5 53 c 128,-1,21
 40 64 40 64 40 88 c 2,22,-1
 40 439 l 2,0,1
103 576 m 1,23,24
 73 569 l 1,25,26
 43 569 43 569 24 628 c 0,27,28
 16 652 16 652 16 669 c 128,-1,29
 16 686 16 686 22.5 695 c 0,30,31
 32.12 708.32 32.12 708.32 59 716 c 2,32,-1
 224 767 l 2,33,34
 250 774 250 774 254 774 c 0,35,36
 284 774 284 774 302 715 c 0,37,38
 310 691 310 691 310 674.5 c 128,-1,39
 310 658 310 658 303.5 649 c 0,40,41
 293.88 635.68 293.88 635.68 267 628 c 2,42,-1
 103 576 l 1,23,24
EndSplineSet
EndChar

StartChar: oacute
Encoding: 243 243 115
Width: 600
Flags: MW
HStem: -9 176<282 316 282 364> 363 176<280 319> 754 20G<409.5 423>
VStem: 25 177<228.5 300.5 228.5 346.5> 398 177<229 302>
LayerCount: 2
Fore
SplineSet
109 461 m 128,-1,1
 193 539 193 539 301 539 c 128,-1,2
 409 539 409 539 492 461.5 c 128,-1,3
 575 384 575 384 575 264 c 0,4,5
 575 181 575 181 532 116.5 c 128,-1,6
 489 52 489 52 427.5 21.5 c 128,-1,7
 366 -9 366 -9 300 -9 c 128,-1,8
 234 -9 234 -9 172 23.5 c 128,-1,9
 110 56 110 56 67.5 119.5 c 128,-1,10
 25 183 25 183 25 263 c 0,11,0
 25 383 25 383 109 461 c 128,-1,1
263 576 m 1,12,-1
 233 569 l 1,13,14
 203 569 203 569 184 628 c 0,15,16
 176 652 176 652 176 669 c 128,-1,17
 176 686 176 686 182.5 695 c 0,18,19
 192.12 708.32 192.12 708.32 219 716 c 2,20,-1
 384 767 l 2,21,22
 410 774 410 774 414 774 c 0,23,24
 444 774 444 774 462 715 c 0,25,26
 470 691 470 691 470 674.5 c 128,-1,27
 470 658 470 658 463.5 649 c 0,28,29
 453.88 635.68 453.88 635.68 427 628 c 2,30,-1
 263 576 l 1,12,-1
299 167 m 128,-1,32
 332 167 332 167 365 192 c 128,-1,33
 398 217 398 217 398 266 c 128,-1,34
 398 315 398 315 367 339 c 128,-1,35
 336 363 336 363 300 363 c 128,-1,36
 264 363 264 363 233 338 c 128,-1,37
 202 313 202 313 202 264.5 c 128,-1,38
 202 216 202 216 234 191.5 c 128,-1,31
 266 167 266 167 299 167 c 128,-1,32
EndSplineSet
EndChar

StartChar: uacute
Encoding: 250 250 116
Width: 606
Flags: MW
HStem: 1 176<277 521.5> 2 21G<206 311.5> 754 20G<425.5 439>
VStem: 40 176<265 439 236 440> 391 175<264 440>
LayerCount: 2
Fore
SplineSet
274 2 m 0,0,1
 173 2 173 2 106.5 78.5 c 128,-1,2
 40 155 40 155 40 265 c 2,3,-1
 40 440 l 2,4,5
 40 464 40 464 41.5 475 c 128,-1,6
 43 486 43 486 50.5 501 c 0,7,8
 64 528 64 528 128 528 c 0,9,10
 198 528 198 528 210.5 490.5 c 0,11,12
 216 474 216 474 216 439 c 2,13,-1
 216 264 l 2,14,15
 216 223 216 223 239.5 200 c 128,-1,16
 263 177 263 177 302.5 177 c 128,-1,17
 342 177 342 177 366.5 201 c 128,-1,18
 391 225 391 225 391 264 c 2,19,-1
 391 441 l 2,20,21
 391 464 391 464 392.5 475.5 c 128,-1,22
 394 487 394 487 401.5 501.5 c 0,23,24
 415.206896552 528 415.206896552 528 479 528 c 0,25,26
 542 528 542 528 555.5 501 c 0,27,28
 563 486 563 486 564.5 474.5 c 128,-1,29
 566 463 566 463 566 440 c 2,30,-1
 566 86 l 2,31,32
 566 64 566 64 564.5 52.5 c 128,-1,33
 563 41 563 41 555 27 c 0,34,35
 540.142857143 1 540.142857143 1 478 1 c 0,36,37
 417 1 417 1 403 25 c 0,38,39
 393 42.1428571429 393 42.1428571429 393 66 c 1,40,41
 388.6 59.4 388.6 59.4 374.8 46.2 c 128,-1,42
 361 33 361 33 348 24.5 c 0,43,44
 313.588235294 2 313.588235294 2 274 2 c 0,0,1
279 576 m 1,45,-1
 249 569 l 1,46,47
 219 569 219 569 200 628 c 0,48,49
 192 652 192 652 192 669 c 128,-1,50
 192 686 192 686 198.5 695 c 0,51,52
 208.12 708.32 208.12 708.32 235 716 c 2,53,-1
 400 767 l 2,54,55
 426 774 426 774 430 774 c 0,56,57
 460 774 460 774 478 715 c 0,58,59
 486 691 486 691 486 674.5 c 128,-1,60
 486 658 486 658 479.5 649 c 0,61,62
 469.88 635.68 469.88 635.68 443 628 c 2,63,-1
 279 576 l 1,45,-1
EndSplineSet
EndChar

StartChar: yacute
Encoding: 253 253 117
Width: 604
Flags: MW
HStem: -236 21G<245 269> 518 20G<119.5 142> 754 20G<421.5 435>
LayerCount: 2
Fore
SplineSet
530 521 m 0,0,1
 589 495 589 495 589 458 c 0,2,3
 589 440 589 440 581 424 c 128,-1,4
 573 408 573 408 573 407 c 2,5,-1
 311 -179 l 2,6,7
 303 -198 303 -198 297.5 -208 c 128,-1,8
 292 -218 292 -218 280 -227 c 128,-1,9
 268 -236 268 -236 250 -236 c 128,-1,10
 232 -236 232 -236 197 -221 c 0,11,12
 138 -195 138 -195 138 -159 c 0,13,14
 138 -135.395348837 138 -135.395348837 234 70 c 1,15,-1
 35 405 l 2,16,17
 15 438 15 438 15 454 c 0,18,19
 15 486 15 486 69 518 c 0,20,21
 103 538 103 538 122 538 c 128,-1,22
 141 538 141 538 153 530 c 128,-1,23
 165 522 165 522 170.5 513.5 c 128,-1,24
 176 505 176 505 225.5 420.5 c 128,-1,25
 275 336 275 336 320 263 c 1,26,27
 325 279 325 279 374 386.5 c 128,-1,28
 423 494 423 494 426.5 501 c 128,-1,29
 430 508 430 508 437.5 517.5 c 0,30,31
 451.315789474 535 451.315789474 535 474.657894737 535 c 128,-1,32
 498 535 498 535 530 521 c 0,0,1
275 576 m 1,33,-1
 245 569 l 1,34,35
 215 569 215 569 196 628 c 0,36,37
 188 652 188 652 188 669 c 128,-1,38
 188 686 188 686 194.5 695 c 0,39,40
 204.12 708.32 204.12 708.32 231 716 c 2,41,-1
 396 767 l 2,42,43
 422 774 422 774 426 774 c 0,44,45
 456 774 456 774 474 715 c 0,46,47
 482 691 482 691 482 674.5 c 128,-1,48
 482 658 482 658 475.5 649 c 0,49,50
 465.88 635.68 465.88 635.68 439 628 c 2,51,-1
 275 576 l 1,33,-1
EndSplineSet
EndChar

StartChar: Iacute
Encoding: 205 205 118
Width: 269
Flags: MW
HStem: 0 21G<90 178.5> 954 20G<256.5 270>
VStem: 46 177<89 644>
LayerCount: 2
Fore
SplineSet
46 645 m 2,0,1
 46 668 46 668 47.5 679.5 c 128,-1,2
 49 691 49 691 57 706 c 0,3,4
 71.4 733 71.4 733 135 733 c 0,5,6
 205 733 205 733 217.5 695.5 c 0,7,8
 223 679 223 679 223 644 c 2,9,-1
 223 88 l 2,10,11
 223 64 223 64 221.5 53 c 128,-1,12
 220 42 220 42 212 27 c 0,13,14
 197.6 -1.06581410364e-14 197.6 -1.06581410364e-14 134 0 c 0,15,16
 64 0 64 0 51.5 37.5 c 0,17,18
 46 54 46 54 46 89 c 2,19,-1
 46 645 l 2,0,1
110 776 m 1,20,21
 96 769 96 769 80 769 c 0,22,23
 50 769 50 769 31 828 c 0,24,25
 23 852 23 852 23 869 c 128,-1,26
 23 886 23 886 29.5 895 c 0,27,28
 39.12 908.32 39.12 908.32 66 916 c 2,29,-1
 231 967 l 2,30,31
 257 974 257 974 261 974 c 0,32,33
 291 974 291 974 309 915 c 0,34,35
 317 891 317 891 317 874.5 c 128,-1,36
 317 858 317 858 310.5 849 c 0,37,38
 300.88 835.68 300.88 835.68 274 828 c 2,39,-1
 110 776 l 1,20,21
EndSplineSet
EndChar

StartChar: Oacute
Encoding: 211 211 119
Width: 775
Flags: MW
HStem: -12 177<343.5 430.5 343.5 493.5> 565 177<343.5 431> 954 20G<495.5 509>
VStem: 25 177<302 427.5 302 474> 573 177<300 428.5>
LayerCount: 2
Fore
SplineSet
384 742 m 0,0,1
 532 742 532 742 641 635 c 128,-1,2
 750 528 750 528 750 369.5 c 128,-1,3
 750 211 750 211 646 99.5 c 128,-1,4
 542 -12 542 -12 390 -12 c 128,-1,5
 238 -12 238 -12 131.5 98 c 128,-1,6
 25 208 25 208 25 360 c 0,7,8
 25 443 25 443 55 515.5 c 128,-1,9
 85 588 85 588 135 637 c 128,-1,10
 185 686 185 686 250 714 c 128,-1,11
 315 742 315 742 384 742 c 0,0,1
259.5 220.5 m 128,-1,13
 317 165 317 165 388 165 c 128,-1,14
 459 165 459 165 516 219 c 128,-1,15
 573 273 573 273 573 364 c 128,-1,16
 573 455 573 455 515.5 510 c 128,-1,17
 458 565 458 565 387 565 c 128,-1,18
 316 565 316 565 259 509.5 c 128,-1,19
 202 454 202 454 202 365 c 128,-1,12
 202 276 202 276 259.5 220.5 c 128,-1,13
349 776 m 1,20,-1
 319 769 l 1,21,22
 289 769 289 769 270 828 c 0,23,24
 262 852 262 852 262 869 c 128,-1,25
 262 886 262 886 268.5 895 c 0,26,27
 278.12 908.32 278.12 908.32 305 916 c 2,28,-1
 470 967 l 2,29,30
 496 974 496 974 500 974 c 0,31,32
 530 974 530 974 548 915 c 0,33,34
 556 891 556 891 556 874.5 c 128,-1,35
 556 858 556 858 549.5 849 c 0,36,37
 539.88 835.68 539.88 835.68 513 828 c 2,38,-1
 349 776 l 1,20,-1
EndSplineSet
EndChar

StartChar: Eacute
Encoding: 201 201 120
Width: 638
Flags: MW
HStem: 0 177<84 525 217 524> 278 177<217 413 217 415> 556 177<217 524 217 217> 954 20G<434.5 448>
VStem: 40 177<177 177 177 278 455 556>
LayerCount: 2
Fore
SplineSet
217 177 m 1,0,-1
 525 177 l 2,1,2
 548 177 548 177 559.5 175.5 c 128,-1,3
 571 174 571 174 586 166 c 0,4,5
 613 151.6 613 151.6 613 88 c 0,6,7
 613 18 613 18 575.5 5.5 c 0,8,9
 559 0 559 0 524 0 c 2,10,-1
 128 0 l 2,11,12
 58 0 58 0 45.5 37.5 c 0,13,14
 40 54 40 54 40 89 c 2,15,-1
 40 645 l 2,16,17
 40 696 40 696 59 714.5 c 128,-1,18
 78 733 78 733 131 733 c 2,19,-1
 525 733 l 2,20,21
 548 733 548 733 559.5 731.5 c 128,-1,22
 571 730 571 730 586 722 c 0,23,24
 613 707.6 613 707.6 613 644 c 0,25,26
 613 574 613 574 575.5 561.5 c 0,27,28
 559 556 559 556 524 556 c 2,29,-1
 217 556 l 1,30,-1
 217 455 l 1,31,-1
 415 455 l 2,32,33
 438 455 438 455 449.5 453.5 c 128,-1,34
 461 452 461 452 476 444 c 0,35,36
 503 429.6 503 429.6 503 366 c 0,37,38
 503 295.714285714 503 295.714285714 465 283.5 c 0,39,40
 447.888888889 278 447.888888889 278 413 278 c 2,41,-1
 217 278 l 1,42,-1
 217 177 l 1,0,-1
288 776 m 1,43,44
 274 769 274 769 258 769 c 0,45,46
 228 769 228 769 209 828 c 0,47,48
 201 852 201 852 201 869 c 128,-1,49
 201 886 201 886 207.5 895 c 0,50,51
 217.12 908.32 217.12 908.32 244 916 c 2,52,-1
 409 967 l 2,53,54
 435 974 435 974 439 974 c 0,55,56
 469 974 469 974 487 915 c 0,57,58
 495 891 495 891 495 874.5 c 128,-1,59
 495 858 495 858 488.5 849 c 0,60,61
 478.88 835.68 478.88 835.68 452 828 c 2,62,-1
 288 776 l 1,43,44
EndSplineSet
EndChar

StartChar: Aacute
Encoding: 193 193 121
Width: 765
Flags: MW
HStem: -9 21G<122.5 147> 156 148<316 449 316 521 244 449> 954 20G<499.5 513>
LayerCount: 2
Fore
SplineSet
353 776 m 1,0,1
 323 769 l 1,2,3
 293 769 293 769 274 828 c 0,4,5
 266 852 266 852 266 869 c 128,-1,6
 266 886 266 886 272.5 895 c 0,7,8
 282.12 908.32 282.12 908.32 309 916 c 2,9,-1
 474 967 l 2,10,11
 500 974 500 974 504 974 c 0,12,13
 534 974 534 974 552 915 c 0,14,15
 560 891 560 891 560 874.5 c 128,-1,16
 560 858 560 858 553.5 849 c 0,17,18
 543.88 835.68 543.88 835.68 517 828 c 2,19,-1
 353 776 l 1,0,1
463 681 m 2,20,-1
 733 123 l 2,21,22
 750 89 750 89 750 72 c 0,23,24
 750 36 750 36 692 7 c 0,25,26
 658 -10 658 -10 638.5 -10 c 128,-1,27
 619 -10 619 -10 606.5 -1 c 128,-1,28
 594 8 594 8 588.5 18 c 128,-1,29
 583 28 583 28 573 48 c 2,30,-1
 521 156 l 1,31,-1
 244 156 l 1,32,-1
 192 48 l 2,33,34
 182 28 182 28 176.5 19 c 128,-1,35
 171 10 171 10 158.5 0.5 c 128,-1,36
 146 -9 146 -9 126.5 -9 c 128,-1,37
 107 -9 107 -9 73 8 c 0,38,39
 15 36 15 36 15 72 c 0,40,41
 15 89 15 89 32 123 c 2,42,-1
 302 682 l 2,43,44
 313 705 313 705 335.5 719 c 128,-1,45
 358 733 358 733 383 733 c 0,46,47
 437 733 437 733 463 681 c 2,20,-1
382 441 m 1,48,-1
 316 304 l 1,49,-1
 449 304 l 1,50,-1
 382 441 l 1,48,-1
EndSplineSet
EndChar

StartChar: Uacute
Encoding: 218 218 122
Width: 726
Flags: MW
HStem: -12 178<306.5 417 306.5 467.5> 954 20G<495.5 509>
VStem: 40 178<344 644> 509 177<345 644>
LayerCount: 2
Fore
SplineSet
548 728 m 128,-1,1
 567 734 567 734 595.5 734 c 128,-1,2
 624 734 624 734 641 729 c 128,-1,3
 658 724 658 724 667 717 c 128,-1,4
 676 710 676 710 680.5 696 c 0,5,6
 686 678.888888889 686 678.888888889 686 644 c 2,7,-1
 686 342 l 2,8,9
 686 210.063291139 686 210.063291139 603.5 102.5 c 0,10,11
 564 51 564 51 501 19.5 c 128,-1,12
 438 -12 438 -12 361.5 -12 c 128,-1,13
 285 -12 285 -12 222.5 20 c 128,-1,14
 160 52 160 52 121 103.5 c 0,15,16
 40 210.461538462 40 210.461538462 40 344 c 2,17,-1
 40 645 l 2,18,19
 40 669 40 669 41.5 680.5 c 128,-1,20
 43 692 43 692 51 707 c 128,-1,21
 59 722 59 722 78 728 c 128,-1,22
 97 734 97 734 129 734 c 128,-1,23
 161 734 161 734 180 728 c 128,-1,24
 199 722 199 722 206.5 707 c 0,25,26
 218 684 218 684 218 644 c 2,27,-1
 218 344 l 2,28,29
 218 282.741935484 218 282.741935484 247.5 228.5 c 0,30,31
 263 200 263 200 293 183 c 128,-1,32
 323 166 323 166 364 166 c 0,33,34
 437 166 437 166 473 220 c 128,-1,35
 509 274 509 274 509 345 c 2,36,-1
 509 651 l 2,37,38
 509 689.5 509 689.5 519 705.75 c 128,-1,0
 529 722 529 722 548 728 c 128,-1,1
349 776 m 1,39,-1
 319 769 l 1,40,41
 289 769 289 769 270 828 c 0,42,43
 262 852 262 852 262 869 c 128,-1,44
 262 886 262 886 268.5 895 c 0,45,46
 278.12 908.32 278.12 908.32 305 916 c 2,47,-1
 470 967 l 2,48,49
 496 974 496 974 500 974 c 0,50,51
 530 974 530 974 548 915 c 0,52,53
 556 891 556 891 556 874.5 c 128,-1,54
 556 858 556 858 549.5 849 c 0,55,56
 539.88 835.68 539.88 835.68 513 828 c 2,57,-1
 349 776 l 1,39,-1
EndSplineSet
EndChar

StartChar: Yacute
Encoding: 221 221 123
Width: 686
Flags: MW
HStem: -2 21G<298.5 387.5> 954 20G<448.5 462>
VStem: 254 178<88 277>
LayerCount: 2
Fore
SplineSet
622 719 m 1,0,1
 671 685 671 685 671 653 c 0,2,3
 671 634 671 634 648 600 c 2,4,-1
 432 277 l 1,5,-1
 432 86 l 2,6,7
 432 63 432 63 430.5 51.5 c 128,-1,8
 429 40 429 40 421 25 c 128,-1,9
 413 10 413 10 394 4 c 128,-1,10
 375 -2 375 -2 343 -2 c 128,-1,11
 311 -2 311 -2 292 4 c 128,-1,12
 273 10 273 10 265 25.5 c 128,-1,13
 257 41 257 41 255.5 52.5 c 128,-1,14
 254 64 254 64 254 88 c 2,15,-1
 254 277 l 1,16,-1
 38 600 l 2,17,18
 15 634 15 634 15 653 c 0,19,20
 15 685 15 685 59 714.5 c 128,-1,21
 103 744 103 744 122 744 c 128,-1,22
 141 744 141 744 152.5 736 c 0,23,24
 168.813953488 724.651162791 168.813953488 724.651162791 188 695 c 2,25,-1
 343 447 l 1,26,-1
 498 695 l 2,27,28
 517.186046512 724.651162791 517.186046512 724.651162791 531.093023256 734.325581395 c 128,-1,29
 545 744 545 744 563.5 744 c 128,-1,30
 582 744 582 744 622 719 c 1,0,1
302 776 m 1,31,32
 288 769 288 769 272 769 c 0,33,34
 242 769 242 769 223 828 c 0,35,36
 215 852 215 852 215 869 c 128,-1,37
 215 886 215 886 221.5 895 c 0,38,39
 231.12 908.32 231.12 908.32 258 916 c 2,40,-1
 423 967 l 2,41,42
 449 974 449 974 453 974 c 0,43,44
 483 974 483 974 501 915 c 0,45,46
 509 891 509 891 509 874.5 c 128,-1,47
 509 858 509 858 502.5 849 c 0,48,49
 492.88 835.68 492.88 835.68 466 828 c 2,50,-1
 302 776 l 1,31,32
EndSplineSet
EndChar

StartChar: agrave
Encoding: 224 224 124
Width: 596
Flags: MW
HStem: 2 175<264 302 264 512> 352 174<260.5 300 205 317> 754 20G<212 225.5>
VStem: 25 175<242 283.5 242 336> 375 181<243.5 282.5>
LayerCount: 2
Fore
SplineSet
382 471 m 1,0,1
 388 527 388 527 461 527 c 0,2,3
 500 527 500 527 519 521 c 128,-1,4
 538 515 538 515 545.5 500 c 128,-1,5
 553 485 553 485 554.5 473.5 c 128,-1,6
 556 462 556 462 556 439 c 2,7,-1
 556 89 l 2,8,9
 556 66 556 66 554.5 54.5 c 128,-1,10
 553 43 553 43 545.5 28.5 c 0,11,12
 531.793103448 2 531.793103448 2 477.396551724 2 c 128,-1,13
 423 2 423 2 404.5 15.5 c 128,-1,14
 386 29 386 29 383 55 c 1,15,16
 346 2 346 2 259.5 2 c 128,-1,17
 173 2 173 2 99 81 c 128,-1,18
 25 160 25 160 25 264.5 c 128,-1,19
 25 369 25 369 99.5 447.5 c 128,-1,20
 174 526 174 526 263 526 c 0,21,22
 297 526 297 526 325 514 c 128,-1,23
 353 502 353 502 364 491.5 c 128,-1,24
 375 481 375 481 382 471 c 1,0,1
402 569 m 0,25,26
 387.75 569 387.75 569 372 576 c 1,27,-1
 207 628 l 2,28,29
 180.12 635.68 180.12 635.68 172.06 646.84 c 128,-1,30
 164 658 164 658 164 674.5 c 128,-1,31
 164 691 164 691 172 715 c 0,32,33
 191 774 191 774 221 774 c 0,34,35
 225 774 225 774 251 767 c 2,36,-1
 416 716 l 2,37,38
 430 711 430 711 437.5 707.5 c 0,39,40
 459 697.466666667 459 697.466666667 459 674.733333333 c 128,-1,41
 459 652 459 652 451 628 c 0,42,43
 432 569 432 569 402 569 c 0,25,26
226 203.5 m 128,-1,45
 252 177 252 177 289 177 c 128,-1,46
 326 177 326 177 350.5 204 c 128,-1,47
 375 231 375 231 375 263.5 c 128,-1,48
 375 296 375 296 351.5 324 c 128,-1,49
 328 352 328 352 288.5 352 c 128,-1,50
 249 352 249 352 224.5 324 c 128,-1,51
 200 296 200 296 200 263 c 128,-1,44
 200 230 200 230 226 203.5 c 128,-1,45
EndSplineSet
EndChar

StartChar: ograve
Encoding: 242 242 125
Width: 600
Flags: MW
HStem: -9 176<282 316 282 364> 363 176<280 319> 754 20G<199 212.5>
VStem: 25 177<228.5 300.5 228.5 346.5> 398 177<229 302>
LayerCount: 2
Fore
SplineSet
109 461 m 128,-1,1
 193 539 193 539 301 539 c 128,-1,2
 409 539 409 539 492 461.5 c 128,-1,3
 575 384 575 384 575 264 c 0,4,5
 575 181 575 181 532 116.5 c 128,-1,6
 489 52 489 52 427.5 21.5 c 128,-1,7
 366 -9 366 -9 300 -9 c 128,-1,8
 234 -9 234 -9 172 23.5 c 128,-1,9
 110 56 110 56 67.5 119.5 c 128,-1,10
 25 183 25 183 25 263 c 0,11,0
 25 383 25 383 109 461 c 128,-1,1
389 569 m 1,12,-1
 359 576 l 1,13,-1
 194 628 l 2,14,15
 167.12 635.68 167.12 635.68 159.06 646.84 c 128,-1,16
 151 658 151 658 151 674.5 c 128,-1,17
 151 691 151 691 159 715 c 0,18,19
 178 774 178 774 208 774 c 0,20,21
 212 774 212 774 238 767 c 2,22,-1
 403 716 l 2,23,24
 417 711 417 711 424.5 707.5 c 0,25,26
 446 697.466666667 446 697.466666667 446 674.733333333 c 128,-1,27
 446 652 446 652 438 628 c 0,28,29
 419 569 419 569 389 569 c 1,12,-1
299 167 m 128,-1,31
 332 167 332 167 365 192 c 128,-1,32
 398 217 398 217 398 266 c 128,-1,33
 398 315 398 315 367 339 c 128,-1,34
 336 363 336 363 300 363 c 128,-1,35
 264 363 264 363 233 338 c 128,-1,36
 202 313 202 313 202 264.5 c 128,-1,37
 202 216 202 216 234 191.5 c 128,-1,30
 266 167 266 167 299 167 c 128,-1,31
EndSplineSet
EndChar

StartChar: ugrave
Encoding: 249 249 126
Width: 606
Flags: MW
HStem: 1 176<277 521.5> 2 21G<206 311.5> 754 20G<198 211.5>
VStem: 40 176<265 439 236 440> 391 175<264 440>
LayerCount: 2
Fore
SplineSet
274 2 m 0,0,1
 173 2 173 2 106.5 78.5 c 128,-1,2
 40 155 40 155 40 265 c 2,3,-1
 40 440 l 2,4,5
 40 464 40 464 41.5 475 c 128,-1,6
 43 486 43 486 50.5 501 c 0,7,8
 64 528 64 528 128 528 c 0,9,10
 198 528 198 528 210.5 490.5 c 0,11,12
 216 474 216 474 216 439 c 2,13,-1
 216 264 l 2,14,15
 216 223 216 223 239.5 200 c 128,-1,16
 263 177 263 177 302.5 177 c 128,-1,17
 342 177 342 177 366.5 201 c 128,-1,18
 391 225 391 225 391 264 c 2,19,-1
 391 441 l 2,20,21
 391 464 391 464 392.5 475.5 c 128,-1,22
 394 487 394 487 401.5 501.5 c 0,23,24
 415.206896552 528 415.206896552 528 479 528 c 0,25,26
 542 528 542 528 555.5 501 c 0,27,28
 563 486 563 486 564.5 474.5 c 128,-1,29
 566 463 566 463 566 440 c 2,30,-1
 566 86 l 2,31,32
 566 64 566 64 564.5 52.5 c 128,-1,33
 563 41 563 41 555 27 c 0,34,35
 540.142857143 1 540.142857143 1 478 1 c 0,36,37
 417 1 417 1 403 25 c 0,38,39
 393 42.1428571429 393 42.1428571429 393 66 c 1,40,41
 388.6 59.4 388.6 59.4 374.8 46.2 c 128,-1,42
 361 33 361 33 348 24.5 c 0,43,44
 313.588235294 2 313.588235294 2 274 2 c 0,0,1
388 569 m 0,45,46
 373.75 569 373.75 569 358 576 c 1,47,-1
 193 628 l 2,48,49
 166.12 635.68 166.12 635.68 158.06 646.84 c 128,-1,50
 150 658 150 658 150 674.5 c 128,-1,51
 150 691 150 691 158 715 c 0,52,53
 177 774 177 774 207 774 c 0,54,55
 211 774 211 774 237 767 c 2,56,-1
 402 716 l 2,57,58
 416 711 416 711 423.5 707.5 c 0,59,60
 445 697.466666667 445 697.466666667 445 674.733333333 c 128,-1,61
 445 652 445 652 437 628 c 0,62,63
 418 569 418 569 388 569 c 0,45,46
EndSplineSet
EndChar

StartChar: egrave
Encoding: 232 232 127
Width: 573
Flags: MW
HStem: -6 151 -6 202 371 161 754 20G<189 202.5>
LayerCount: 2
Fore
SplineSet
379 569 m 1,0,-1
 349 576 l 1,1,-1
 184 628 l 2,2,3
 157.12 635.68 157.12 635.68 149.06 646.84 c 128,-1,4
 141 658 141 658 141 674.5 c 128,-1,5
 141 691 141 691 149 715 c 0,6,7
 168 774 168 774 198 774 c 0,8,9
 202 774 202 774 228 767 c 2,10,-1
 393 716 l 2,11,12
 407 711 407 711 414.5 707.5 c 0,13,14
 436 697.466666667 436 697.466666667 436 674.733333333 c 128,-1,15
 436 652 436 652 428 628 c 0,16,17
 409 569 409 569 379 569 c 1,0,-1
517.5 235.5 m 128,-1,19
 487 206 487 206 450 206 c 2,20,-1
 213 206 l 1,21,22
 213 178 213 178 246 159 c 128,-1,23
 279 140 279 140 311.5 140 c 0,24,25
 370 140 370 140 403 152 c 2,26,-1
 414 156 l 1,27,28
 438 167 438 167 454 167 c 0,29,30
 486 167 486 167 509 122 c 0,31,32
 522 95 522 95 522 76 c 0,33,34
 522 -13 522 -13 309 -13 c 0,35,36
 235 -13 235 -13 177.5 12.5 c 128,-1,37
 120 38 120 38 88 79.5 c 0,38,39
 25 161.203125 25 161.203125 25 261 c 0,40,41
 25 387 25 387 106.5 462.5 c 128,-1,42
 188 538 188 538 310 538 c 0,43,44
 448.75 538 448.75 538 513.5 440 c 0,45,46
 548 387.783783784 548 387.783783784 548 326.391891892 c 128,-1,18
 548 265 548 265 517.5 235.5 c 128,-1,19
337 297 m 2,47,48
 375 297 375 297 375 329 c 0,49,50
 375 352 375 352 357.5 366 c 128,-1,51
 340 380 340 380 307.5 380 c 128,-1,52
 275 380 275 380 243 353.5 c 128,-1,53
 211 327 211 327 211 297 c 1,54,-1
 337 297 l 2,47,48
EndSplineSet
EndChar

StartChar: igrave
Encoding: 236 236 128
Width: 255
Flags: MW
HStem: 0 21G<83.5 171> 754 20G<1 14.5>
VStem: 46 175
LayerCount: 2
Fore
SplineSet
40 439 m 2,0,1
 40 462 40 462 41.5 473.5 c 128,-1,2
 43 485 43 485 50.5 499.5 c 0,3,4
 64.2068965517 526 64.2068965517 526 128 526 c 0,5,6
 175.857142857 526 175.857142857 526 196.5 509 c 0,7,8
 212.922330097 495.475728155 212.922330097 495.475728155 214.5 465.5 c 0,9,10
 215 456 215 456 215 437 c 2,11,-1
 215 87 l 2,12,13
 215 64 215 64 213.5 52.5 c 128,-1,14
 212 41 212 41 204.5 26.5 c 0,15,16
 190.793103448 1.95399252334e-14 190.793103448 1.95399252334e-14 127 0 c 0,17,18
 64 0 64 0 50.5 27 c 0,19,20
 43 42 43 42 41.5 53 c 128,-1,21
 40 64 40 64 40 88 c 2,22,-1
 40 439 l 2,0,1
191 569 m 1,23,-1
 161 576 l 1,24,-1
 -4 628 l 2,25,26
 -30.88 635.68 -30.88 635.68 -38.94 646.84 c 128,-1,27
 -47 658 -47 658 -47 674.5 c 128,-1,28
 -47 691 -47 691 -39 715 c 0,29,30
 -20 774 -20 774 10 774 c 0,31,32
 14 774 14 774 40 767 c 2,33,-1
 205 716 l 2,34,35
 219 711 219 711 226.5 707.5 c 0,36,37
 248 697.466666667 248 697.466666667 248 674.733333333 c 128,-1,38
 248 652 248 652 240 628 c 0,39,40
 221 569 221 569 191 569 c 1,23,-1
EndSplineSet
EndChar

StartChar: circumflex
Encoding: 710 710 129
Width: 603
Flags: MW
HStem: 583 21G<425.5 440.5> 754 20G<298.5 307>
LayerCount: 2
Fore
SplineSet
303 774 m 1,0,-1
 326 769 l 1,1,2
 419 739 419 739 460.5 725 c 128,-1,3
 502 711 502 711 502 676 c 0,4,5
 502 657 502 657 491 636 c 0,6,7
 464 583 464 583 431 583 c 0,8,9
 422 583 422 583 399 590 c 1,10,-1
 303 632 l 1,11,-1
 210 592 l 2,12,13
 196 585 196 585 176 585 c 0,14,15
 138 585 138 585 114 636 c 0,16,17
 102 661.5 102 661.5 102 678 c 0,18,19
 102 710 102 710 140 723 c 2,20,-1
 279 769 l 1,21,-1
 303 774 l 1,0,-1
EndSplineSet
EndChar

StartChar: acircumflex
Encoding: 226 226 130
Width: 596
Flags: MW
HStem: 2 175<264 302 264 512> 352 174<260.5 300 205 317> 754 20G<322.5 331>
VStem: 25 175<242 283.5 242 336> 375 181<243.5 282.5>
LayerCount: 2
Fore
SplineSet
382 471 m 1,0,1
 388 527 388 527 461 527 c 0,2,3
 500 527 500 527 519 521 c 128,-1,4
 538 515 538 515 545.5 500 c 128,-1,5
 553 485 553 485 554.5 473.5 c 128,-1,6
 556 462 556 462 556 439 c 2,7,-1
 556 89 l 2,8,9
 556 66 556 66 554.5 54.5 c 128,-1,10
 553 43 553 43 545.5 28.5 c 0,11,12
 531.793103448 2 531.793103448 2 477.396551724 2 c 128,-1,13
 423 2 423 2 404.5 15.5 c 128,-1,14
 386 29 386 29 383 55 c 1,15,16
 346 2 346 2 259.5 2 c 128,-1,17
 173 2 173 2 99 81 c 128,-1,18
 25 160 25 160 25 264.5 c 128,-1,19
 25 369 25 369 99.5 447.5 c 128,-1,20
 174 526 174 526 263 526 c 0,21,22
 297 526 297 526 325 514 c 128,-1,23
 353 502 353 502 364 491.5 c 128,-1,24
 375 481 375 481 382 471 c 1,0,1
226 203.5 m 128,-1,26
 252 177 252 177 289 177 c 128,-1,27
 326 177 326 177 350.5 204 c 128,-1,28
 375 231 375 231 375 263.5 c 128,-1,29
 375 296 375 296 351.5 324 c 128,-1,30
 328 352 328 352 288.5 352 c 128,-1,31
 249 352 249 352 224.5 324 c 128,-1,32
 200 296 200 296 200 263 c 128,-1,25
 200 230 200 230 226 203.5 c 128,-1,26
327 774 m 1,33,-1
 350 769 l 1,34,35
 443 739 443 739 484.5 725 c 128,-1,36
 526 711 526 711 526 676 c 0,37,38
 526 657 526 657 515 636 c 0,39,40
 488 583 488 583 455 583 c 0,41,42
 446 583 446 583 423 590 c 1,43,-1
 327 632 l 1,44,-1
 234 592 l 2,45,46
 220 585 220 585 200 585 c 0,47,48
 162 585 162 585 138 636 c 0,49,50
 126 661.5 126 661.5 126 678 c 0,51,52
 126 710 126 710 164 723 c 2,53,-1
 303 769 l 1,54,-1
 327 774 l 1,33,-1
EndSplineSet
EndChar

StartChar: ecircumflex
Encoding: 234 234 131
Width: 573
Flags: MW
HStem: -6 151 196 37 196 175 532 53 754 20G<292.5 301>
LayerCount: 2
Fore
SplineSet
297 774 m 1,0,-1
 320 769 l 1,1,2
 413 739 413 739 454.5 725 c 128,-1,3
 496 711 496 711 496 676 c 0,4,5
 496 657 496 657 485 636 c 0,6,7
 458 583 458 583 425 583 c 0,8,9
 416 583 416 583 393 590 c 1,10,-1
 297 632 l 1,11,-1
 204 592 l 2,12,13
 190 585 190 585 170 585 c 0,14,15
 132 585 132 585 108 636 c 0,16,17
 96 661.5 96 661.5 96 678 c 0,18,19
 96 710 96 710 134 723 c 2,20,-1
 273 769 l 1,21,-1
 297 774 l 1,0,-1
517.5 235.5 m 128,-1,23
 487 206 487 206 450 206 c 2,24,-1
 213 206 l 1,25,26
 213 178 213 178 246 159 c 128,-1,27
 279 140 279 140 311.5 140 c 0,28,29
 370 140 370 140 403 152 c 2,30,-1
 414 156 l 1,31,32
 438 167 438 167 454 167 c 0,33,34
 486 167 486 167 509 122 c 0,35,36
 522 95 522 95 522 76 c 0,37,38
 522 -13 522 -13 309 -13 c 0,39,40
 235 -13 235 -13 177.5 12.5 c 128,-1,41
 120 38 120 38 88 79.5 c 0,42,43
 25 161.203125 25 161.203125 25 261 c 0,44,45
 25 387 25 387 106.5 462.5 c 128,-1,46
 188 538 188 538 310 538 c 0,47,48
 448.75 538 448.75 538 513.5 440 c 0,49,50
 548 387.783783784 548 387.783783784 548 326.391891892 c 128,-1,22
 548 265 548 265 517.5 235.5 c 128,-1,23
337 297 m 2,51,52
 375 297 375 297 375 329 c 0,53,54
 375 352 375 352 357.5 366 c 128,-1,55
 340 380 340 380 307.5 380 c 128,-1,56
 275 380 275 380 243 353.5 c 128,-1,57
 211 327 211 327 211 297 c 1,58,-1
 337 297 l 2,51,52
EndSplineSet
EndChar

StartChar: icircumflex
Encoding: 238 238 132
Width: 255
Flags: MW
HStem: 0 21G<83.5 171> 526 59 754 20G<124.5 133>
VStem: 41 175
LayerCount: 2
Fore
SplineSet
40 439 m 2,0,1
 40 462 40 462 41.5 473.5 c 128,-1,2
 43 485 43 485 50.5 499.5 c 0,3,4
 64.2068965517 526 64.2068965517 526 128 526 c 0,5,6
 175.857142857 526 175.857142857 526 196.5 509 c 0,7,8
 212.922330097 495.475728155 212.922330097 495.475728155 214.5 465.5 c 0,9,10
 215 456 215 456 215 437 c 2,11,-1
 215 87 l 2,12,13
 215 64 215 64 213.5 52.5 c 128,-1,14
 212 41 212 41 204.5 26.5 c 0,15,16
 190.793103448 1.95399252334e-14 190.793103448 1.95399252334e-14 127 0 c 0,17,18
 64 0 64 0 50.5 27 c 0,19,20
 43 42 43 42 41.5 53 c 128,-1,21
 40 64 40 64 40 88 c 2,22,-1
 40 439 l 2,0,1
129 774 m 1,23,-1
 152 769 l 1,24,25
 245 739 245 739 286.5 725 c 128,-1,26
 328 711 328 711 328 676 c 0,27,28
 328 657 328 657 317 636 c 0,29,30
 290 583 290 583 257 583 c 0,31,32
 248 583 248 583 225 590 c 1,33,-1
 129 632 l 1,34,-1
 36 592 l 2,35,36
 22 585 22 585 2 585 c 0,37,38
 -36 585 -36 585 -60 636 c 0,39,40
 -72 661.5 -72 661.5 -72 678 c 0,41,42
 -72 710 -72 710 -34 723 c 2,43,-1
 105 769 l 1,44,-1
 129 774 l 1,23,-1
EndSplineSet
EndChar

StartChar: ocircumflex
Encoding: 244 244 133
Width: 600
Flags: MW
HStem: -9 176<282 316 282 364> 363 176<280 319> 754 20G<299.5 308>
VStem: 25 177<228.5 300.5 228.5 346.5> 398 177<229 302>
LayerCount: 2
Fore
SplineSet
109 461 m 128,-1,1
 193 539 193 539 301 539 c 128,-1,2
 409 539 409 539 492 461.5 c 128,-1,3
 575 384 575 384 575 264 c 0,4,5
 575 181 575 181 532 116.5 c 128,-1,6
 489 52 489 52 427.5 21.5 c 128,-1,7
 366 -9 366 -9 300 -9 c 128,-1,8
 234 -9 234 -9 172 23.5 c 128,-1,9
 110 56 110 56 67.5 119.5 c 128,-1,10
 25 183 25 183 25 263 c 0,11,0
 25 383 25 383 109 461 c 128,-1,1
299 167 m 128,-1,13
 332 167 332 167 365 192 c 128,-1,14
 398 217 398 217 398 266 c 128,-1,15
 398 315 398 315 367 339 c 128,-1,16
 336 363 336 363 300 363 c 128,-1,17
 264 363 264 363 233 338 c 128,-1,18
 202 313 202 313 202 264.5 c 128,-1,19
 202 216 202 216 234 191.5 c 128,-1,12
 266 167 266 167 299 167 c 128,-1,13
304 774 m 1,20,-1
 327 769 l 1,21,22
 420 739 420 739 461.5 725 c 128,-1,23
 503 711 503 711 503 676 c 0,24,25
 503 657 503 657 492 636 c 0,26,27
 466 583 466 583 432 583 c 0,28,29
 423 583 423 583 400 590 c 1,30,-1
 304 632 l 1,31,-1
 211 592 l 2,32,33
 210 592 210 592 209.5 591.5 c 0,34,35
 190 585 190 585 177 585 c 0,36,37
 139 585 139 585 115 636 c 0,38,39
 103 661.5 103 661.5 103 678 c 0,40,41
 103 710 103 710 141 723 c 2,42,-1
 280 769 l 1,43,-1
 304 774 l 1,20,-1
EndSplineSet
EndChar

StartChar: ucircumflex
Encoding: 251 251 134
Width: 606
Flags: MW
HStem: 1 176<277 521.5> 2 21G<206 311.5> 528 57<171 172> 754 20G<303.5 312>
VStem: 40 176<265 439 236 440> 391 175<264 440>
LayerCount: 2
Fore
SplineSet
274 2 m 0,0,1
 173 2 173 2 106.5 78.5 c 128,-1,2
 40 155 40 155 40 265 c 2,3,-1
 40 440 l 2,4,5
 40 464 40 464 41.5 475 c 128,-1,6
 43 486 43 486 50.5 501 c 0,7,8
 64 528 64 528 128 528 c 0,9,10
 198 528 198 528 210.5 490.5 c 0,11,12
 216 474 216 474 216 439 c 2,13,-1
 216 264 l 2,14,15
 216 223 216 223 239.5 200 c 128,-1,16
 263 177 263 177 302.5 177 c 128,-1,17
 342 177 342 177 366.5 201 c 128,-1,18
 391 225 391 225 391 264 c 2,19,-1
 391 441 l 2,20,21
 391 464 391 464 392.5 475.5 c 128,-1,22
 394 487 394 487 401.5 501.5 c 0,23,24
 415.206896552 528 415.206896552 528 479 528 c 0,25,26
 542 528 542 528 555.5 501 c 0,27,28
 563 486 563 486 564.5 474.5 c 128,-1,29
 566 463 566 463 566 440 c 2,30,-1
 566 86 l 2,31,32
 566 64 566 64 564.5 52.5 c 128,-1,33
 563 41 563 41 555 27 c 0,34,35
 540.142857143 1 540.142857143 1 478 1 c 0,36,37
 417 1 417 1 403 25 c 0,38,39
 393 42.1428571429 393 42.1428571429 393 66 c 1,40,41
 388.6 59.4 388.6 59.4 374.8 46.2 c 128,-1,42
 361 33 361 33 348 24.5 c 0,43,44
 313.588235294 2 313.588235294 2 274 2 c 0,0,1
308 774 m 1,45,-1
 331 769 l 1,46,47
 424 739 424 739 465.5 725 c 128,-1,48
 507 711 507 711 507 676 c 0,49,50
 507 657 507 657 496 636 c 0,51,52
 470 583 470 583 436 583 c 0,53,54
 427 583 427 583 404 590 c 1,55,-1
 308 632 l 1,56,-1
 215 592 l 2,57,58
 214 592 214 592 213.5 591.5 c 0,59,60
 194 585 194 585 181 585 c 0,61,62
 143 585 143 585 119 636 c 0,63,64
 107 661.5 107 661.5 107 678 c 0,65,66
 107 710 107 710 145 723 c 2,67,-1
 284 769 l 1,68,-1
 308 774 l 1,45,-1
EndSplineSet
EndChar

StartChar: Ocircumflex
Encoding: 212 212 135
Width: 775
Flags: MW
HStem: -12 177<343.5 430.5 343.5 493.5> 565 177<343.5 431> 954 20G<385.5 394>
VStem: 25 177<302 427.5 302 474> 573 177<300 428.5>
LayerCount: 2
Fore
SplineSet
384 742 m 0,0,1
 532 742 532 742 641 635 c 128,-1,2
 750 528 750 528 750 369.5 c 128,-1,3
 750 211 750 211 646 99.5 c 128,-1,4
 542 -12 542 -12 390 -12 c 128,-1,5
 238 -12 238 -12 131.5 98 c 128,-1,6
 25 208 25 208 25 360 c 0,7,8
 25 443 25 443 55 515.5 c 128,-1,9
 85 588 85 588 135 637 c 128,-1,10
 185 686 185 686 250 714 c 128,-1,11
 315 742 315 742 384 742 c 0,0,1
259.5 220.5 m 128,-1,13
 317 165 317 165 388 165 c 128,-1,14
 459 165 459 165 516 219 c 128,-1,15
 573 273 573 273 573 364 c 128,-1,16
 573 455 573 455 515.5 510 c 128,-1,17
 458 565 458 565 387 565 c 128,-1,18
 316 565 316 565 259 509.5 c 128,-1,19
 202 454 202 454 202 365 c 128,-1,12
 202 276 202 276 259.5 220.5 c 128,-1,13
390 974 m 1,20,-1
 413 969 l 1,21,22
 506 939 506 939 547.5 925 c 128,-1,23
 589 911 589 911 589 876 c 0,24,25
 589 857 589 857 578 836 c 0,26,27
 552 783 552 783 518 783 c 0,28,29
 509 783 509 783 486 790 c 1,30,-1
 390 832 l 1,31,-1
 297 792 l 2,32,33
 296 792 296 792 295.5 791.5 c 0,34,35
 276 785 276 785 263 785 c 0,36,37
 225 785 225 785 201 836 c 0,38,39
 189 861.5 189 861.5 189 878 c 0,40,41
 189 910 189 910 227 923 c 2,42,-1
 366 969 l 1,43,-1
 390 974 l 1,20,-1
EndSplineSet
EndChar

StartChar: Ucircumflex
Encoding: 219 219 136
Width: 726
Flags: MW
HStem: -12 178<306.5 417 306.5 467.5> 734 51 954 20G<372.5 381>
VStem: 40 178<344 644> 509 177<345 644>
LayerCount: 2
Fore
SplineSet
548 728 m 128,-1,1
 567 734 567 734 595.5 734 c 128,-1,2
 624 734 624 734 641 729 c 128,-1,3
 658 724 658 724 667 717 c 128,-1,4
 676 710 676 710 680.5 696 c 0,5,6
 686 678.888888889 686 678.888888889 686 644 c 2,7,-1
 686 342 l 2,8,9
 686 210.063291139 686 210.063291139 603.5 102.5 c 0,10,11
 564 51 564 51 501 19.5 c 128,-1,12
 438 -12 438 -12 361.5 -12 c 128,-1,13
 285 -12 285 -12 222.5 20 c 128,-1,14
 160 52 160 52 121 103.5 c 0,15,16
 40 210.461538462 40 210.461538462 40 344 c 2,17,-1
 40 645 l 2,18,19
 40 669 40 669 41.5 680.5 c 128,-1,20
 43 692 43 692 51 707 c 128,-1,21
 59 722 59 722 78 728 c 128,-1,22
 97 734 97 734 129 734 c 128,-1,23
 161 734 161 734 180 728 c 128,-1,24
 199 722 199 722 206.5 707 c 0,25,26
 218 684 218 684 218 644 c 2,27,-1
 218 344 l 2,28,29
 218 282.741935484 218 282.741935484 247.5 228.5 c 0,30,31
 263 200 263 200 293 183 c 128,-1,32
 323 166 323 166 364 166 c 0,33,34
 437 166 437 166 473 220 c 128,-1,35
 509 274 509 274 509 345 c 2,36,-1
 509 651 l 2,37,38
 509 689.5 509 689.5 519 705.75 c 128,-1,0
 529 722 529 722 548 728 c 128,-1,1
377 974 m 1,39,-1
 400 969 l 1,40,41
 493 939 493 939 534.5 925 c 128,-1,42
 576 911 576 911 576 876 c 0,43,44
 576 857 576 857 565 836 c 0,45,46
 538 783 538 783 505 783 c 0,47,48
 496 783 496 783 473 790 c 1,49,-1
 377 832 l 1,50,-1
 284 792 l 2,51,52
 270 785 270 785 250 785 c 0,53,54
 212 785 212 785 188 836 c 0,55,56
 176 861.5 176 861.5 176 878 c 0,57,58
 176 910 176 910 214 923 c 2,59,-1
 353 969 l 1,60,-1
 377 974 l 1,39,-1
EndSplineSet
EndChar

StartChar: Ugrave
Encoding: 217 217 137
Width: 726
Flags: MW
HStem: -12 178<306.5 417 306.5 467.5> 941 20G<207 220.5>
VStem: 40 178<344 644> 509 177<345 644>
LayerCount: 2
Fore
SplineSet
548 728 m 128,-1,1
 567 734 567 734 595.5 734 c 128,-1,2
 624 734 624 734 641 729 c 128,-1,3
 658 724 658 724 667 717 c 128,-1,4
 676 710 676 710 680.5 696 c 0,5,6
 686 678.888888889 686 678.888888889 686 644 c 2,7,-1
 686 342 l 2,8,9
 686 210.063291139 686 210.063291139 603.5 102.5 c 0,10,11
 564 51 564 51 501 19.5 c 128,-1,12
 438 -12 438 -12 361.5 -12 c 128,-1,13
 285 -12 285 -12 222.5 20 c 128,-1,14
 160 52 160 52 121 103.5 c 0,15,16
 40 210.461538462 40 210.461538462 40 344 c 2,17,-1
 40 645 l 2,18,19
 40 669 40 669 41.5 680.5 c 128,-1,20
 43 692 43 692 51 707 c 128,-1,21
 59 722 59 722 78 728 c 128,-1,22
 97 734 97 734 129 734 c 128,-1,23
 161 734 161 734 180 728 c 128,-1,24
 199 722 199 722 206.5 707 c 0,25,26
 218 684 218 684 218 644 c 2,27,-1
 218 344 l 2,28,29
 218 282.741935484 218 282.741935484 247.5 228.5 c 0,30,31
 263 200 263 200 293 183 c 128,-1,32
 323 166 323 166 364 166 c 0,33,34
 437 166 437 166 473 220 c 128,-1,35
 509 274 509 274 509 345 c 2,36,-1
 509 651 l 2,37,38
 509 689.5 509 689.5 519 705.75 c 128,-1,0
 529 722 529 722 548 728 c 128,-1,1
397 756 m 1,39,-1
 367 763 l 1,40,-1
 202 815 l 2,41,42
 175.12 822.68 175.12 822.68 167.06 833.84 c 128,-1,43
 159 845 159 845 159 861.5 c 128,-1,44
 159 878 159 878 167 902 c 0,45,46
 186 961 186 961 216 961 c 0,47,48
 220 961 220 961 246 954 c 2,49,-1
 411 903 l 2,50,51
 425 898 425 898 432.5 894.5 c 0,52,53
 454 884.466666667 454 884.466666667 454 861.733333333 c 128,-1,54
 454 839 454 839 446 815 c 0,55,56
 427 756 427 756 397 756 c 1,39,-1
EndSplineSet
EndChar

StartChar: Ecircumflex
Encoding: 202 202 138
Width: 638
Flags: MW
HStem: 0 177<84 525 217 524> 177 101<217 413 217 525> 278 177<217 413 217 415> 556 177<217 524 217 217> 954 20G<319.5 328>
VStem: 40 177<177 177 177 278 455 556>
LayerCount: 2
Fore
SplineSet
217 177 m 1,0,-1
 525 177 l 2,1,2
 548 177 548 177 559.5 175.5 c 128,-1,3
 571 174 571 174 586 166 c 0,4,5
 613 151.6 613 151.6 613 88 c 0,6,7
 613 18 613 18 575.5 5.5 c 0,8,9
 559 0 559 0 524 0 c 2,10,-1
 128 0 l 2,11,12
 58 0 58 0 45.5 37.5 c 0,13,14
 40 54 40 54 40 89 c 2,15,-1
 40 645 l 2,16,17
 40 696 40 696 59 714.5 c 128,-1,18
 78 733 78 733 131 733 c 2,19,-1
 525 733 l 2,20,21
 548 733 548 733 559.5 731.5 c 128,-1,22
 571 730 571 730 586 722 c 0,23,24
 613 707.6 613 707.6 613 644 c 0,25,26
 613 574 613 574 575.5 561.5 c 0,27,28
 559 556 559 556 524 556 c 2,29,-1
 217 556 l 1,30,-1
 217 455 l 1,31,-1
 415 455 l 2,32,33
 438 455 438 455 449.5 453.5 c 128,-1,34
 461 452 461 452 476 444 c 0,35,36
 503 429.6 503 429.6 503 366 c 0,37,38
 503 295.714285714 503 295.714285714 465 283.5 c 0,39,40
 447.888888889 278 447.888888889 278 413 278 c 2,41,-1
 217 278 l 1,42,-1
 217 177 l 1,0,-1
324 974 m 1,43,-1
 347 969 l 1,44,45
 440 939 440 939 481.5 925 c 128,-1,46
 523 911 523 911 523 876 c 0,47,48
 523 857 523 857 512 836 c 0,49,50
 486 783 486 783 452 783 c 0,51,52
 443 783 443 783 420 790 c 1,53,-1
 324 832 l 1,54,-1
 231 792 l 2,55,56
 230 792 230 792 229.5 791.5 c 0,57,58
 210 785 210 785 197 785 c 0,59,60
 159 785 159 785 135 836 c 0,61,62
 123 861.5 123 861.5 123 878 c 0,63,64
 123 910 123 910 161 923 c 2,65,-1
 300 969 l 1,66,-1
 324 974 l 1,43,-1
EndSplineSet
EndChar

StartChar: Acircumflex
Encoding: 194 194 139
Width: 765
Flags: MW
HStem: -9 21G<122.5 147> 954 20G<379.5 388>
LayerCount: 2
Fore
SplineSet
384 974 m 1,0,-1
 407 969 l 1,1,2
 500 939 500 939 541.5 925 c 128,-1,3
 583 911 583 911 583 876 c 0,4,5
 583 857 583 857 572 836 c 0,6,7
 546 783 546 783 512 783 c 0,8,9
 503 783 503 783 480 790 c 1,10,-1
 384 832 l 1,11,-1
 291 792 l 2,12,13
 290 792 290 792 289.5 791.5 c 0,14,15
 270 785 270 785 257 785 c 0,16,17
 219 785 219 785 195 836 c 0,18,19
 183 861.5 183 861.5 183 878 c 0,20,21
 183 910 183 910 221 923 c 2,22,-1
 360 969 l 1,23,-1
 384 974 l 1,0,-1
463 681 m 2,24,-1
 733 123 l 2,25,26
 750 89 750 89 750 72 c 0,27,28
 750 36 750 36 692 7 c 0,29,30
 658 -10 658 -10 638.5 -10 c 128,-1,31
 619 -10 619 -10 606.5 -1 c 128,-1,32
 594 8 594 8 588.5 18 c 128,-1,33
 583 28 583 28 573 48 c 2,34,-1
 521 156 l 1,35,-1
 244 156 l 1,36,-1
 192 48 l 2,37,38
 182 28 182 28 176.5 19 c 128,-1,39
 171 10 171 10 158.5 0.5 c 128,-1,40
 146 -9 146 -9 126.5 -9 c 128,-1,41
 107 -9 107 -9 73 8 c 0,42,43
 15 36 15 36 15 72 c 0,44,45
 15 89 15 89 32 123 c 2,46,-1
 302 682 l 2,47,48
 313 705 313 705 335.5 719 c 128,-1,49
 358 733 358 733 383 733 c 0,50,51
 437 733 437 733 463 681 c 2,24,-1
382 441 m 1,52,-1
 316 304 l 1,53,-1
 449 304 l 1,54,-1
 382 441 l 1,52,-1
EndSplineSet
EndChar

StartChar: Agrave
Encoding: 192 192 140
Width: 765
Flags: MW
HStem: -9 21G<122.5 147> 156 148<316 449 316 521 244 449> 941 20G<256 269.5>
LayerCount: 2
Fore
SplineSet
446 756 m 0,0,1
 437 756 437 756 416 763 c 2,2,-1
 251 815 l 2,3,4
 224.12 822.68 224.12 822.68 216.06 833.84 c 128,-1,5
 208 845 208 845 208 861.5 c 128,-1,6
 208 878 208 878 216 902 c 0,7,8
 235 961 235 961 265 961 c 0,9,10
 269 961 269 961 295 954 c 2,11,-1
 460 903 l 2,12,13
 474 898 474 898 481.5 894.5 c 0,14,15
 503 884.466666667 503 884.466666667 503 861.733333333 c 128,-1,16
 503 839 503 839 495 815 c 0,17,18
 476 756 476 756 446 756 c 0,0,1
463 681 m 2,19,-1
 733 123 l 2,20,21
 750 89 750 89 750 72 c 0,22,23
 750 36 750 36 692 7 c 0,24,25
 658 -10 658 -10 638.5 -10 c 128,-1,26
 619 -10 619 -10 606.5 -1 c 128,-1,27
 594 8 594 8 588.5 18 c 128,-1,28
 583 28 583 28 573 48 c 2,29,-1
 521 156 l 1,30,-1
 244 156 l 1,31,-1
 192 48 l 2,32,33
 182 28 182 28 176.5 19 c 128,-1,34
 171 10 171 10 158.5 0.5 c 128,-1,35
 146 -9 146 -9 126.5 -9 c 128,-1,36
 107 -9 107 -9 73 8 c 0,37,38
 15 36 15 36 15 72 c 0,39,40
 15 89 15 89 32 123 c 2,41,-1
 302 682 l 2,42,43
 313 705 313 705 335.5 719 c 128,-1,44
 358 733 358 733 383 733 c 0,45,46
 437 733 437 733 463 681 c 2,19,-1
382 441 m 1,47,-1
 316 304 l 1,48,-1
 449 304 l 1,49,-1
 382 441 l 1,47,-1
EndSplineSet
EndChar

StartChar: Egrave
Encoding: 200 200 141
Width: 638
Flags: MW
HStem: 0 177<84 525 217 524> 278 177<217 413 217 415> 556 177<217 524 217 217> 941 20G<235 248.5>
VStem: 40 177<177 177 177 278 455 556>
LayerCount: 2
Fore
SplineSet
217 177 m 1,0,-1
 525 177 l 2,1,2
 548 177 548 177 559.5 175.5 c 128,-1,3
 571 174 571 174 586 166 c 0,4,5
 613 151.6 613 151.6 613 88 c 0,6,7
 613 18 613 18 575.5 5.5 c 0,8,9
 559 0 559 0 524 0 c 2,10,-1
 128 0 l 2,11,12
 58 0 58 0 45.5 37.5 c 0,13,14
 40 54 40 54 40 89 c 2,15,-1
 40 645 l 2,16,17
 40 696 40 696 59 714.5 c 128,-1,18
 78 733 78 733 131 733 c 2,19,-1
 525 733 l 2,20,21
 548 733 548 733 559.5 731.5 c 128,-1,22
 571 730 571 730 586 722 c 0,23,24
 613 707.6 613 707.6 613 644 c 0,25,26
 613 574 613 574 575.5 561.5 c 0,27,28
 559 556 559 556 524 556 c 2,29,-1
 217 556 l 1,30,-1
 217 455 l 1,31,-1
 415 455 l 2,32,33
 438 455 438 455 449.5 453.5 c 128,-1,34
 461 452 461 452 476 444 c 0,35,36
 503 429.6 503 429.6 503 366 c 0,37,38
 503 295.714285714 503 295.714285714 465 283.5 c 0,39,40
 447.888888889 278 447.888888889 278 413 278 c 2,41,-1
 217 278 l 1,42,-1
 217 177 l 1,0,-1
425 756 m 1,43,-1
 395 763 l 1,44,-1
 230 815 l 2,45,46
 203.12 822.68 203.12 822.68 195.06 833.84 c 128,-1,47
 187 845 187 845 187 861.5 c 128,-1,48
 187 878 187 878 195 902 c 0,49,50
 214 961 214 961 244 961 c 0,51,52
 248 961 248 961 274 954 c 2,53,-1
 439 903 l 2,54,55
 453 898 453 898 460.5 894.5 c 0,56,57
 482 884.466666667 482 884.466666667 482 861.733333333 c 128,-1,58
 482 839 482 839 474 815 c 0,59,60
 455 756 455 756 425 756 c 1,43,-1
EndSplineSet
EndChar

StartChar: Igrave
Encoding: 204 204 142
Width: 267
Flags: MW
HStem: 0 21G<89 177.5> 941 20G<-1 12.5>
VStem: 45 177<89 644>
LayerCount: 2
Fore
SplineSet
45 645 m 2,0,1
 45 668 45 668 46.5 679.5 c 128,-1,2
 48 691 48 691 56 706 c 0,3,4
 70.4 733 70.4 733 134 733 c 0,5,6
 204 733 204 733 216.5 695.5 c 0,7,8
 222 679 222 679 222 644 c 2,9,-1
 222 88 l 2,10,11
 222 64 222 64 220.5 53 c 128,-1,12
 219 42 219 42 211 27 c 0,13,14
 196.6 -1.06581410364e-14 196.6 -1.06581410364e-14 133 0 c 0,15,16
 63 0 63 0 50.5 37.5 c 0,17,18
 45 54 45 54 45 89 c 2,19,-1
 45 645 l 2,0,1
189 756 m 1,20,-1
 159 763 l 1,21,-1
 -6 815 l 2,22,23
 -32.88 822.68 -32.88 822.68 -40.94 833.84 c 128,-1,24
 -49 845 -49 845 -49 861.5 c 128,-1,25
 -49 878 -49 878 -41 902 c 0,26,27
 -22 961 -22 961 8 961 c 0,28,29
 12 961 12 961 38 954 c 2,30,-1
 203 903 l 2,31,32
 217 898 217 898 224.5 894.5 c 0,33,34
 246 884.466666667 246 884.466666667 246 861.733333333 c 128,-1,35
 246 839 246 839 238 815 c 0,36,37
 219 756 219 756 189 756 c 1,20,-1
EndSplineSet
EndChar

StartChar: Icircumflex
Encoding: 206 206 143
Width: 270
Flags: MW
HStem: 0 21G<90 178.5> 733 52 954 20G<131.5 140>
VStem: 46 177<89 644>
LayerCount: 2
Fore
SplineSet
46 645 m 2,0,1
 46 668 46 668 47.5 679.5 c 128,-1,2
 49 691 49 691 57 706 c 0,3,4
 71.4 733 71.4 733 135 733 c 0,5,6
 205 733 205 733 217.5 695.5 c 0,7,8
 223 679 223 679 223 644 c 2,9,-1
 223 88 l 2,10,11
 223 64 223 64 221.5 53 c 128,-1,12
 220 42 220 42 212 27 c 0,13,14
 197.6 -1.06581410364e-14 197.6 -1.06581410364e-14 134 0 c 0,15,16
 64 0 64 0 51.5 37.5 c 0,17,18
 46 54 46 54 46 89 c 2,19,-1
 46 645 l 2,0,1
136 974 m 1,20,-1
 159 969 l 1,21,22
 252 939 252 939 293.5 925 c 128,-1,23
 335 911 335 911 335 876 c 0,24,25
 335 857 335 857 324 836 c 0,26,27
 298 783 298 783 264 783 c 0,28,29
 255 783 255 783 232 790 c 1,30,-1
 136 832 l 1,31,-1
 43 792 l 2,32,33
 42 792 42 792 41.5 791.5 c 0,34,35
 22 785 22 785 9 785 c 0,36,37
 -29 785 -29 785 -53 836 c 0,38,39
 -65 861.5 -65 861.5 -65 878 c 0,40,41
 -65 910 -65 910 -27 923 c 2,42,-1
 112 969 l 1,43,-1
 136 974 l 1,20,-1
EndSplineSet
EndChar

StartChar: Ograve
Encoding: 210 210 144
Width: 775
Flags: MW
HStem: -12 177<343.5 430.5 343.5 493.5> 565 177<343.5 431> 941 20G<266 279.5>
VStem: 25 177<302 427.5 302 474> 573 177<300 428.5>
LayerCount: 2
Fore
SplineSet
384 742 m 0,0,1
 532 742 532 742 641 635 c 128,-1,2
 750 528 750 528 750 369.5 c 128,-1,3
 750 211 750 211 646 99.5 c 128,-1,4
 542 -12 542 -12 390 -12 c 128,-1,5
 238 -12 238 -12 131.5 98 c 128,-1,6
 25 208 25 208 25 360 c 0,7,8
 25 443 25 443 55 515.5 c 128,-1,9
 85 588 85 588 135 637 c 128,-1,10
 185 686 185 686 250 714 c 128,-1,11
 315 742 315 742 384 742 c 0,0,1
259.5 220.5 m 128,-1,13
 317 165 317 165 388 165 c 128,-1,14
 459 165 459 165 516 219 c 128,-1,15
 573 273 573 273 573 364 c 128,-1,16
 573 455 573 455 515.5 510 c 128,-1,17
 458 565 458 565 387 565 c 128,-1,18
 316 565 316 565 259 509.5 c 128,-1,19
 202 454 202 454 202 365 c 128,-1,12
 202 276 202 276 259.5 220.5 c 128,-1,13
456 756 m 0,20,21
 447 756 447 756 426 763 c 2,22,-1
 261 815 l 2,23,24
 234.12 822.68 234.12 822.68 226.06 833.84 c 128,-1,25
 218 845 218 845 218 861.5 c 128,-1,26
 218 878 218 878 226 902 c 0,27,28
 245 961 245 961 275 961 c 0,29,30
 279 961 279 961 305 954 c 2,31,-1
 470 903 l 2,32,33
 484 898 484 898 491.5 894.5 c 0,34,35
 513 884.466666667 513 884.466666667 513 861.733333333 c 128,-1,36
 513 839 513 839 505 815 c 0,37,38
 486 756 486 756 456 756 c 0,20,21
EndSplineSet
EndChar

StartChar: dieresis
Encoding: 168 168 145
Width: 489
Flags: MW
HStem: 595 178<85 174 355 444>
VStem: 40 179<660.5 685> 310 179<660.5 707.5 659 709.5>
LayerCount: 2
Fore
SplineSet
129 595 m 128,-1,1
 97 595 97 595 78 601 c 128,-1,2
 59 607 59 607 51 622.5 c 128,-1,3
 43 638 43 638 41.5 649.5 c 128,-1,4
 40 661 40 661 40.5 685.5 c 0,5,6
 41 710 41 710 42.5 720.5 c 128,-1,7
 44 731 44 731 51.5 746 c 128,-1,8
 59 761 59 761 78.5 767 c 128,-1,9
 98 773 98 773 130 773 c 128,-1,10
 162 773 162 773 181 767 c 128,-1,11
 200 761 200 761 208 745.5 c 128,-1,12
 216 730 216 730 217.5 718.5 c 128,-1,13
 219 707 219 707 219 683.5 c 0,14,15
 219 660 219 660 217.5 648.5 c 128,-1,16
 216 637 216 637 208 622 c 128,-1,17
 200 607 200 607 180.5 601 c 128,-1,0
 161 595 161 595 129 595 c 128,-1,1
399 595 m 128,-1,19
 367 595 367 595 348 601 c 128,-1,20
 329 607 329 607 321 622.5 c 128,-1,21
 313 638 313 638 311.5 649.5 c 128,-1,22
 310 661 310 661 310 685 c 128,-1,23
 310 709 310 709 311.5 720.5 c 128,-1,24
 313 732 313 732 321 746.5 c 128,-1,25
 329 761 329 761 348.5 767 c 128,-1,26
 368 773 368 773 400 773 c 128,-1,27
 432 773 432 773 451 767 c 128,-1,28
 470 761 470 761 478 745.5 c 128,-1,29
 486 730 486 730 487.5 718.5 c 128,-1,30
 489 707 489 707 489 683.5 c 0,31,32
 489 660 489 660 487.5 648.5 c 128,-1,33
 486 637 486 637 478 622 c 128,-1,34
 470 607 470 607 450.5 601 c 128,-1,18
 431 595 431 595 399 595 c 128,-1,19
EndSplineSet
EndChar

StartChar: adieresis
Encoding: 228 228 146
Width: 596
Flags: MW
HStem: 2 175<264 302 264 512> 352 174<260.5 300 205 317> 595 178<146 235 416 505>
VStem: 25 175<242 283.5 242 336> 375 181<243.5 282.5>
LayerCount: 2
Fore
SplineSet
382 471 m 1,0,1
 388 527 388 527 461 527 c 0,2,3
 500 527 500 527 519 521 c 128,-1,4
 538 515 538 515 545.5 500 c 128,-1,5
 553 485 553 485 554.5 473.5 c 128,-1,6
 556 462 556 462 556 439 c 2,7,-1
 556 89 l 2,8,9
 556 66 556 66 554.5 54.5 c 128,-1,10
 553 43 553 43 545.5 28.5 c 0,11,12
 531.793103448 2 531.793103448 2 477.396551724 2 c 128,-1,13
 423 2 423 2 404.5 15.5 c 128,-1,14
 386 29 386 29 383 55 c 1,15,16
 346 2 346 2 259.5 2 c 128,-1,17
 173 2 173 2 99 81 c 128,-1,18
 25 160 25 160 25 264.5 c 128,-1,19
 25 369 25 369 99.5 447.5 c 128,-1,20
 174 526 174 526 263 526 c 0,21,22
 297 526 297 526 325 514 c 128,-1,23
 353 502 353 502 364 491.5 c 128,-1,24
 375 481 375 481 382 471 c 1,0,1
226 203.5 m 128,-1,26
 252 177 252 177 289 177 c 128,-1,27
 326 177 326 177 350.5 204 c 128,-1,28
 375 231 375 231 375 263.5 c 128,-1,29
 375 296 375 296 351.5 324 c 128,-1,30
 328 352 328 352 288.5 352 c 128,-1,31
 249 352 249 352 224.5 324 c 128,-1,32
 200 296 200 296 200 263 c 128,-1,25
 200 230 200 230 226 203.5 c 128,-1,26
190 595 m 128,-1,34
 158 595 158 595 139 601 c 128,-1,35
 120 607 120 607 112 622.5 c 128,-1,36
 104 638 104 638 102.5 649.5 c 128,-1,37
 101 661 101 661 101.5 685.5 c 128,-1,38
 102 710 102 710 103.5 720.5 c 128,-1,39
 105 731 105 731 112.5 746 c 128,-1,40
 120 761 120 761 139.5 767 c 128,-1,41
 159 773 159 773 191 773 c 128,-1,42
 223 773 223 773 242 767 c 128,-1,43
 261 761 261 761 269 745.5 c 128,-1,44
 277 730 277 730 278.5 718.5 c 128,-1,45
 280 707 280 707 280 683.5 c 128,-1,46
 280 660 280 660 278.5 648.5 c 128,-1,47
 277 637 277 637 269 622 c 128,-1,48
 261 607 261 607 241.5 601 c 128,-1,33
 222 595 222 595 190 595 c 128,-1,34
460 595 m 128,-1,50
 428 595 428 595 409 601 c 128,-1,51
 390 607 390 607 382 622.5 c 128,-1,52
 374 638 374 638 372.5 649.5 c 128,-1,53
 371 661 371 661 371 685 c 128,-1,54
 371 709 371 709 372.5 720.5 c 128,-1,55
 374 732 374 732 382 746.5 c 128,-1,56
 390 761 390 761 409.5 767 c 128,-1,57
 429 773 429 773 461 773 c 128,-1,58
 493 773 493 773 512 767 c 128,-1,59
 531 761 531 761 539 745.5 c 128,-1,60
 547 730 547 730 548.5 718.5 c 128,-1,61
 550 707 550 707 550 683.5 c 128,-1,62
 550 660 550 660 548.5 648.5 c 128,-1,63
 547 637 547 637 539 622 c 128,-1,64
 531 607 531 607 511.5 601 c 128,-1,49
 492 595 492 595 460 595 c 128,-1,50
EndSplineSet
EndChar

